<svg width="255" height="236" viewBox="0 0 255 236" fill="none" xmlns="http://www.w3.org/2000/svg">
  <g clip-path="url(#clip0_1_2)">
    <path d="M23.8577 95.2185L18.8378 95.5184L16.5577 81.1085L21.4977 80.3284L23.8577 95.2185Z" stroke="#231E20"
      stroke-miterlimit="10" stroke-linecap="round" stroke-linejoin="round" />
    <path d="M27.1277 115.918L22.0878 116.058L19.1578 97.5084L24.1677 97.2085L27.1277 115.918Z" stroke="#231E20"
      stroke-miterlimit="10" stroke-linecap="round" stroke-linejoin="round" />
    <path d="M30.8577 139.499H25.7977L22.4078 118.048L27.4478 117.918L30.8577 139.499Z" stroke="#231E20"
      stroke-miterlimit="10" stroke-linecap="round" stroke-linejoin="round" />
    <path
      d="M164.641 156.635C164.201 158.445 163.791 160.104 163.421 161.584L42.5612 155.584C34.5313 155.185 27.7512 149.325 26.1413 141.495H31.2813C32.7813 146.594 37.4013 150.325 42.8112 150.584L62.0512 151.544L78.6112 152.365L111.901 154.015L142.561 155.544L157.531 156.284L164.641 156.635Z"
      stroke="#231E20" stroke-miterlimit="10" stroke-linecap="round" stroke-linejoin="round" />
    <path
      d="M196.821 141.495L195.831 148.635C194.731 156.604 188.021 162.394 180.071 162.394C179.791 162.394 179.521 162.385 179.251 162.375L167.491 161.794C167.891 160.164 168.291 158.515 168.701 156.844L173.421 157.075L179.491 157.375C185.201 157.675 190.091 153.604 190.881 147.945L191.771 141.495H196.821Z"
      stroke="#231E20" stroke-miterlimit="10" stroke-linecap="round" stroke-linejoin="round" />
    <path d="M200.708 113.308L197.088 139.499H192.048L195.648 113.438L200.708 113.308Z" stroke="#231E20"
      stroke-miterlimit="10" stroke-linecap="round" stroke-linejoin="round" />
    <path d="M204.458 86.1984L200.988 111.308L195.918 111.438L199.368 86.5084L204.458 86.1984Z" stroke="#231E20"
      stroke-miterlimit="10" stroke-linecap="round" stroke-linejoin="round" />
    <path d="M208.398 57.7185L204.738 84.1785L199.648 84.4885L203.268 58.2885L208.398 57.7185Z" stroke="#231E20"
      stroke-miterlimit="10" stroke-linecap="round" stroke-linejoin="round" />
    <path
      d="M218.478 37.9385L213.618 42.1685C211.368 44.1384 209.898 46.8585 209.488 49.8184L208.678 55.6685V55.6785L203.548 56.2485V56.2385L204.528 49.1384C205.108 44.9785 207.168 41.1585 210.338 38.3985L215.188 34.1685"
      stroke="#231E20" stroke-miterlimit="10" stroke-linecap="round" stroke-linejoin="round" />
    <path
      d="M183.201 85.4945C183.011 86.1645 182.821 86.8445 182.631 87.5245L180.331 87.6645L161.001 88.8445L143.971 89.8845L126.131 90.9745L109.671 91.9845L92.9713 93.0045L75.1012 94.0945L57.9613 95.1445L40.4813 96.2045L24.1713 97.2045L19.1612 97.5045L18.7013 97.5345H18.6412C18.1112 97.5345 17.6713 97.1245 17.6412 96.5945C17.6112 96.0445 18.0212 95.5746 18.5812 95.5345L18.8412 95.5146L23.8612 95.2145L40.2913 94.2145L57.8212 93.1445L74.9813 92.0945L92.8712 91.0045L109.601 89.9845L126.111 88.9745L144.021 87.8845L161.111 86.8345L180.531 85.6545L183.201 85.4945Z"
      stroke="#231E20" stroke-miterlimit="10" stroke-linecap="round" stroke-linejoin="round" />
    <path
      d="M206.171 85.0945C206.201 85.6445 205.781 86.1145 205.231 86.1445L204.461 86.1945L199.371 86.5045L186.871 87.2646C187.061 86.5845 187.251 85.9045 187.441 85.2345L199.651 84.4845L204.741 84.1745L205.111 84.1545C205.681 84.1245 206.131 84.5445 206.171 85.0945Z"
      stroke="#231E20" stroke-miterlimit="10" stroke-linecap="round" stroke-linejoin="round" />
    <path
      d="M175.991 111.964C175.821 112.635 175.641 113.305 175.471 113.975L159.691 114.394L143.441 114.825L126.401 115.274L110.521 115.705L94.0913 116.144L76.4512 116.604L59.5512 117.055V117.065L42.5512 117.515L27.4512 117.914L22.4113 118.044L21.7113 118.064H21.6513C21.1212 118.064 20.6812 117.654 20.6513 117.124C20.6112 116.575 21.0313 116.094 21.5913 116.064L22.0913 116.054L27.1312 115.914L42.3612 115.515L59.4113 115.055L76.3313 114.604L93.9912 114.144L110.451 113.705L126.381 113.284L143.481 112.825L159.791 112.394L175.991 111.964Z"
      stroke="#231E20" stroke-miterlimit="10" stroke-linecap="round" stroke-linejoin="round" />
    <path
      d="M202.241 112.235C202.271 112.785 201.861 113.255 201.301 113.285L200.711 113.305L195.651 113.435L179.641 113.865C179.821 113.195 179.991 112.524 180.171 111.855L195.921 111.435L200.991 111.305L201.181 111.295C201.751 111.265 202.211 111.675 202.241 112.235Z"
      stroke="#231E20" stroke-miterlimit="10" stroke-linecap="round" stroke-linejoin="round" />
    <path
      d="M168.901 139.495C168.741 140.164 168.571 140.834 168.411 141.495H25.4813C24.9613 141.495 24.5213 141.084 24.4913 140.555C24.4513 140.005 24.8713 139.524 25.4213 139.495H168.901Z"
      stroke="#231E20" stroke-miterlimit="10" stroke-linecap="round" stroke-linejoin="round" />
    <path
      d="M198.371 140.434C198.411 140.984 197.991 141.455 197.441 141.494H172.521C172.691 140.825 172.861 140.164 173.031 139.494H197.311C197.881 139.464 198.341 139.885 198.371 140.434Z"
      stroke="#231E20" stroke-miterlimit="10" stroke-linecap="round" stroke-linejoin="round" />
    <path
      d="M191.631 57.5745C191.401 58.2545 191.171 58.9545 190.941 59.6645L183.031 60.5445L162.341 62.8545L144.511 64.8445L125.861 66.9245L108.841 68.8245L91.8913 70.7245L73.8112 72.7445L56.4813 74.6745L32.7813 77.3245L32.5712 77.3445C32.5413 77.3545 32.5012 77.3545 32.4613 77.3545C31.9613 77.3545 31.5313 76.9745 31.4713 76.4645C31.4113 75.9145 31.8012 75.4245 32.3513 75.3645L32.6912 75.3245L191.631 57.5745Z"
      stroke="#231E20" stroke-miterlimit="10" stroke-linecap="round" stroke-linejoin="round" />
    <path
      d="M210.311 56.4945C210.371 57.0445 209.971 57.5345 209.431 57.5945L208.401 57.7046V57.7145L203.271 58.2845L195.281 59.1745C195.511 58.4645 195.741 57.7646 195.971 57.0945L203.551 56.2445L208.681 55.6745L209.201 55.6145C209.751 55.5445 210.251 55.9445 210.311 56.4945Z"
      stroke="#231E20" stroke-miterlimit="10" stroke-linecap="round" stroke-linejoin="round" />
    <path d="M42.3578 115.518L40.4778 96.2085" stroke="#231E20" stroke-miterlimit="10" stroke-linecap="round"
      stroke-linejoin="round" />
    <path d="M45.7578 150.568L44.8777 141.498" stroke="#231E20" stroke-miterlimit="10" stroke-linecap="round"
      stroke-linejoin="round" />
    <path d="M44.6877 139.498L42.5478 117.518" stroke="#231E20" stroke-miterlimit="10" stroke-linecap="round"
      stroke-linejoin="round" />
    <path d="M40.2878 94.2185L38.5977 76.7985" stroke="#231E20" stroke-miterlimit="10" stroke-linecap="round"
      stroke-linejoin="round" />
    <path d="M57.8177 93.1485L56.4778 74.6785" stroke="#231E20" stroke-miterlimit="10" />
    <path d="M62.0478 151.548L61.3177 141.498" stroke="#231E20" stroke-miterlimit="10" />
    <path d="M61.1777 139.498L59.5478 117.068" stroke="#231E20" stroke-miterlimit="10" />
    <path d="M59.4077 115.058L57.9577 95.1485" stroke="#231E20" stroke-miterlimit="10" />
    <path d="M76.3278 114.608L75.0977 94.0985" stroke="#231E20" stroke-miterlimit="10" />
    <path d="M78.6078 152.368L77.9478 141.498" stroke="#231E20" stroke-miterlimit="10" />
    <path d="M77.8278 139.498L76.4478 116.608" stroke="#231E20" stroke-miterlimit="10" />
    <path d="M74.9778 92.0985L73.8077 72.7485" stroke="#231E20" stroke-miterlimit="10" />
    <path d="M93.9878 114.148L92.9677 93.0085" stroke="#231E20" stroke-miterlimit="10" />
    <path d="M95.8677 152.918L95.3177 141.498" stroke="#231E20" stroke-miterlimit="10" />
    <path d="M95.2177 139.498L94.0877 116.148" stroke="#231E20" stroke-miterlimit="10" />
    <path d="M92.8677 91.0085L91.8878 70.7285" stroke="#231E20" stroke-miterlimit="10" />
    <path d="M110.448 113.708L109.668 91.9885" stroke="#231E20" stroke-miterlimit="10" />
    <path d="M111.898 154.018L111.448 141.498" stroke="#231E20" stroke-miterlimit="10" />
    <path d="M111.378 139.498L110.518 115.708" stroke="#231E20" stroke-miterlimit="10" />
    <path d="M109.598 89.9885L108.838 68.8285" stroke="#231E20" stroke-miterlimit="10" />
    <path d="M126.378 113.288L126.128 90.9785" stroke="#231E20" stroke-miterlimit="10" />
    <path d="M126.828 154.018L126.688 141.498" stroke="#231E20" stroke-miterlimit="10" />
    <path d="M126.668 139.498L126.398 115.278" stroke="#231E20" stroke-miterlimit="10" />
    <path d="M126.108 88.9785L125.858 66.4885" stroke="#231E20" stroke-miterlimit="10" />
    <path d="M143.968 89.8885L143.478 112.828" stroke="#231E20" stroke-miterlimit="10" />
    <path d="M142.558 155.768V155.548L142.868 141.498" stroke="#231E20" stroke-miterlimit="10" />
    <path d="M143.438 114.828L142.908 139.498" stroke="#231E20" stroke-miterlimit="10" />
    <path d="M144.508 64.8485L144.018 87.8885" stroke="#231E20" stroke-miterlimit="10" />
    <path d="M160.998 88.8485L159.788 112.398" stroke="#231E20" stroke-miterlimit="10" stroke-linecap="round"
      stroke-linejoin="round" />
    <path d="M158.288 141.498L157.528 156.288" stroke="#231E20" stroke-miterlimit="10" stroke-linecap="round"
      stroke-linejoin="round" />
    <path d="M159.688 114.398L158.388 139.498" stroke="#231E20" stroke-miterlimit="10" stroke-linecap="round"
      stroke-linejoin="round" />
    <path d="M162.338 62.8585L161.108 86.8385" stroke="#231E20" stroke-miterlimit="10" stroke-linecap="round"
      stroke-linejoin="round" />
    <path d="M180.328 87.6685L179.048 100.528" stroke="#231E20" stroke-miterlimit="10" stroke-linecap="round"
      stroke-linejoin="round" />
    <path d="M174.968 141.498L173.418 157.078" stroke="#231E20" stroke-miterlimit="10" stroke-linecap="round"
      stroke-linejoin="round" />
    <path d="M176.538 125.728L175.168 139.498" stroke="#231E20" stroke-miterlimit="10" stroke-linecap="round"
      stroke-linejoin="round" />
    <path d="M183.028 60.5485L180.528 85.6585" stroke="#231E20" stroke-miterlimit="10" stroke-linecap="round"
      stroke-linejoin="round" />
    <path
      d="M13.3311 78.1715L13.5722 82.0281C13.5947 82.389 13.9106 82.6603 14.2708 82.6282L31.8461 80.9657C32.4556 80.9113 32.9145 80.3871 32.8877 79.7757L32.6013 73.2407C32.5722 72.5767 31.9854 72.077 31.3253 72.1541L16.8438 73.9679C14.742 74.2132 13.1991 76.0595 13.3311 78.1715Z"
      fill="#FF5B19" />
    <path
      d="M214.101 32.8145C210.511 35.2945 205.261 39.1545 202.171 42.4545C200.761 43.9545 198.601 49.2545 195.971 57.0945C195.741 57.7645 195.511 58.4645 195.281 59.1745C192.931 66.3245 190.261 75.2745 187.441 85.2345C187.251 85.9045 187.061 86.5845 186.871 87.2645C184.691 95.0245 182.431 103.344 180.171 111.855C179.991 112.524 179.821 113.195 179.641 113.865C178.601 117.784 177.571 121.745 176.551 125.695C176.551 125.705 176.541 125.714 176.541 125.725C175.351 130.334 174.181 134.945 173.031 139.495C172.861 140.164 172.691 140.825 172.521 141.495C171.201 146.734 169.921 151.875 168.701 156.844C168.291 158.515 167.891 160.164 167.491 161.794C167.051 163.625 166.531 165.695 166.051 167.635C165.831 168.534 165.611 169.414 165.421 170.214C165.381 170.364 165.331 170.505 165.261 170.635C164.931 171.325 164.231 171.755 163.471 171.755C163.321 171.755 163.161 171.734 163.001 171.695C162.401 171.555 161.931 171.154 161.681 170.635C161.481 170.235 161.421 169.755 161.531 169.284C161.631 168.885 161.771 168.315 161.941 167.635C162.321 166.075 162.871 163.904 163.421 161.584C163.791 160.104 164.201 158.445 164.641 156.635C165.691 152.344 166.971 147.205 168.411 141.495C168.571 140.834 168.741 140.164 168.901 139.495C170.871 131.705 173.101 122.965 175.471 113.975C175.641 113.305 175.821 112.635 175.991 111.965C176.991 108.175 178.011 104.345 179.051 100.535V100.525C180.231 96.1346 181.431 91.7845 182.631 87.5245C182.821 86.8445 183.011 86.1645 183.201 85.4945C185.881 75.9945 188.521 67.0845 190.941 59.6645C191.171 58.9546 191.401 58.2546 191.631 57.5746C194.721 48.3145 197.401 41.6945 199.251 39.7145C202.951 35.7745 209.211 31.2845 212.891 28.7945"
      stroke="#231E20" stroke-miterlimit="10" stroke-linecap="round" stroke-linejoin="round" />
    <path
      d="M212.891 28.7945C214.531 27.6845 215.651 26.9645 215.791 26.8745C216.721 26.2845 217.961 26.5545 218.551 27.4845C219.141 28.4245 218.871 29.6545 217.931 30.2546C217.891 30.2745 216.311 31.2845 214.101 32.8146"
      stroke="#231E20" stroke-miterlimit="10" stroke-linecap="round" stroke-linejoin="round" />
    <path
      d="M161.681 170.635H88.5713C87.7412 170.635 87.0713 169.964 87.0713 169.135C87.0713 168.315 87.7412 167.635 88.5713 167.635H161.941C161.771 168.315 161.631 168.885 161.531 169.284C161.421 169.755 161.481 170.235 161.681 170.635Z"
      stroke="#231E20" stroke-miterlimit="10" stroke-linecap="round" stroke-linejoin="round" />
    <path d="M186.491 202.46L177.801 202.41" stroke="#231E20" stroke-miterlimit="10" stroke-linecap="round"
      stroke-linejoin="round" />
    <path d="M185.491 199.45L176.941 199.4" stroke="#231E20" stroke-miterlimit="10" stroke-linecap="round"
      stroke-linejoin="round" />
    <path
      d="M39.5136 200.169C39.5136 200.994 40.1797 201.664 41.0045 201.669L188.081 202.47C191.511 202.45 194.571 200.67 196.291 197.68C198.021 194.66 197.991 191.06 196.201 188.07L187.06 172.695C185.2 169.575 181.79 167.635 178.16 167.635H176.55H166.05C165.83 168.535 165.61 169.415 165.42 170.215C165.38 170.365 165.33 170.505 165.26 170.635H178.16C180.74 170.635 183.17 172.015 184.49 174.225L193.621 189.61C194.851 191.66 194.871 194.12 193.681 196.19C192.491 198.26 190.361 199.47 187.971 199.47V199.46L41.0226 198.669C40.1907 198.664 39.5136 199.337 39.5136 200.169Z"
      stroke="#231E20" stroke-miterlimit="10" stroke-linecap="round" stroke-linejoin="round" />
    <path d="M177.601 162.394L176.552 167.635" stroke="#231E20" stroke-miterlimit="10" stroke-linecap="round"
      stroke-linejoin="round" />
    <path d="M115.235 159.192V167.635" stroke="#231E20" stroke-miterlimit="10" stroke-linecap="round"
      stroke-linejoin="round" />
    <path d="M100.841 158.478L104.683 167.635" stroke="#231E20" stroke-miterlimit="10" stroke-linecap="round"
      stroke-linejoin="round" />
    <path d="M103.899 158.63L105.64 163.413" stroke="#231E20" stroke-miterlimit="10" stroke-linecap="round"
      stroke-linejoin="round" />
    <path
      d="M88.8951 215.682C88.8951 222.681 83.2191 228.357 76.2123 228.357C69.2138 228.357 63.5378 222.681 63.5378 215.682C63.5378 210.343 66.8399 205.776 71.5056 203.911V214.959C71.5056 217.563 73.6167 219.674 76.2123 219.674C78.8162 219.674 80.9273 217.563 80.9273 214.959V203.919C85.593 205.784 88.8951 210.343 88.8951 215.682Z"
      stroke="#231E20" stroke-miterlimit="10" stroke-linecap="round" stroke-linejoin="round" />
    <path
      d="M83.4162 215.682C83.4162 219.658 80.1962 222.886 76.2123 222.886C72.2366 222.886 69.0167 219.658 69.0167 215.682C69.0167 213.505 69.9777 211.558 71.5056 210.236V214.959C71.5056 217.563 73.6167 219.674 76.2123 219.674C78.8162 219.674 80.9273 217.563 80.9273 214.959V210.236C82.4551 211.558 83.4162 213.505 83.4162 215.682Z"
      stroke="#231E20" stroke-miterlimit="10" stroke-linecap="round" stroke-linejoin="round" />
    <path
      d="M80.9273 201.874V214.959C80.9273 217.563 78.8162 219.674 76.2123 219.674C73.6167 219.674 71.5056 217.563 71.5056 214.959V201.874H80.9273Z"
      stroke="#231E20" stroke-miterlimit="10" stroke-linecap="round" stroke-linejoin="round" />
    <path
      d="M76.2163 216.528C77.2453 216.528 78.0794 215.694 78.0794 214.665C78.0794 213.636 77.2453 212.802 76.2163 212.802C75.1874 212.802 74.3533 213.636 74.3533 214.665C74.3533 215.694 75.1874 216.528 76.2163 216.528Z"
      stroke="#231E20" stroke-miterlimit="10" stroke-linecap="round" stroke-linejoin="round" />
    <path d="M73.4341 202.077V207.306" stroke="#231E20" stroke-miterlimit="10" stroke-linecap="round"
      stroke-linejoin="round" />
    <path
      d="M81.5231 201.878H88.1231C88.6931 203.268 89.0131 204.778 89.0131 206.378C89.0131 208.023 88.6793 209.591 88.0759 211.016"
      stroke="#231E20" stroke-miterlimit="10" stroke-linecap="round" stroke-linejoin="round" />
    <path
      d="M65.4571 208.974C65.2712 208.138 65.1731 207.27 65.1731 206.378C65.1731 204.788 65.4831 203.268 66.0631 201.878H72.6631"
      stroke="#231E20" stroke-miterlimit="10" stroke-linecap="round" stroke-linejoin="round" />
    <path d="M82.1331 201.878C83.0003 202.833 83.5826 204.022 83.7845 205.339" stroke="#231E20" stroke-miterlimit="10"
      stroke-linecap="round" stroke-linejoin="round" />
    <path d="M70.6857 204.194C70.8852 203.614 71.1623 203.069 71.5056 202.572" stroke="#231E20" stroke-miterlimit="10"
      stroke-linecap="round" stroke-linejoin="round" />
    <path
      d="M77.0953 207.175C78.0625 207.175 78.8466 206.391 78.8466 205.423C78.8466 204.456 78.0625 203.672 77.0953 203.672C76.1281 203.672 75.344 204.456 75.344 205.423C75.344 206.391 76.1281 207.175 77.0953 207.175Z"
      stroke="#231E20" stroke-miterlimit="10" stroke-linecap="round" stroke-linejoin="round" />
    <path
      d="M147.685 216.154C147.685 223.153 153.361 228.829 160.368 228.829C167.366 228.829 173.042 223.153 173.042 216.154C173.042 210.815 169.74 206.248 165.074 204.383V215.432C165.074 218.035 162.963 220.146 160.368 220.146C157.764 220.146 155.653 218.035 155.653 215.432V204.392C150.987 206.256 147.685 210.815 147.685 216.154Z"
      stroke="#231E20" stroke-miterlimit="10" stroke-linecap="round" stroke-linejoin="round" />
    <path
      d="M153.164 216.154C153.164 220.13 156.384 223.358 160.368 223.358C164.343 223.358 167.563 220.13 167.563 216.154C167.563 213.978 166.602 212.031 165.074 210.708V215.432C165.074 218.035 162.963 220.147 160.368 220.147C157.764 220.147 155.653 218.035 155.653 215.432V210.708C154.125 212.031 153.164 213.978 153.164 216.154Z"
      stroke="#231E20" stroke-miterlimit="10" stroke-linecap="round" stroke-linejoin="round" />
    <path
      d="M155.653 202.346V215.432C155.653 218.035 157.764 220.146 160.368 220.146C162.963 220.146 165.074 218.035 165.074 215.432V202.346H155.653Z"
      stroke="#231E20" stroke-miterlimit="10" stroke-linecap="round" stroke-linejoin="round" />
    <path
      d="M160.364 217.001C161.393 217.001 162.227 216.166 162.227 215.138C162.227 214.109 161.393 213.274 160.364 213.274C159.335 213.274 158.501 214.109 158.501 215.138C158.501 216.166 159.335 217.001 160.364 217.001Z"
      stroke="#231E20" stroke-miterlimit="10" stroke-linecap="round" stroke-linejoin="round" />
    <path d="M163.146 202.55V207.778" stroke="#231E20" stroke-miterlimit="10" stroke-linecap="round"
      stroke-linejoin="round" />
    <path
      d="M155.057 202.35H148.457C147.887 203.74 147.567 205.25 147.567 206.85C147.567 208.495 147.901 210.063 148.504 211.489"
      stroke="#231E20" stroke-miterlimit="10" stroke-linecap="round" stroke-linejoin="round" />
    <path
      d="M171.123 209.447C171.309 208.611 171.407 207.742 171.407 206.85C171.407 205.26 171.097 203.74 170.517 202.35H163.917"
      stroke="#231E20" stroke-miterlimit="10" stroke-linecap="round" stroke-linejoin="round" />
    <path d="M154.447 202.35C153.58 203.305 152.997 204.494 152.796 205.811" stroke="#231E20" stroke-miterlimit="10"
      stroke-linecap="round" stroke-linejoin="round" />
    <path d="M165.894 204.667C165.695 204.086 165.418 203.542 165.074 203.044" stroke="#231E20" stroke-miterlimit="10"
      stroke-linecap="round" stroke-linejoin="round" />
    <path
      d="M159.485 207.647C160.452 207.647 161.236 206.863 161.236 205.896C161.236 204.929 160.452 204.145 159.485 204.145C158.518 204.145 157.733 204.929 157.733 205.896C157.733 206.863 158.518 207.647 159.485 207.647Z"
      stroke="#231E20" stroke-miterlimit="10" stroke-linecap="round" stroke-linejoin="round" />
    <path
      d="M248.927 31.1145L218.127 41.3845C217.287 41.6645 216.387 41.1945 216.127 40.3545L215.987 39.8945L214.407 34.6345L213.857 32.8145L212.647 28.7945L212.407 27.9945C212.167 27.1845 212.607 26.3345 213.407 26.0545L243.707 15.6745C244.577 15.3745 245.467 15.2345 246.347 15.2345C249.587 15.2345 252.637 17.1745 253.907 20.3445C255.657 24.7045 253.377 29.6345 248.927 31.1145Z"
      fill="#FF5B19" />
    <path
      d="M248.927 31.1145L218.127 41.3845C217.287 41.6645 216.387 41.1945 216.127 40.3545L215.987 39.8945L214.407 34.6345L213.857 32.8145L212.647 28.7945L212.407 27.9945C212.167 27.1845 212.607 26.3345 213.407 26.0545L243.707 15.6745C244.577 15.3745 245.467 15.2345 246.347 15.2345C249.587 15.2345 252.637 17.1745 253.907 20.3445C255.657 24.7045 253.377 29.6345 248.927 31.1145Z"
      fill="#FF5B19" />
    <path d="M106.477 166.024L107.043 167.635" stroke="#231E20" stroke-miterlimit="10" stroke-linecap="round"
      stroke-linejoin="round" />
    <path d="M22.4169 228.829H217.298" stroke="#231E20" stroke-miterlimit="10" stroke-linecap="round"
      stroke-linejoin="round" />
    <path d="M17.7578 228.829H14.5634" stroke="#231E20" stroke-miterlimit="10" stroke-linecap="round"
      stroke-linejoin="round" />
    <path d="M10.2247 228.829H1.01715" stroke="#231E20" stroke-miterlimit="10" stroke-linecap="round"
      stroke-linejoin="round" />
    <path d="M63.6759 235.009H119.825" stroke="#231E20" stroke-miterlimit="10" stroke-linecap="round"
      stroke-linejoin="round" />
    <path d="M126.021 235.009H130.192" stroke="#231E20" stroke-miterlimit="10" stroke-linecap="round"
      stroke-linejoin="round" />
    <path d="M221.559 228.829H225.455" stroke="#231E20" stroke-miterlimit="10" stroke-linecap="round"
      stroke-linejoin="round" />
    <path d="M212.497 235.009H183.026" stroke="#231E20" stroke-miterlimit="10" stroke-linecap="round"
      stroke-linejoin="round" />
    <path d="M178.95 235.009H175.677" stroke="#231E20" stroke-miterlimit="10" stroke-linecap="round"
      stroke-linejoin="round" />
    <path d="M103.349 0.567581L104.133 21.4873" stroke="#FF5B19" stroke-width="7" stroke-miterlimit="10" />
    <path d="M150.059 4.85736L138.97 23.6328" stroke="#FF5B19" stroke-width="7" stroke-miterlimit="10" />
    <path d="M59.3072 7.69902L72.0497 25.7282" stroke="#FF5B19" stroke-width="7" stroke-miterlimit="10" />
  </g>
  <defs>
    <clipPath id="clip0_1_2">
      <rect width="255" height="236" fill="white" />
    </clipPath>
  </defs>
</svg>