<svg width="151" height="141" viewBox="0 0 151 141" fill="none" xmlns="http://www.w3.org/2000/svg">
<path d="M150.293 125.82C150.098 126.246 149.756 126.522 149.73 126.825C149.483 129.701 148.822 132.476 147.05 134.781C144.779 137.734 141.763 139.553 137.945 139.716L127.629 140.021L118.476 140.302L74.048 140.587C69.389 140.603 64.73 140.423 60.071 140.307C57.166 140.235 54.254 140.221 51.36 139.992C47.979 139.725 44.568 139.668 41.645 137.354C39.172 135.396 37.649 132.994 36.908 129.763C36.891 129.28 36.898 129.033 36.857 128.794C35.402 120.254 35.466 111.715 36.915 103.183C37.87 97.56 42.772 93.0317 48.246 92.846L76.77 92.0412L98.439 91.9255L117.755 91.9841L130.129 92.2706C132.643 92.3412 135.161 92.3898 137.669 92.5741C142.27 92.9122 147.18 96.066 148.595 100.685C149.116 102.387 149.336 104.18 149.716 105.927C149.783 106.234 149.961 106.517 150.191 106.716L150.293 125.82ZM144.601 102.901C143.39 99.721 141.181 97.57 137.753 97.298C132.906 96.915 128.034 96.824 123.17 96.677L108.7 96.394L75.188 96.667L49.176 97.236C45.507 97.307 42.071 99.657 41.492 103.218C40.786 107.569 40.333 111.993 40.225 116.397C40.139 119.92 40.69 123.464 41.035 126.992C41.514 131.902 44.919 135.241 49.389 135.336L57.269 135.612L71.593 135.903L96.443 135.913L120.141 135.627L136.662 135.329C140.589 135.261 143.976 132.761 144.668 128.923C145.313 125.351 145.856 121.692 145.809 118.08C145.743 113.091 145.083 108.11 144.601 102.901Z" fill="#E2DFE2"/>
<path d="M19.626 129.133C14.225 129.183 9.18401 128.236 5.26801 124.059C2.44201 121.046 1.032 117.477 0.863998 113.372C0.828998 112.535 0.641997 111.705 0.408997 110.943L0.292999 69.5515C0.487999 69.052 0.860998 68.6849 0.850998 68.3283C0.746998 64.5745 1.817 61.2221 4.007 58.1708C5.854 55.5974 8.33199 53.9175 11.413 52.6967L19.31 51.7794C16.201 54.0613 13.59 56.7426 12.515 60.3991C11.717 63.1123 11.362 66.0054 11.186 68.8419C10.837 74.4689 10.666 80.1106 10.581 85.7488C10.524 89.5888 10.72 93.4337 10.836 97.275L11.479 115.352C11.586 117.251 12.13 119.182 12.792 120.983C14.077 124.482 16.676 126.978 19.626 129.133Z" fill="#ECC32E"/>
<path d="M19.761 129.154C16.675 126.978 14.077 124.482 12.791 120.983C12.13 119.182 11.586 117.251 11.479 115.352C11.139 109.333 11.018 103.302 10.836 97.275C10.72 93.4337 10.524 89.5891 10.581 85.7488C10.666 80.1106 10.837 74.4689 11.186 68.8419C11.361 66.0057 11.716 63.1126 12.514 60.3991C13.59 56.7426 16.201 54.0613 19.409 51.7633C19.67 51.6399 19.801 51.6183 20.068 51.6139L28.433 51.2119L46.666 50.9664L67.173 50.9819C71.67 51.0449 76.164 51.3452 80.659 51.5433C85.568 51.7598 90.098 52.9706 93.532 56.7657C95.771 59.2398 97.338 62.0849 97.551 65.5012L98.13 76.641L98.439 91.7916L76.77 92.0409L48.246 92.8457C42.773 93.0314 37.871 97.56 36.916 103.183C35.467 111.715 35.403 120.253 36.858 128.794C36.898 129.033 36.892 129.28 36.89 129.648C32.704 129.672 28.534 129.588 24.365 129.464C22.874 129.419 21.386 129.273 19.762 129.153L19.761 129.154Z" fill="#F4DD45"/>
<path d="M28.428 51.0777C25.69 51.352 22.947 51.4917 20.065 51.4724C20.021 48.2022 20.14 45.0912 20.205 41.9793L20.516 25.1828C20.667 18.9493 22.842 13.45 27.039 8.8788C32.056 3.41582 38.349 0.606843 45.821 0.542093C46.275 0.538283 46.725 0.212213 47.177 0.0361328C52.092 0.116113 57.015 0.0519526 61.921 0.309183C69.577 0.710553 76.06 3.75713 81.008 9.6877C84.034 13.3146 85.999 17.5006 86.413 22.2628C86.753 26.1687 86.907 30.0909 87.157 34.2446C84.218 34.2446 81.507 34.2446 78.658 34.0935C78.421 31.1767 78.103 28.3967 78.283 25.6495C78.489 22.5045 75.427 18.3982 72.42 17.7774C70.067 17.2917 67.632 17.1572 65.224 17.0025C64.097 16.9302 62.949 17.1789 61.81 17.2823C61.683 17.2668 61.556 17.2513 61.293 17.1147C59.713 16.9967 58.269 16.9996 56.826 17.0025L42.93 17.0002C40.522 17.0436 38.11 17.2917 35.717 17.5823C32.321 17.9945 29.058 21.8406 28.998 25.2944L28.711 37.968L28.427 51.0774L28.428 51.0777Z" fill="#665E66"/>
<path d="M47.04 0.0135651C46.725 0.211905 46.275 0.537985 45.821 0.541795C38.349 0.606535 32.056 3.41553 27.039 8.8785C22.842 13.4494 20.667 18.949 20.516 25.1825L20.205 41.979L19.929 51.4551C19.801 51.6183 19.67 51.6399 19.44 51.6774L11.519 52.6762C11.411 51.6941 11.409 50.7188 11.422 49.7438L11.73 27.4117C11.872 21.3256 13.099 15.5403 16.956 10.5769C21.003 5.36759 26.155 1.82031 32.722 0.920605C37.404 0.279295 42.173 0.278405 47.04 0.0135651ZM61.877 17.3731C62.949 17.1792 64.097 16.9302 65.224 17.0025C67.632 17.1569 70.067 17.2917 72.42 17.7774C75.427 18.3979 78.489 22.5045 78.283 25.6495C78.103 28.397 78.421 31.177 78.523 34.0762C75.758 34.2098 72.992 34.2098 70.1 34.2098C69.97 31.578 69.662 29.0216 69.761 26.4813C69.927 22.2616 66.926 17.9749 61.877 17.3731Z" fill="#544F57"/>
<path d="M103.032 37.9794L107.984 36.2515C109.526 35.742 110.691 36.2093 111.197 37.496C111.678 38.718 111.198 40.022 109.821 40.5596C106.548 41.8378 103.24 43.0316 99.918 44.178C98.857 44.5442 97.702 43.7043 97.253 42.5049C96.8 41.2935 97.08 40.3281 98.278 39.816C99.803 39.1642 101.378 38.6277 103.032 37.9794ZM110.399 53.9945C109.786 55.4875 108.504 55.6961 107.455 55.2572C104.203 53.8964 101.014 52.37 97.869 50.7739C96.654 50.1575 96.401 48.8611 96.959 47.7915C97.597 46.5648 98.775 46.0132 100.041 46.5833C103.17 47.9925 106.259 49.4942 109.354 50.9799C110.618 51.5866 110.506 52.75 110.399 53.9945ZM97.709 25.5221C99.006 24.8781 100.242 25.0041 100.872 26.1042C101.294 26.8404 101.37 28.0984 101.038 28.8856C99.779 31.8704 98.302 34.7635 96.884 37.68C96.296 38.8896 95.002 39.318 93.729 38.7807C92.75 38.3673 92.101 37.0205 92.592 35.9646C94.212 32.4763 95.926 29.0312 97.709 25.5221Z" fill="#DD636E"/>
<path d="M56.907 17.096C58.269 16.9999 59.713 16.997 61.198 17.0998C59.822 17.2 58.406 17.1947 56.907 17.096Z" fill="#544F57"/>
<path d="M144.639 103.013C145.082 108.11 145.743 113.091 145.808 118.08C145.856 121.692 145.312 125.351 144.668 128.923C143.975 132.761 140.589 135.261 136.662 135.329L120.141 135.627L96.442 135.913C88.16 135.961 79.876 135.952 71.593 135.903C66.818 135.874 62.043 135.731 57.269 135.612L49.389 135.336C44.919 135.241 41.514 131.902 41.034 126.992C40.69 123.464 40.139 119.92 40.225 116.397C40.333 111.993 40.785 107.568 41.492 103.218C42.07 99.657 45.506 97.307 49.176 97.236L75.188 96.667L108.699 96.394C113.522 96.379 118.348 96.532 123.17 96.677C128.034 96.824 132.906 96.915 137.753 97.298C141.181 97.57 143.39 99.721 144.639 103.013ZM46.991 123.537L53.401 120.282V121.976C53.405 123.44 53.365 124.906 53.431 126.366C53.482 127.501 54.083 128.462 55.237 128.499C55.985 128.522 56.905 128.068 57.461 127.531C57.86 127.146 57.881 126.272 57.902 125.61C57.958 123.886 57.921 122.158 57.921 120.113L62.866 122.964C64.387 123.822 65.741 123.575 66.41 122.35C67.054 121.171 66.596 119.993 65.11 119.105L60.202 116.235L61.96 115.17C63.179 114.455 64.433 113.795 65.615 113.023C66.744 112.285 66.991 111.015 66.328 109.96C65.701 108.963 64.556 108.663 63.375 109.22C62.892 109.448 62.437 109.737 61.971 110.002L57.92 112.302L57.919 106.471C57.916 105.366 57.568 104.436 56.457 104.004C54.922 103.406 53.476 104.471 53.418 106.306C53.356 108.226 53.404 110.149 53.404 112.321L48.357 109.433C46.882 108.609 45.592 108.86 44.926 110.059C44.264 111.251 44.712 112.455 46.175 113.32L51.188 116.223L46.247 119.073C45.288 119.608 44.538 120.293 44.655 121.466C44.776 122.688 45.563 123.358 46.991 123.536M93.795 120.705C94.104 121.517 94.216 122.517 94.768 123.096C95.525 123.89 96.563 123.534 97.465 123.006L102.528 120.096L102.533 126.359C102.546 127.539 103.199 128.463 104.314 128.49C105.088 128.509 105.983 127.946 106.62 127.403C106.956 127.116 106.929 126.319 106.941 125.749C106.977 123.938 106.954 122.125 106.954 120.092L112.298 123.144C113.768 123.934 115.368 123.302 115.683 121.843C115.946 120.631 115.394 119.785 114.347 119.187L109.251 116.215L114.62 113.074C115.799 112.336 116.075 111.101 115.443 110.035C114.805 108.96 113.624 108.643 112.391 109.252C111.824 109.532 111.287 109.872 110.737 110.186L106.954 112.352L106.952 106.642C106.941 104.816 106.138 103.847 104.687 103.878C103.3 103.907 102.536 104.854 102.524 106.596L102.522 112.34L97.384 109.412C95.913 108.595 94.654 108.873 93.987 110.123C93.357 111.302 93.773 112.437 95.191 113.279L100.261 116.22C98.706 117.125 97.297 117.883 95.958 118.749C95.203 119.237 94.565 119.904 93.795 120.705ZM122.82 109.908C122.349 109.652 121.891 109.219 121.404 109.183C120.637 109.126 119.698 109.101 119.104 109.484C117.804 110.323 118.042 112.219 119.491 113.122C121.161 114.162 122.885 115.115 124.803 116.232L119.542 119.277C118.302 120.024 117.935 121.292 118.563 122.394C119.189 123.491 120.435 123.798 121.733 123.14C122.384 122.81 123.006 122.423 123.641 122.061L127.09 120.09C127.09 122.468 126.95 124.474 127.161 126.441C127.241 127.18 128.005 128.127 128.697 128.429C129.251 128.672 130.336 128.274 130.873 127.804C131.324 127.407 131.467 126.504 131.499 125.814C131.58 124.003 131.526 122.186 131.526 120.111L136.882 123.169C138.134 123.843 139.407 123.461 140.024 122.337C140.616 121.259 140.28 120.121 139.093 119.328C138.527 118.95 137.916 118.639 137.329 118.292L133.806 116.201L138.585 113.43C140.251 112.451 140.73 111.241 139.967 109.995C139.231 108.792 137.992 108.634 136.383 109.55L131.52 112.34L131.509 106.136C131.488 105.064 130.976 104.111 129.884 104.02C129.123 103.956 128.17 104.285 127.576 104.772C127.167 105.106 127.118 106.008 127.097 106.663C127.037 108.48 127.076 110.3 127.076 112.35L122.821 109.908M74.689 121.982L77.953 120.177L77.956 125.759C77.968 127.577 78.773 128.586 80.19 128.593C81.615 128.602 82.389 127.627 82.403 125.766L82.406 120.16L83.908 120.949C85.311 121.736 86.68 122.59 88.12 123.302C89.25 123.861 90.274 123.463 90.883 122.409C91.489 121.36 91.297 120.313 90.316 119.538C89.824 119.149 89.238 118.876 88.693 118.554L84.72 116.211C86.513 115.17 88.101 114.312 89.616 113.339C90.198 112.965 90.946 112.375 91.021 111.805C91.12 111.053 90.866 109.898 90.333 109.514C89.738 109.085 88.524 109.02 87.819 109.334C86.024 110.134 84.362 111.233 82.407 112.35L82.402 106.554C82.383 104.813 81.597 103.878 80.201 103.877C78.817 103.877 77.977 104.855 77.958 106.546L77.954 112.321L72.855 109.413C71.446 108.628 70.219 108.854 69.518 109.984C68.786 111.164 69.193 112.405 70.641 113.269L75.641 116.176C75.326 116.408 75.149 116.565 74.947 116.683C73.39 117.592 71.801 118.453 70.276 119.414C69.153 120.121 68.88 121.289 69.45 122.332C70.044 123.415 71.27 123.811 72.467 123.244C73.17 122.911 73.829 122.484 74.689 121.982Z" fill="#F8F5F8"/>
<path d="M46.88 123.537C45.563 123.358 44.776 122.689 44.655 121.467C44.539 120.293 45.288 119.608 46.247 119.073L51.188 116.223L46.175 113.32C44.712 112.456 44.264 111.251 44.926 110.059C45.592 108.86 46.882 108.61 48.357 109.433L53.404 112.321L53.418 106.306C53.476 104.472 54.922 103.406 56.457 104.004C57.568 104.437 57.916 105.366 57.919 106.471L57.92 112.302L61.971 110.002C62.437 109.738 62.892 109.449 63.375 109.22C64.556 108.663 65.701 108.963 66.328 109.96C66.991 111.016 66.744 112.285 65.615 113.023C64.433 113.795 63.179 114.455 61.96 115.17L60.202 116.236L65.11 119.105C66.596 119.993 67.054 121.171 66.41 122.351C65.741 123.575 64.387 123.822 62.866 122.965L57.921 120.113L57.902 125.61C57.881 126.272 57.86 127.146 57.461 127.532C56.905 128.069 55.985 128.522 55.237 128.499C54.083 128.463 53.482 127.501 53.431 126.367C53.365 124.906 53.405 123.44 53.401 121.977V120.283L46.88 123.537Z" fill="#6A626A"/>
<path d="M93.835 120.597C94.565 119.904 95.204 119.237 95.958 118.749C97.297 117.883 98.707 117.125 100.262 116.22L95.192 113.279C93.774 112.437 93.358 111.302 93.987 110.123C94.655 108.874 95.913 108.595 97.384 109.412L102.522 112.34L102.525 106.596C102.536 104.854 103.301 103.907 104.688 103.878C106.138 103.848 106.941 104.816 106.952 106.642L106.955 112.352L110.737 110.186C111.287 109.872 111.824 109.532 112.392 109.252C113.624 108.643 114.806 108.96 115.443 110.035C116.076 111.101 115.799 112.336 114.62 113.074C112.928 114.133 111.176 115.096 109.251 116.215L114.347 119.187C115.394 119.785 115.946 120.631 115.684 121.843C115.368 123.302 113.768 123.934 112.298 123.144C110.586 122.224 108.92 121.22 106.954 120.092L106.941 125.749C106.929 126.319 106.956 127.116 106.62 127.403C105.983 127.946 105.088 128.509 104.314 128.49C103.2 128.463 102.547 127.539 102.534 126.359L102.528 120.096L97.465 123.006C96.563 123.534 95.525 123.89 94.769 123.096C94.216 122.517 94.104 121.517 93.835 120.597ZM122.912 109.967L127.075 112.349L127.096 106.662C127.117 106.008 127.167 105.106 127.575 104.771C128.17 104.285 129.122 103.955 129.884 104.019C130.976 104.11 131.488 105.063 131.509 106.135C131.548 108.114 131.52 110.095 131.52 112.339L136.382 109.55C137.992 108.633 139.231 108.791 139.967 109.994C140.73 111.241 140.251 112.45 138.584 113.429L133.805 116.2L137.329 118.291C137.916 118.638 138.526 118.949 139.092 119.327C140.279 120.121 140.616 121.259 140.024 122.336C139.407 123.46 138.133 123.842 136.881 123.169C135.175 122.251 133.513 121.251 131.526 120.111C131.526 122.185 131.58 124.002 131.498 125.813C131.467 126.503 131.324 127.407 130.872 127.803C130.336 128.273 129.25 128.671 128.696 128.429C128.004 128.126 127.24 127.179 127.161 126.44C126.95 124.473 127.089 122.468 127.089 120.089L123.64 122.06C123.006 122.423 122.383 122.809 121.732 123.139C120.434 123.797 119.189 123.491 118.563 122.393C117.934 121.291 118.301 120.023 119.541 119.276C121.2 118.278 122.891 117.333 124.802 116.231L119.491 113.121C118.041 112.219 117.804 110.322 119.103 109.483C119.697 109.1 120.637 109.125 121.404 109.182C121.891 109.218 122.349 109.652 122.912 109.967ZM74.597 122.039L72.466 123.243C71.269 123.81 70.043 123.415 69.449 122.331C68.879 121.289 69.152 120.121 70.275 119.413C71.8 118.452 73.389 117.592 74.946 116.682C75.148 116.564 75.326 116.407 75.64 116.175L70.64 113.268C69.192 112.404 68.786 111.163 69.517 109.983C70.218 108.853 71.445 108.627 72.854 109.412L77.953 112.321L77.958 106.546C77.976 104.855 78.817 103.876 80.2 103.877C81.596 103.877 82.383 104.812 82.401 106.554L82.406 112.349C84.361 111.232 86.023 110.133 87.818 109.333C88.523 109.019 89.737 109.085 90.333 109.514C90.865 109.897 91.119 111.053 91.02 111.804C90.945 112.374 90.197 112.964 89.615 113.338C88.1 114.311 86.512 115.17 84.719 116.21L88.692 118.553C89.237 118.875 89.823 119.148 90.316 119.538C91.296 120.313 91.488 121.359 90.882 122.408C90.273 123.462 89.249 123.861 88.119 123.302C86.679 122.589 85.31 121.735 83.907 120.948C83.499 120.72 83.08 120.512 82.405 120.159L82.402 125.766C82.388 127.627 81.614 128.601 80.189 128.593C78.772 128.585 77.967 127.576 77.955 125.758L77.953 120.177L74.597 122.039Z" fill="#686068"/>
</svg>
