<svg xmlns="http://www.w3.org/2000/svg" xmlns:xlink="http://www.w3.org/1999/xlink" width="512" height="512" xmlns:v="https://vecta.io/nano"><path d="M305.063-.375l2.056.002c32.094.118 60.313 12.83 83.132 35.186 6.132 6.2 11.269 12.68 15.75 20.188l1.151 1.917c10.725 18.191 16.089 37.445 16.192 58.576l.044 3.48.112 10.903c.243 28.036 1.301 51.11 19.063 74.125 10.55 13.821 14.972 28.614 13.438 46-2.33 16.02-9.545 31.405-22.752 41.315-5.193 3.623-10.564 6.888-16.248 9.685l3.222 1.374 11.982 5.133 5.158 2.205c23.568 10.047 43.802 21.436 54.712 45.947 5.733 14.494 5.465 28.479 5.332 43.902l-.032 10.306-.085 19.442-.087 22.165L497 497l2.52-.105 3.293-.082 3.27-.105c2.918.293 2.918.293 4.78 1.67 1.496 2.134 1.539 3.534 1.513 6.123l.023 2.344c-.524 2.836-1.019 3.497-3.398 5.156-2.827.294-5.435.402-8.263.378l-2.597.013c-2.897.011-5.794.001-8.691-.01l-6.263.014c-5.757.013-11.513.006-17.27-.003-6.2-.007-12.401.004-18.601.012l-34.354.003-31.733-.006-2.124.001-8.534.003c-26.702.009-53.404.001-80.106-.015-23.739-.014-47.477-.013-71.216.001l-79.957.013-8.519-.003h-2.119c-10.573-.003-21.146.001-31.718.008-12.018.009-24.036.006-36.055-.01l-18.411-.001a3788.28 3788.28 0 0 1-16.832-.012 1174.09 1174.09 0 0 0-6.111.006 987.39 987.39 0 0 1-8.264-.014l-2.434.021c-5.336-.055-5.336-.055-7.821-1.788C-.325 508.48-.4 507.003-.375 504.5l-.023-2.344C.104 499.438.838 498.692 3 497c2.181-.369 2.181-.369 4.765-.361l2.97-.012 3.254.033 3.43-.001 11.249.049 7.789.013 18.423.064 20.974.065L119 497v-15l-5-1c-2.048-3.071-2.252-3.7-2.267-7.163l-.026-2.569.003-2.81-.02-2.968-.025-9.752-.02-6.8-.014-14.292-.062-18.199-.025-14.071-.027-6.701c-.153-24.228 4.147-44.659 21.484-62.675 5.396-5.193 11.168-9.308 17.785-12.801l1.954-1.035c6.965-3.626 14.139-6.727 21.382-9.749l6.705-2.829 4.287-1.805 2.014-.852C191.768 302 191.768 302 194 302v-2l-2.172-.34c-13.012-3.037-22.832-13.401-29.816-24.223-8.881-15.175-11.204-31.674-7.176-48.727 3.381-10.779 8.992-19.81 15.926-28.66 11.512-15.69 15.34-32.708 15.414-51.941l.072-7.031.078-10.937c.168-37.773 9.594-68.258 35.987-95.891 12.984-12.542 28.345-21.351 45.375-27.125l2.553-.868C281.753.55 293.009-.391 305.063-.375z" fill="#020202"/><path d="M190.169 370.62l2.586-.026 2.842.018 3.019-.016h10.06l7.194-.021 17.539-.013 14.253-.003 2.047-.002 4.117-.005 38.632.003 35.357-.027 36.287-.027 20.379-.016 19.16.007 7.043-.01 9.592.016 2.835-.029c6.259.072 6.259.072 9.468 2.409 4.732 7.066.903 20.164-.06 28.236l-1.096 9.439-.571 4.962-3.069 28.582L422 497H195l-2.859-21.605-.211-2.011-.679-6.571-.495-4.783-.816-7.921-2.116-20.328-1.452-13.938-1.034-9.888-1.164-11.212-.359-3.358c-2.011-19.834-2.011-19.834.448-23.015 2.145-1.688 3.203-1.746 5.908-1.75z" fill="#edebed"/><path d="M116 4l3.211 1.098c20.41 7.739 38.672 25.004 47.689 44.888 8.747 20.762 10.73 44.551 3.1 66.015l-1.285 3.621C164.465 130.43 158.412 139.943 150 148l1.828 1.172c10.024 6.531 10.024 6.531 12.172 10.828.547 5.691-.407 8.561-4 13-3.062 1.531-6.275 1.174-9.636 1.193l-2.391.025-7.875.056-2.731.016-14.363.061-11.792.082-14.304.081-5.404.046c-15.693.199-31.674-1.793-45.504-9.809l-2.096-1.167c-20.939-11.998-35.36-31.765-42.279-54.708C-2.441 92.761-1.904 73.531 4 58l1.133-3.176C9.607 43.164 16.429 33.972 25 25l1.637-1.863C48.228-.521 86.754-6.253 116 4z" fill="#79c9a5"/><path d="M373 41c19.242 15.634 30.981 38.587 34.695 62.988.507 5.007.465 9.987.305 15.012-10.18 5.09-27.71.37-38-3-6.77-2.366-13.052-5.162-18.875-9.375-4.251-3.028-6.968-3.439-12.125-2.625-2.345 3.518-2.58 4.858-2 9 3.885 4.686 8.531 7.265 13.875 10.063l2.297 1.275c7.277 3.847 14.875 5.755 22.828 7.662l.385 17.285.144 5.865c.371 12.196.393 20.979-7.528 30.85l-1.685 2.284c-3.333 4.403-7.551 7.588-12.003 10.778l-1.694 1.233c-3.999 2.734-3.999 2.734-6.904 2.595C345 202 345 202 343.25 199.688c-3.806-4.546-7.801-6.407-13.601-7.072-3.233-.127-6.45-.178-9.685-.137-2.026.021-4.049 0-6.075-.025-9.12.036-13.664.994-20.639 6.859-3.923 4.685-5.866 9.384-5.602 15.574 1.085 6.524 4.182 12.001 9.352 16.113 6.953 4.34 12.782 4.641 20.875 4.563l3.395.072c8.708-.015 15.872-1.777 22.168-8.072 1.647-2.547 1.647-2.547 2.75-5.48 2.272-3.863 4.41-4.929 8.375-6.957 5.717-3.026 10.624-6.418 15.547-10.656C372 203 372 203 374 203c-1.464 10.512-5.975 19.152-13 27l-1.805 2.086c-9.643 10.443-23.901 17.144-38.125 18.035-4.767.165-9.537.196-14.307.229l-5.224.082c-20.121.441-36.298-4.056-51.29-18.159-12.389-12.518-16.573-27.509-16.492-44.682l.012-2.212.001-4.532.023-9.448.02-12.133.013-9.334.006-4.477.022-6.226.012-3.581C234 133 234 133 235 132c2.077-.427 4.162-.815 6.25-1.187C296.089 120.204 338.879 88.804 371 44l2-3z" fill="#fdccbd"/><path d="M361 31c-1.481 4.259-3.69 7.746-6.312 11.375l-1.325 1.836c-25.072 34.135-58.996 56.627-99.235 69.119a179.26 179.26 0 0 0-5.249 1.76c-15.221 4.812-31.107 4.268-46.879 3.91-.347-27.27 9.334-50.549 27-71l1.953-2.266C265.275 9.025 319.258 6.528 361 31z" fill="#c39090"/><path d="M213 311v45l-19.025.208c-7.528.177-13.265.566-18.975 5.792-4.809 5.188-6.376 9.238-6.336 16.262l.009 2.33c.233 12.744 1.987 25.439 3.455 38.089l1.208 10.603.237 2.094.468 4.148.697 6.148c2.08 18.417 3.656 36.857 5.262 55.326h-61v-15l6-3c1.721-3.443 1.144-7.411 1.142-11.2l.011-2.893.016-6.24.041-9.904.116-28.167.081-17.222.015-6.541c-.009-11.581-.004-22.007 4.578-32.833l.865-2.061C140.708 342.622 156.408 334.173 175 326l2.036-.896 16.464-7.167 2.399-1.041 6.82-2.932 2.09-.908C207.713 311.825 209.81 311 213 311z" fill="#8593db"/><path d="M116 4l3.211 1.098c20.41 7.739 38.672 25.004 47.689 44.888 8.747 20.762 10.73 44.551 3.1 66.015l-1.285 3.621C164.465 130.43 158.412 139.943 150 148l1.828 1.172c10.024 6.531 10.024 6.531 12.172 10.828.547 5.691-.407 8.561-4 13-3.062 1.531-6.275 1.174-9.636 1.193l-2.391.025-7.875.056-2.731.016-14.363.061-11.792.082-14.304.081-5.404.046c-15.693.199-31.674-1.793-45.504-9.809l-2.096-1.167c-20.939-11.998-35.36-31.765-42.279-54.708C-2.441 92.761-1.904 73.531 4 58l1.133-3.176C9.607 43.164 16.429 33.972 25 25l1.637-1.863C48.228-.521 86.754-6.253 116 4zM34 38l-2.012 1.918C20.31 51.806 14.687 70.217 14.5 86.438c.2 18.866 6.869 35.511 19.5 49.563l1.57 1.852c11.224 12.352 28.982 20.388 45.523 21.323l10.352.02 3.791-.009 9.873-.049 10.117-.04L135 159l-1.466-2.364c-2.295-3.944-2.568-7.203-1.534-11.636 1.951-3.062 4.411-5.471 7-8 14.433-15.068 20.602-33.348 20.273-53.937C158.622 65.997 151.337 50.612 140 38l-1.57-1.852c-11.926-13.125-29.84-20.527-47.285-21.473C68.596 13.943 49.553 21.873 34 38z"/><path d="M272 262l1.664.429c9.155 2.022 18.292 1.874 27.616 1.832l8.537.013 5.504-.008 2.539.012c4.921-.039 9.356-.605 14.122-1.85C334 262 334 262 338 262l.883 2.527c5.896 16.187 14.047 25.525 29.652 32.93A255.4 255.4 0 0 0 382 303v18c-44.311 11.055-110.51 22.745-154 1v-19l3.988-1.687c19.478-8.391 30.774-16.59 38.945-36.602L272 262z" fill="#fcccbd"/><path d="M397 310l22.449 8.996 2.496 1.079 5.149 2.236 7.799 3.363c18.598 8.048 33.93 16.812 42.752 35.881 2.585 6.571 4.483 12.543 4.476 19.64l.004 3.106-.011 3.374v3.579l-.013 9.687-.008 10.134-.021 19.177-.022 21.838L482 497h-45c0-5.708.067-10.64.77-16.191l.244-1.983.524-4.203c1.698-13.496 3.107-26.994 4.311-40.543l2.226-21.08.279-2.284 1.377-10.849c2.826-17.619 2.826-17.619-1.332-34.258-5.181-5.963-11.2-9.249-19.109-9.928l-4.094-.095-1.948-.053-7.123-.157L397 355v-45z" fill="#8694dd"/><path d="M202 134h17l.06 5.992.227 19.697.134 11.931.136 11.535.045 4.38c.185 22.303 6.529 40.409 22.397 56.465 4.644 4.498 9.264 8.013 15 11-.453 9.504-3.746 16.698-10.699 23.297-13.028 9.644-26.513 10.986-42.301 9.703-4.522-1.027-8.065-2.58-12-5l-2.652-1.504c-9.897-6.176-16.986-16.431-19.926-27.715-2.059-13.574-.932-25.804 7.266-37.094l2.105-2.766C197.959 188.548 201.36 165.216 202 134z" fill="#c38f8f"/><path d="M408 134l.044 2.624.218 9.852.084 4.224c.404 24.095 7.487 44.34 22.341 63.363 8.996 11.969 11.089 23.228 9.313 37.938-2.539 11.299-9.195 22.149-18.855 28.723-12.369 7.367-26.253 10.128-40.559 6.699C368.871 283.567 359.759 277.006 354 266c-1.908-3.815-2.476-6.735-2-11 1.984-1.695 1.984-1.695 4.75-3.125 16.068-9.451 26.166-25.099 31.25-42.875 1.897-8.918 2.333-17.638 2.414-26.734l.059-4.119.128-10.712.141-10.982L391 135l6.25-.5 3.516-.281c2.407-.163 4.822-.219 7.234-.219z" fill="#c39090"/><path d="M373 41c19.242 15.634 30.981 38.587 34.695 62.988.507 5.007.465 9.987.305 15.012-10.18 5.09-27.71.37-38-3-6.77-2.366-13.052-5.162-18.875-9.375-4.263-3.054-6.955-3.16-12.125-2.625h-3c-2.262-2.406-2.262-2.406-4.687-5.5l-2.449-3.094L327 93c3.316-3.373 6.725-6.611 10.213-9.806C351.11 70.423 362.53 56.705 373 41z" fill="#b77e7e"/><path d="M92 15c16.835 1.039 31.476 7.742 44 19l1.852 1.57C147.198 44.063 153.305 56.108 157 68l.742 2.367c4.564 18.067.548 36.776-8.078 52.922-4.223 6.88-9.471 12.797-15.316 18.336-2.389 2.437-2.531 4.386-2.598 7.688l-.078 2.301c.254 3.005.254 3.005 3.328 7.387H78v-1l41-1-3-7c-1.522-8.981 3.853-15.227 8.625-22.465 11.035-17.27 13.09-39.335 9.188-59.223C132.241 62.166 129.965 56.599 127 51l-1.562-2.996C117.636 33.828 106.324 23.488 92 16v-1z" fill="#56bc90"/><path d="M323.195 409.098c6.068 4.116 11.236 9.609 13.402 16.746 1.748 9.367.085 17.01-4.777 25.125-4.864 6.562-12.396 10.348-20.359 11.578-9.153.359-15.902-1.447-22.746-7.602-6.293-6.601-8.77-12.132-9.277-21.195.228-8.201 2.958-15.013 8.684-20.949 10.895-9.007 22.515-10.635 35.074-3.703z" fill="#040404"/><path d="M382 336v20H227v-19l9 2c9.141 1.91 18.306 3.393 27.563 4.625l2.752.373c36.9 4.744 74.314 2.059 110.341-7.15C380 336 380 336 382 336z" fill="#f0f0f0"/><path d="M272 262l4.18.984c8.314 1.507 16.68 1.314 25.1 1.276l8.537.013 5.504-.008 2.539.012c4.921-.039 9.356-.605 14.122-1.85C334 262 334 262 338 262l.883 2.492c2.704 7.363 5.81 13.951 10.117 20.508-5.493 2.287-10.526 2.322-16.375 2.336l-3.035.02-6.354.014-9.591.079c-13.75.077-26.366-.497-38.332-8.074l-2.887-1.789L267 274l5-12z" fill="#fdaf9d"/><path d="M314 421c3.658 2.073 6.792 4.894 8 9 .565 4.987-.073 8.334-2.742 12.488-2.527 3.037-5.367 4.209-9.211 4.824-5.102.312-8.134-.855-12.047-4.312-2.595-3.807-3.658-7.317-3.488-11.973 1.089-4.521 4.563-7.831 8.418-10.227 3.738-1.446 7.267-.829 11.07.199z" fill="#c4bbc3"/><path d="M317.938 206.563l3.326-.061 3.201.002 2.926-.006c3.361.646 4.567 1.795 6.61 4.502 0 3.563 0 3.563-1 7-4.393 4.247-9.232 3.478-15 3.438l-3.023.061c-7.25-.005-7.25-.005-10.637-2.303-1.956-3.205-1.807-5.523-1.34-9.195 3.44-4.88 9.571-3.472 14.938-3.437z" fill="#645b64"/><g fill="#030504"><use xlink:href="#B"/><use xlink:href="#B" x="-30"/><use xlink:href="#B" x="-60"/></g><defs ><path id="B" d="M121 80c2 1 2 1 3 3 .52 3.564.631 6.738-1 10-3.262 1.631-6.436 1.52-10 1-2-1-2-1-3-3-.52-3.564-.631-6.738 1-10 3.262-1.631 6.436-1.52 10-1z"/></defs></svg>