<svg width="130" height="130" viewBox="0 0 130 130" fill="none" xmlns="http://www.w3.org/2000/svg">
<path d="M65 128C99.7939 128 128 99.7939 128 65C128 30.2061 99.7939 2 65 2C30.2061 2 2 30.2061 2 65C2 99.7939 30.2061 128 65 128Z" fill="#088178"/>
<path d="M65 125C98.1371 125 125 98.1371 125 65C125 31.8629 98.1371 5 65 5C31.8629 5 5 31.8629 5 65C5 98.1371 31.8629 125 65 125Z" fill="white"/>
<path d="M65 46C65.5523 46 66 45.5523 66 45C66 44.4477 65.5523 44 65 44C64.4477 44 64 44.4477 64 45C64 45.5523 64.4477 46 65 46Z" fill="#088178"/>
<path d="M65 54C65.5523 54 66 53.5523 66 53C66 52.4477 65.5523 52 65 52C64.4477 52 64 52.4477 64 53C64 53.5523 64.4477 54 65 54Z" fill="#088178"/>
<path d="M65 58C65.5523 58 66 57.5523 66 57C66 56.4477 65.5523 56 65 56C64.4477 56 64 56.4477 64 57C64 57.5523 64.4477 58 65 58Z" fill="#088178"/>
<path d="M65 62C65.5523 62 66 61.5523 66 61C66 60.4477 65.5523 60 65 60C64.4477 60 64 60.4477 64 61C64 61.5523 64.4477 62 65 62Z" fill="#088178"/>
<path d="M65 50C65.5523 50 66 49.5523 66 49C66 48.4477 65.5523 48 65 48C64.4477 48 64 48.4477 64 49C64 49.5523 64.4477 50 65 50Z" fill="#088178"/>
<path d="M61.635 66.236C64.008 66.172 66.38 66.108 69.039 65.868C69.326 65.692 69.611 65.682 69.708 65.461C69.902 57.5368 70.001 49.8328 70.099 42.1289C74.19 37.487 78.288 32.8515 82.367 28.1989C83.535 26.8655 84.627 26.7212 86.426 27.3882C91.973 29.4446 97.68 31.0655 103.272 33.0085C104.464 33.4225 105.703 34.2767 106.459 35.2766C112.143 42.793 117.671 50.428 123.35 57.9482C124.571 59.5644 124.061 60.4256 122.571 61.1C116.375 63.903 110.159 66.66 103.947 69.427C102.246 70.184 100.964 69.663 99.936 68.162C99.129 66.983 98.215 65.878 96.696 64.843C96.649 65.816 96.56 66.79 96.56 67.763C96.553 81.086 96.562 94.41 96.558 107.733C96.557 111.532 96.354 111.741 92.649 111.742C74.269 111.746 55.8882 111.687 37.5085 111.8C34.645 111.818 33.8257 110.855 33.8474 108.105C33.9525 94.782 33.9021 81.458 33.8957 68.135C33.8953 67.106 33.8092 66.077 33.1306 64.773C32.1312 65.966 31.2654 67.321 30.0875 68.299C29.2359 69.007 27.6897 69.868 26.932 69.544C20.1537 66.64 13.4801 63.492 6.7849 60.3958C6.5504 60.2873 6.4116 59.9722 6 59.4812C6.8449 58.3036 7.7136 57.0675 8.608 55.8505C13.556 49.1177 18.6327 42.4748 23.401 35.6174C25.2655 32.9359 28.0857 32.6579 30.6423 31.7252C35.288 30.0303 40.0284 28.5902 44.7555 27.1282C45.3943 26.9306 46.4842 26.9361 46.8586 27.3296C51.3938 32.0967 55.8338 36.9543 60.3115 42.2694C60.3074 48.6744 60.243 54.599 60.3008 60.5223C60.3195 62.438 60.659 64.351 61.048 66.256C61.374 66.243 61.505 66.24 61.635 66.236ZM61.613 95.912C60.8874 97.977 60.1624 100.042 59.4655 102.027C61.538 103.536 62.215 102.579 62.804 100.914C64.837 95.161 66.976 89.445 69.036 83.701C69.391 82.711 70.413 81.298 68.537 80.966C67.94 80.86 66.741 82.092 66.402 82.944C64.753 87.082 63.304 91.299 61.613 95.912ZM73.339 91.19C73.839 91.518 74.339 91.845 74.761 92.121C73.645 93.979 69.886 93.465 71.19 97.312C73.744 95.909 76.213 94.645 78.548 93.17C78.887 92.956 78.861 91.231 78.534 91.05C76.205 89.753 73.754 88.676 71.261 87.49C70.206 89.866 71.661 90.393 73.339 91.19ZM52.9535 94.337C54.7965 95.312 56.6395 96.288 58.6255 97.339C59.9956 93.433 55.7421 94.158 55.1148 92.308C56.0705 90.6 59.6788 91.279 58.6431 87.622C56.5539 88.58 54.6183 89.405 52.7459 90.355C51.9303 90.768 51.2444 91.438 50.4996 91.991C51.1989 92.694 51.8982 93.398 52.9535 94.337Z" fill="#088178"/>
<path d="M70 42H69V67H70V42Z" fill="white"/>
<path d="M61 42H60V67H61V42Z" fill="white"/>
<path d="M70 65H60V67H70V65Z" fill="white"/>
<path d="M0.585586 2H129.414V0H0.585586V2ZM129.61 3V127H130V3H129.61ZM129.414 128H0.585586V130H129.414V128ZM0.39039 127V3H0V127H0.39039ZM0.585586 128C0.477779 128 0.39039 127.552 0.39039 127H0C0 128.657 0.262186 130 0.585586 130V128ZM129.61 127C129.61 127.552 129.522 128 129.414 128V130C129.738 130 130 128.657 130 127H129.61ZM129.414 2C129.522 2 129.61 2.4477 129.61 3H130C130 1.3431 129.738 0 129.414 0V2ZM0.585586 0C0.262167 0 0 1.3431 0 3H0.39039C0.39039 2.4477 0.477779 2 0.585586 2V0Z" fill="white" fill-opacity="0.1"/>
</svg>
