<svg xmlns="http://www.w3.org/2000/svg" width="512" height="512" xmlns:v="https://vecta.io/nano"><path d="M245.785-.238l2.212-.03C264.361-.441 280.07-.23 296 4l2.212.583C302.888 5.859 307.44 7.36 312 9l1.892.679C339.491 19.014 363.53 34.99 381 56l2.012 2.281c30.802 35.835 40.749 80.649 37.786 126.872-.528 5.382-1.511 10.598-2.798 15.847l-.602 2.517c-6.139 24.964-18.055 46.111-32.078 67.417l-9.258 14.441-2.969 4.715-1.52 2.414L343 337l15.16 3.262C394.865 347.794 433.027 357.978 462 383l2.344 2.016c8.926 8.254 16.301 19.805 16.992 32.184.351 17.328-4.437 28.761-16.461 41.363C429.493 493.351 370.139 503.199 323 509l-3.555.458c-42.418 5.235-88.075 5.101-130.445-.458l-2.062-.264C150.686 504.082 114.15 496.873 81 481l-2.335-1.113C60.61 471.141 42.373 458.881 34 440l-1.023-2.059c-3.814-8.975-3.465-21.739-.414-30.879C39.597 391.064 51.459 380.101 66 371l2.257-1.424c28.52-17.596 62.987-25.758 95.743-31.033 2.912-.382 2.912-.382 5-1.543l-1.278-1.993-22.286-34.977-11.311-17.842-1.761-2.771-9.083-14.175c-17.698-27.429-32.145-56.684-32.52-90.125l-.03-2.207c-.174-16.366.142-31.963 4.268-47.91l.567-2.294C98.263 111.988 102.191 101.938 107 92l.934-1.93c6.327-12.864 14.193-24.34 23.98-34.832 1.95-2.093 3.802-4.241 5.648-6.426 3.524-4.01 7.281-7.465 11.438-10.812l1.628-1.313C160.804 28.565 171.418 21.929 183 16l2.949-1.52C204.085 5.732 225.63-.014 245.785-.238zM202 114l-1.797 1.746c-13.732 14.078-18.495 32.707-18.445 51.799.252 19.105 7.71 35.091 20.617 49.017L205 219l1.746 1.797c14.078 13.732 32.707 18.495 51.799 18.445 19.105-.252 35.091-7.71 49.017-20.617L310 216l1.797-1.746c13.732-14.078 18.495-32.707 18.445-51.799-.252-19.105-7.71-35.091-20.617-49.017L307 111l-1.746-1.797c-14.078-13.732-32.707-18.495-51.799-18.445-19.98.263-37.826 8.566-51.455 23.242z" fill="#e61e14"/><path d="M172 339c1.722 1.968 1.722 1.968 3.277 4.574l1.783 2.928 1.877 3.185 4.023 6.629 2.046 3.399 9.056 14.41 3.465 5.434 1.73 2.71 8.868 13.918 1.766 2.774L221 416.5l4.411 6.983 3.373 5.351 5.591 8.854 1.73 2.754c5.809 9.82 5.809 9.82 13.895 17.559 2.765.432 2.765.432 5.813.438l3.082.121c5.077-.913 7.719-3.672 10.663-7.677 1.707-2.573 3.333-5.184 4.942-7.819l3.719-5.965 1.902-3.074L289 420l3.492-5.488 7.078-11.117 17.876-28.187 13.747-21.648L341 338c30.172 2.68 60.544 11.311 88 24l1.95.886C444.148 368.93 455.621 376.823 466 387l1.926 1.852c10.227 10.657 13.59 23.19 13.348 37.523-.599 14.572-9.04 25.295-19.289 34.973C425.682 493.611 369.517 503.276 323 509l-3.555.458c-42.418 5.235-88.075 5.101-130.445-.458l-2.062-.264C150.686 504.082 114.15 496.873 81 481l-2.335-1.113C60.61 471.141 42.373 458.881 34 440l-1.023-2.059c-3.814-8.975-3.465-21.739-.414-30.879C39.597 391.064 51.459 380.101 66 371l2.257-1.424C90.677 355.744 145.339 330.384 172 339z" fill="#61dd55"/><path d="M256 0v91l-17 2c-12.382 3.778-22.854 8.414-32.223 17.461C205 112 205 112 203 112l-.77 1.73c-1.374 2.533-3.016 4.418-4.918 6.582C184.2 136.524 181.739 155.735 183 176c1.403 13.173 7.957 26.205 16.555 36.203C201 214 201 214 201.945 216.109c1.342 2.406 2.579 2.759 5.055 3.891 1.456 1.207 2.892 2.439 4.313 3.688 13.164 10.647 28.1 13.805 44.688 15.313v220c-6.383 0-7.036-.062-11.214-3.984-3.515-3.968-6.139-8.478-8.848-13.016l-3.969-6.492-2.008-3.304-9.023-14.329-3.465-5.434-1.73-2.71-8.868-13.918-1.766-2.774L194 375.5l-4.416-6.992-3.353-5.31-5.544-8.761-1.705-2.703c-2.737-4.314-5.534-8.561-8.482-12.734-3.564-5.044-6.893-10.215-10.187-15.437l-1.834-2.895L153 312l-3.082-4.879-4.382-6.942-11.411-17.992-1.76-2.77-9.083-14.176c-17.698-27.429-32.145-56.684-32.52-90.125l-.03-2.207c-.174-16.366.142-31.963 4.268-47.91l.567-2.294C98.263 111.988 102.191 101.938 107 92l.934-1.93c6.327-12.864 14.193-24.34 23.98-34.832 1.95-2.093 3.802-4.241 5.648-6.426 3.524-4.01 7.281-7.465 11.438-10.812l1.628-1.313C160.804 28.565 171.418 21.929 183 16l2.949-1.52C208.046 3.821 231.676 0 256 0z" fill="#fc3018"/><path d="M341 338c30.172 2.68 60.544 11.311 88 24l1.95.886C444.148 368.93 455.621 376.823 466 387l1.926 1.852c10.227 10.657 13.59 23.19 13.348 37.523-.599 14.572-9.04 25.295-19.289 34.973C410.121 507.441 321.99 512.896 256 512v-52l8-3c1.92-1.416 1.92-1.416 3.156-3.152l1.449-1.867c2.424-3.443 4.693-6.955 6.895-10.543l3.164-5.078 1.653-2.662 8.558-13.51 3.547-5.57 5.369-8.429 19.655-30.981 13.747-21.648L341 338z" fill="#13c37a"/></svg>