<svg xmlns="http://www.w3.org/2000/svg" width="512" height="512" xmlns:v="https://vecta.io/nano">
  <path
    d="M200.375 70.75c10.045 7.19 16.579 16.452 20 28.438a47.27 47.27 0 0 1 .664 8.551l-.017 2.427L221 112l3.665-.063 13.62-.156 5.865-.082c15.369-.267 27.201.769 39.85 10.302l2.625 1.75c8.145 7.716 14.003 18.692 14.495 30.015l-.007 3.035v3.505l-.016 3.652-.003 3.38-.032 12.475L301 208h63l-.36-30.873-.03-5.846-.062-3.017c-.003-6.275.809-11.048 4.453-16.265 4.045-3.848 7.287-5.151 12.813-5.312l2.52-.113c6.348 1.013 10.791 6.259 15.105 10.676l1.729 1.749a210.6 210.6 0 0 1 10.294 11.244c2.116 2.417 4.405 4.636 6.697 6.885 1.776 1.806 3.437 3.667 5.088 5.588 3.668 4.218 7.471 8.292 11.316 12.348l4.238 4.488 2.131 2.256 23.58 25.337 8.019 8.532 1.785 1.871 3.409 3.522c4.022 4.233 6.961 8.359 7.49 14.373l-.277 2.121-.223 2.129c-1.972 6.367-7.087 11.049-11.59 15.746l-4.043 4.266-2.064 2.17-9.206 9.814-1.754 1.879-12.45 13.45-14.042 15.042L417 334.5l-13.812 14.875-1.85 1.982L396 357l-1.9 1.997-1.862 1.917-1.667 1.725c-3.496 3.027-7.696 2.633-12.068 2.576-4.751-.408-7.531-2.188-10.754-5.59-2.767-4.151-4.003-7.607-3.977-12.599l.001-2.951.031-3.063.006-2.844.064-10.48L364 304h-63l.36 36.346.03 6.915.062 3.528c.005 12.239-2.981 22.481-10.453 32.21l-1.75 2.625c-7.071 7.463-17.826 13.887-28.326 14.495l-2.234-.007h-2.547l-2.721-.016-2.808-.004-8.864-.031-6.016-.014L221 400l.022 2.067.017 2.719.022 2.692c-.285 11.71-6.979 22.925-15.249 30.835-11.213 9.303-24.067 12.954-38.492 12.018-12.958-1.845-25.389-7.738-37.426-12.604l-6.049-2.428-12.604-5.078-16.077-6.462-12.465-5.014-5.926-2.38c-36.426-14.6-36.426-14.6-45.062-34.306-2.943-7.782-3.86-14.871-3.845-23.134l-.007-2.739-.005-9.071-.01-6.511-.012-17.678-.005-11.051-.013-38.572-.026-35.922-.018-30.864-.013-18.423-.002-17.338-.007-6.348c-.055-20.616 1.798-36.667 16.92-51.908 10.419-8.528 25.314-12.651 37.66-17.547l6.483-2.583 13.525-5.375 17.296-6.886 13.363-5.317 6.377-2.541 8.914-3.539 2.633-1.055c17.015-6.701 33.627-6.896 49.456 3.093z"
    fill="#f44336" />
  <path
    d="M380.813 146.688l2.52-.113c6.348 1.013 10.791 6.259 15.105 10.676l1.729 1.749a210.6 210.6 0 0 1 10.294 11.244c2.116 2.417 4.405 4.636 6.697 6.885 1.776 1.806 3.437 3.667 5.088 5.588 3.668 4.218 7.471 8.292 11.316 12.348l4.238 4.488 2.131 2.256 23.58 25.337 8.019 8.532 1.785 1.871 3.409 3.522c4.022 4.233 6.961 8.359 7.49 14.373l-.277 2.121-.223 2.129c-1.972 6.367-7.087 11.049-11.59 15.746l-4.043 4.266-2.064 2.17-9.206 9.814-1.754 1.879-12.45 13.45-14.042 15.042L417 334.5l-13.812 14.875-1.85 1.982L396 357l-1.9 1.997-1.862 1.917-1.667 1.725c-3.496 3.027-7.696 2.633-12.068 2.576-4.751-.408-7.531-2.188-10.754-5.59-2.767-4.151-4.003-7.607-3.977-12.599v-2.911l.031-3.103.009-3.207.062-10.117.027-6.869L364 304l-3.812.027-35.619.18-18.311.095-17.682.078-6.735.043-9.457.031-2.792.044c-9.535-.06-17.706-3.929-24.593-10.498-6.53-8.065-8.316-15.237-8.406-25.445l-.035-3.049-.04-6.379-.145-9.657c-.127-12.267-.063-22.162 8.636-31.666 5.647-5.461 13.229-9.933 21.222-9.923l2.613-.004 2.858.011h3.016l9.886.016 6.848.004 18.036.025 18.399.02L364 208l-.027-1.768-.193-18.3-.082-6.82-.089-9.83-.063-3.057c-.002-6.26.819-11.022 4.453-16.225 4.045-3.848 7.287-5.151 12.813-5.312z"
    fill="#757575" />
  <path
    d="M221 112c49.731 0 49.731 0 63 10l2.625 1.75c8.145 7.716 14.003 18.692 14.495 30.015l-.007 3.035v3.457l-.016 3.7-.004 3.812-.025 9.997-.02 10.216L301 208l-3.437.028-12.731.179-5.49.063-7.931.12-2.444.004c-9.072.229-17.524 4.204-23.966 10.606-3.937 5.486-7.092 10.631-7.177 17.496l-.039 2.753-.022 2.973-.024 3.077-.032 6.458-.105 9.803-.025 6.287-.053 2.93c.028 9.056 2.512 16.984 8.776 23.691 7.394 6.647 15.065 8.808 24.82 8.945l2.597.059 8.16.152 5.555.117L301 304l.207 21.622.095 10.044.089 11.595.063 3.575c.003 12.22-2.995 22.451-10.453 32.163l-1.75 2.625c-7.174 7.572-16.253 11.876-26.25 14.375h-42V112z"
    fill="#cacaca" />
  <path
    d="M146.973 240.613c4.964 2.476 7.876 6.332 10.027 11.387.939 5.845-.766 10.202-4 15-4.632 4.406-8.502 5.362-14.719 5.281-4.756-.586-7.505-3.421-10.594-6.844-3.144-4.542-3.348-9.081-2.687-14.437 4.539-8.91 12.184-13.43 21.973-10.387z"
    fill="#7e0936" />
</svg>