<svg width="662" height="126" viewBox="0 0 662 126" fill="none" xmlns="http://www.w3.org/2000/svg">
  <path
    d="M369.641 67.97C375.159 73.338 380.354 78.508 385.547 83.68C389.441 87.557 394.037 87.873 398.319 84.553C402.385 81.4 403.554 75.373 400.805 71.096C400.007 69.854 398.873 68.815 397.824 67.75C395.134 65.019 394.837 62.093 397.686 59.482C401.809 55.7038 403.626 51.3906 401.209 46.124C398.749 40.7624 393.911 39.9776 388.609 40.1403C383.16 40.3076 377.702 40.1775 372.374 40.1775C370.9 46.4193 371.883 51.1703 376.855 55.1633C381.116 58.5851 384.68 62.868 388.605 66.718C391.314 69.375 393.489 72.323 390.161 75.688C386.92 78.965 383.899 77.161 381.168 74.382C375.565 68.679 369.678 63.236 364.343 57.2962C362.548 55.2984 361.452 52.1901 361.132 49.4609C360.612 45.0243 360.99 40.4819 360.994 35.9841C360.999 31.6957 363.147 29.4975 367.438 29.4879C375.767 29.4692 384.11 29.1858 392.423 29.5494C408.668 30.2598 417.658 46.31 410.369 60.919C409.663 62.335 409.702 64.705 410.401 66.142C414.435 74.431 414.039 82.264 408.352 89.537C402.457 97.076 394.233 98.291 385.391 97.218C384.347 97.092 383.225 96.326 382.439 95.552C376.03 89.24 369.51 83.022 363.472 76.369C362.082 74.837 361.457 71.373 362.185 69.442C363.329 66.411 366.376 66.029 369.641 67.97Z"
    fill="#088178" />
  <path
    d="M264.765 94.381C254.84 88.212 250.476 79.492 252.271 68.411C253.929 58.1752 260.296 51.3482 270.33 48.5659C277.301 46.6328 284.136 47.7143 290.99 52.1022C290.99 46.4887 291.071 41.5821 290.963 36.6796C290.88 32.8794 292.009 29.7536 296.19 29.6504C300.719 29.5386 301.86 32.8877 301.857 36.8172C301.842 54.2949 301.843 71.773 301.857 89.25C301.86 92.501 301.904 96.278 298.04 96.899C295.652 97.283 292.919 95.523 289.008 94.313C282.325 98.261 273.805 98.919 264.765 94.381ZM262.867 75.061C265.568 84.94 274.602 89.51 283.046 85.27C289.535 82.011 292.499 74.899 290.195 68.114C287.933 61.448 281.371 57.3916 274.705 58.5386C266.935 59.876 262.656 65.496 262.867 75.061Z"
    fill="#088178" />
  <path
    d="M178.58 32.2456C186.698 37.038 191.482 43.5781 192.27 52.8248C192.595 56.6311 191.83 59.713 187.527 60.077C183.588 60.409 182.126 57.8767 181.732 54.1594C181.017 47.4198 177.517 42.7015 170.788 40.8252C164.667 39.1184 159.609 41.0553 155.683 45.8374C154.462 47.3254 153.143 49.2919 153.083 51.0798C152.808 59.351 152.334 67.7 153.161 75.897C153.8 82.239 160.455 86.739 166.864 86.815C173.048 86.888 179.035 82.647 180.926 76.746C181.379 75.331 181.67 73.83 181.793 72.348C182.089 68.763 183.91 66.623 187.528 66.916C191.519 67.238 192.531 70.032 192.328 73.683C191.389 90.585 173.905 101.956 158.106 95.881C148.209 92.075 141.923 83.032 141.824 72.374C141.776 67.209 142.2 62.009 141.747 56.8835C140.103 38.2899 159.607 23.3488 178.58 32.2456Z"
    fill="#088178" />
  <path
    d="M350.999 57.0653C352.857 61.976 355.128 66.47 356.007 71.221C356.859 75.822 354.502 77.793 349.645 77.834C340.995 77.905 332.343 77.854 323.692 77.854C322.111 77.854 320.529 77.854 318.734 77.854C322.077 86.256 331.195 89.208 338.635 84.76C339.627 84.167 340.52 83.402 341.431 82.681C344.188 80.497 346.979 80.2 349.257 83.146C351.689 86.293 350.364 89.059 347.731 91.429C340.58 97.864 329.02 99.312 320.194 94.884C311.065 90.304 305.4 80.322 306.508 70.302C307.651 59.958 313.107 52.5382 322.908 49.0826C333.753 45.2591 343.153 48.2052 350.999 57.0653ZM340.767 61.743C331.785 55.557 321.452 57.9936 319.08 66.752C327.362 66.752 335.669 66.752 344.697 66.752C343.28 64.831 342.321 63.53 340.767 61.743Z"
    fill="#088178" />
  <path
    d="M417.949 69.373C422.03 49.9873 438.686 42.4814 456.262 50.1931C458.989 49.4611 462.288 47.4629 464.277 48.3619C466.177 49.2201 467.61 53.0677 467.693 55.6508C468.053 66.965 468.065 78.305 467.682 89.618C467.597 92.142 465.988 95.731 464.013 96.741C462.279 97.628 459.048 95.588 456.613 94.179C447.303 98.722 437.768 99.251 428.638 93.057C420.538 87.562 417.082 79.597 417.949 69.373ZM439.42 58.6607C428.315 62.381 424.776 74.834 432.621 82.588C437.456 87.367 444.748 88.158 450.413 84.517C455.91 80.985 458.283 74.175 456.164 68.014C453.802 61.148 448.128 57.7532 439.42 58.6607Z"
    fill="#088178" />
  <path
    d="M625.311 49.056C626.083 51.1829 626.921 53.0738 626.941 54.9734C627.065 66.638 626.972 78.304 627.025 89.969C627.04 93.154 626.759 96.554 623.088 96.97C620.811 97.228 618.311 95.524 614.535 94.229C600.213 99.71 589.147 97.597 581.555 86.922C575.07 77.804 575.5 65.475 582.607 56.7634C590.654 46.8996 602.104 45.0838 616.075 51.5247C618.281 48.2208 620.916 46.0512 625.311 49.056ZM587.847 74.191C589.732 82.837 596.606 88.065 604.183 86.615C612.004 85.119 616.893 78.572 616.04 70.736C615.261 63.582 608.842 57.9689 601.667 58.1684C593.678 58.3905 588.079 64.534 587.847 74.191Z"
    fill="#088178" />
  <path
    d="M570.476 96.06C566.009 98.847 563.386 96.849 561.405 93.241C548.262 100.03 536.102 98.21 527.948 88.315C520.358 79.104 520.407 65.908 528.012 56.5925C534.148 49.0766 546.879 43.2605 559.823 50.8012C563.493 49.569 566.076 47.8789 568.498 48.0844C571.979 48.38 572.201 51.6937 572.19 54.6841C572.149 66.51 572.236 78.337 572.113 90.161C572.093 92.052 571.249 93.934 570.476 96.06ZM558.711 64.016C552.943 57.8632 546.27 56.4844 540.064 60.162C533.247 64.203 530.989 72.744 534.935 79.569C538.859 86.357 547.056 88.773 553.836 85.14C561.355 81.11 563.472 72.915 558.711 64.016Z"
    fill="#088178" />
  <path
    d="M505.969 47.4936C509.293 47.4938 512.198 47.1002 514.932 47.6127C517.322 48.0606 520.93 49.0686 521.449 50.6607C522.107 52.6791 520.888 56.2 519.261 57.9232C510.92 66.757 502.186 75.218 493.596 83.816C492.9 84.513 492.251 85.257 490.787 86.833C497.873 86.833 504.068 86.833 510.262 86.833C512.094 86.833 513.925 86.852 515.756 86.833C519.371 86.795 522.131 88.004 522.177 92.082C522.222 96.126 519.548 97.493 515.915 97.507C511.586 97.523 507.257 97.512 502.928 97.512C495.102 97.512 487.264 97.762 479.46 97.353C477.219 97.235 473.9 95.672 473.223 93.934C472.539 92.181 473.884 88.779 475.441 87.151C484.51 77.665 493.902 68.489 504.224 58.1697C495.947 58.1697 488.919 58.1727 481.891 58.1689C474.938 58.1651 472.451 56.7407 472.514 52.8094C472.576 48.8974 475.078 47.4924 481.999 47.4913C489.824 47.49 497.65 47.4927 505.969 47.4936Z"
    fill="#088178" />
  <path
    d="M197.152 71.2C198.404 60.263 203.727 52.6824 213.726 49.0465C222.709 45.78 231.186 47.4096 238.458 53.6647C247.422 61.376 249.62 73.58 244.224 84.028C238.926 94.286 227.259 99.55 215.981 96.77C204.755 94.004 197.338 84.104 197.152 71.2ZM234.471 79.639C237.546 72.832 236.716 66.813 232.077 62.279C227.753 58.0536 221.499 57.0323 216.002 59.654C210.504 62.276 207.397 67.608 207.998 73.808C208.581 79.814 211.845 83.92 217.514 85.938C223.803 88.176 229.02 86.327 234.471 79.639Z"
    fill="#088178" />
  <path
    d="M631.832 71C631.832 65.509 631.847 60.518 631.827 55.5266C631.815 52.5258 631.359 48.7618 635.097 48.1811C637.58 47.7953 640.397 49.5606 643.822 50.591C646.963 49.8073 651.37 48.4469 655.877 47.6714C659.087 47.1189 661.484 48.9105 661.881 52.2131C662.277 55.5129 660.385 57.4161 657.124 58.0905C645.502 60.495 642.183 64.609 642.169 76.505C642.163 81.497 642.112 86.489 642.186 91.479C642.239 95.095 640.56 97.386 636.993 97.382C633.424 97.378 631.774 95.077 631.813 91.465C631.884 84.811 631.832 78.155 631.832 71Z"
    fill="#088178" />
  <path fill-rule="evenodd" clip-rule="evenodd"
    d="M126 63C126 97.7939 97.7939 126 63 126C28.2061 126 0 97.7939 0 63C0 28.2061 28.2061 0 63 0C97.7939 0 126 28.2061 126 63ZM123 63C123 96.1371 96.1371 123 63 123C29.8629 123 3 96.1371 3 63C3 29.8629 29.8629 3 63 3C96.1371 3 123 29.8629 123 63Z"
    fill="#088178" />
  <path
    d="M63 44C63.5523 44 64 43.5523 64 43C64 42.4477 63.5523 42 63 42C62.4477 42 62 42.4477 62 43C62 43.5523 62.4477 44 63 44Z"
    fill="#088178" />
  <path
    d="M63 52C63.5523 52 64 51.5523 64 51C64 50.4477 63.5523 50 63 50C62.4477 50 62 50.4477 62 51C62 51.5523 62.4477 52 63 52Z"
    fill="#088178" />
  <path
    d="M63 56C63.5523 56 64 55.5523 64 55C64 54.4477 63.5523 54 63 54C62.4477 54 62 54.4477 62 55C62 55.5523 62.4477 56 63 56Z"
    fill="#088178" />
  <path
    d="M63 60C63.5523 60 64 59.5523 64 59C64 58.4477 63.5523 58 63 58C62.4477 58 62 58.4477 62 59C62 59.5523 62.4477 60 63 60Z"
    fill="#088178" />
  <path
    d="M63 48C63.5523 48 64 47.5523 64 47C64 46.4477 63.5523 46 63 46C62.4477 46 62 46.4477 62 47C62 47.5523 62.4477 48 63 48Z"
    fill="#088178" />
  <path fill-rule="evenodd" clip-rule="evenodd"
    d="M58 65H59H67H68V63V47.6411C68.0352 45.132 68.0672 42.6304 68.099 40.1289C69.1995 38.8802 70.3006 37.6319 71.4016 36.3836L71.4197 36.3631L71.4222 36.3603L71.4242 36.3581L71.4254 36.3567L71.4257 36.3563C74.4095 32.9735 77.3933 29.5908 80.367 26.1989C81.535 24.8655 82.627 24.7212 84.426 25.3882C87.6187 26.5718 90.8643 27.6111 94.1105 28.6506L94.1106 28.6506L94.1107 28.6507C96.5045 29.4172 98.8986 30.1839 101.272 31.0085C102.464 31.4225 103.703 32.2767 104.459 33.2766C107.347 37.0955 110.195 40.9451 113.042 44.7946L113.043 44.796C115.8 48.5227 118.557 52.2493 121.35 55.9482C122.571 57.5644 122.061 58.4256 120.571 59.1C115.47 61.4075 110.356 63.6838 105.242 65.9602L105.241 65.9604L105.241 65.9606L105.24 65.9608L105.24 65.961C104.142 66.4496 103.045 66.9381 101.947 67.427C100.246 68.184 98.964 67.663 97.936 66.162C97.129 64.983 96.215 63.878 94.696 62.843C94.681 63.1538 94.6617 63.4647 94.6423 63.7756L94.6423 63.7761L94.6423 63.7766L94.6423 63.7772L94.6422 63.7777L94.6422 63.7782L94.6422 63.7787L94.6422 63.7789C94.6011 64.4403 94.56 65.1019 94.56 65.763C94.5561 73.1148 94.5571 80.467 94.5581 87.8191C94.559 93.7905 94.5598 99.7618 94.558 105.733C94.557 109.532 94.354 109.741 90.649 109.742C85.7218 109.743 80.7945 109.74 75.8672 109.736H75.8639C62.412 109.727 48.96 109.717 35.5085 109.8C32.645 109.818 31.8257 108.855 31.8474 106.105C31.9293 95.7204 31.9168 85.3352 31.9042 74.9503V74.9501V74.95V74.9498V74.9497V74.9495V74.9493V74.9491C31.9007 72.0111 31.8971 69.073 31.8957 66.135C31.8953 65.106 31.8092 64.077 31.1306 62.773C30.8309 63.1308 30.5431 63.5032 30.2554 63.8756L30.2553 63.8757L30.2552 63.8758L30.2551 63.876L30.255 63.8761L30.255 63.8762L30.2549 63.8763L30.2548 63.8764C29.5834 64.7454 28.9119 65.6145 28.0875 66.299C27.2359 67.007 25.6897 67.868 24.932 67.544C19.3362 65.1466 13.8117 62.5829 8.2875 60.0193C7.12018 59.4776 5.95287 58.9359 4.7849 58.3958C4.63707 58.3274 4.52727 58.1769 4.36318 57.952C4.26698 57.8201 4.15212 57.6627 4 57.4812C4.26416 57.113 4.53065 56.7391 4.79952 56.3619L4.79981 56.3615L4.79986 56.3614C5.39085 55.5322 5.99336 54.6869 6.608 53.8505C8.06639 51.8661 9.53597 49.8894 11.0055 47.9128L11.0056 47.9127C14.5219 43.1831 18.0382 38.4536 21.401 33.6174C22.8659 31.5106 24.9208 30.8874 26.9743 30.2648L26.9743 30.2647L26.9743 30.2647L26.9744 30.2647C27.5345 30.0949 28.0944 29.9251 28.6423 29.7252C32.8983 28.1725 37.2338 26.8336 41.5657 25.4958L41.5657 25.4958L41.5658 25.4958C41.9624 25.3733 42.359 25.2508 42.7555 25.1282C43.3943 24.9306 44.4842 24.9361 44.8586 25.3296C49.3171 30.016 53.6835 34.79 58.0842 40H58V63V65ZM56.3214 82.4333C57.0146 81.9796 57.2088 81.0499 56.7551 80.3568C56.3015 79.6636 55.3718 79.4694 54.6786 79.923L48.3036 84.0949C47.8802 84.372 47.625 84.8439 47.625 85.35C47.625 85.8561 47.8802 86.328 48.3036 86.6051L54.6786 90.777C55.3718 91.2306 56.3015 91.0364 56.7551 90.3432C57.2088 89.6501 57.0146 88.7204 56.3214 88.2667L51.8643 85.35L56.3214 82.4333ZM71.2449 80.3568C71.6985 79.6636 72.6282 79.4694 73.3214 79.923L79.6964 84.0949C80.1198 84.372 80.375 84.8439 80.375 85.35C80.375 85.8561 80.1198 86.328 79.6964 86.6051L73.3214 90.777C72.6282 91.2306 71.6985 91.0364 71.2449 90.3432C70.7912 89.6501 70.9854 88.7204 71.6786 88.2667L76.1357 85.35L71.6786 82.4333C70.9854 81.9796 70.7912 81.0499 71.2449 80.3568ZM69.6112 76.8022C69.9593 76.0504 69.632 75.1588 68.8803 74.8107C68.1285 74.4626 67.2369 74.7898 66.8888 75.5416L58.3888 93.8979C58.0407 94.6496 58.368 95.5412 59.1197 95.8893C59.8715 96.2374 60.7631 95.9102 61.1112 95.1584L69.6112 76.8022Z"
    fill="#088178" />
</svg>