<svg width="418" height="424" viewBox="0 0 418 424" fill="none" xmlns="http://www.w3.org/2000/svg">
<path d="M370.954 293.038H397.435V281.848H370.954V293.038Z" fill="#EBEBEB"/>
<path d="M385.726 307.148L399.082 306.869L405.661 306.757C407.849 306.71 410.025 306.72 412.207 306.702L411.761 307.148L411.707 295.958L412.206 296.457L398.966 296.394C394.553 296.389 390.139 296.281 385.726 296.23L385.999 295.957C385.98 297.788 385.913 299.63 385.868 301.493L385.726 307.148ZM385.726 307.148L385.584 301.612C385.539 299.745 385.472 297.857 385.453 295.958L385.45 295.688L385.726 295.685C390.139 295.634 394.553 295.526 398.966 295.521L412.206 295.458L412.708 295.456L412.706 295.958L412.652 307.148L412.65 307.597L412.206 307.593C409.974 307.575 407.737 307.585 405.511 307.538L398.85 307.426L385.726 307.148Z" fill="#EBEBEB"/>
<path d="M190.688 197.241L204.044 196.962L210.623 196.85C212.811 196.803 214.987 196.813 217.169 196.795L216.723 197.241L216.669 186.051L217.168 186.55L203.928 186.487C199.515 186.482 195.101 186.374 190.688 186.323L190.961 186.05C190.942 187.881 190.875 189.723 190.83 191.586L190.688 197.241ZM190.688 197.241L190.546 191.705C190.501 189.838 190.434 187.95 190.415 186.051L190.412 185.781L190.688 185.778C195.101 185.727 199.515 185.619 203.928 185.614L217.168 185.551L217.67 185.549L217.668 186.051L217.614 197.241L217.612 197.69L217.168 197.687C214.936 197.669 212.699 197.679 210.473 197.632L203.812 197.52L190.688 197.241Z" fill="#EBEBEB"/>
<path d="M205.459 211.351H231.94V200.161H205.459V211.351Z" fill="#EBEBEB"/>
<path d="M175.691 211.351L189.047 211.072L195.626 210.96C197.814 210.913 199.99 210.923 202.172 210.905L201.726 211.351L201.672 200.161L202.171 200.66L188.931 200.597C184.518 200.592 180.104 200.484 175.691 200.433L175.964 200.16C175.945 201.991 175.878 203.833 175.833 205.696L175.691 211.351ZM175.691 211.351L175.549 205.815C175.504 203.948 175.437 202.06 175.418 200.161L175.415 199.891L175.691 199.888C180.104 199.837 184.518 199.729 188.931 199.724L202.171 199.661L202.673 199.659L202.671 200.161L202.617 211.351L202.615 211.8L202.171 211.797C199.939 211.779 197.702 211.789 195.476 211.742L188.815 211.63L175.691 211.351Z" fill="#EBEBEB"/>
<path d="M231.463 69.619H257.944V58.429H231.463V69.619Z" fill="#EBEBEB"/>
<path d="M4.88898 307.148L18.245 306.869L24.824 306.757C27.012 306.71 29.188 306.72 31.37 306.702L30.924 307.148L30.87 295.958L31.369 296.457L18.129 296.394C13.716 296.389 9.30198 296.281 4.88898 296.23L5.16198 295.957C5.14298 297.788 5.07598 299.63 5.03098 301.493L4.88898 307.148ZM4.88898 307.148L4.74698 301.612C4.70198 299.745 4.63498 297.857 4.61598 295.958L4.61298 295.688L4.88898 295.685C9.30198 295.634 13.716 295.526 18.129 295.521L31.369 295.458L31.871 295.456L31.869 295.958L31.815 307.148L31.813 307.597L31.369 307.593C29.137 307.575 26.9 307.585 24.674 307.538L18.013 307.426L4.88898 307.148Z" fill="#EBEBEB"/>
<path d="M19.661 23.8602L33.017 23.5812L39.596 23.4692C41.784 23.4222 43.96 23.4322 46.142 23.4142L45.696 23.8602L45.642 12.6702L46.141 13.1692L32.901 13.1062C28.488 13.1012 24.074 12.9942 19.661 12.9422L19.934 12.6692C19.915 14.5002 19.848 16.3422 19.803 18.2052L19.661 23.8602ZM19.661 23.8602L19.519 18.3242C19.474 16.4572 19.407 14.5692 19.388 12.6702L19.385 12.4002L19.661 12.3972C24.074 12.3462 28.488 12.2382 32.901 12.2332L46.141 12.1702L46.643 12.1682L46.641 12.6702L46.587 23.8602L46.585 24.3092L46.141 24.3062C43.909 24.2882 41.672 24.2982 39.446 24.2512L32.785 24.1392L19.661 23.8602Z" fill="#EBEBEB"/>
<path d="M4.88875 37.9693H31.3698V26.7794L4.88875 26.7794V37.9693Z" fill="#EBEBEB"/>
<path d="M385.726 23.8602L399.082 23.5812L405.661 23.4692C407.849 23.4222 410.025 23.4322 412.207 23.4142L411.761 23.8602L411.707 12.6702L412.206 13.1692L398.966 13.1062C394.553 13.1012 390.139 12.9942 385.726 12.9422L385.999 12.6692C385.98 14.5002 385.913 16.3422 385.868 18.2052L385.726 23.8602ZM385.726 23.8602L385.584 18.3242C385.539 16.4572 385.472 14.5692 385.453 12.6702L385.45 12.4002L385.726 12.3972C390.139 12.3462 394.553 12.2382 398.966 12.2332L412.206 12.1702L412.708 12.1682L412.706 12.6702L412.652 23.8602L412.65 24.3092L412.206 24.3062C409.974 24.2882 407.737 24.2982 405.511 24.2512L398.85 24.1392L385.726 23.8602Z" fill="#EBEBEB"/>
<path d="M127.819 343.432H55.872V423.104H127.819V343.432Z" fill="#EBEBEB"/>
<path d="M18.7224 423.108H55.8724L55.8724 343.433H18.7224L18.7224 423.108Z" fill="#DBDBDB"/>
<path d="M21.282 417.619C24.033 411.953 26.762 406.271 29.461 400.568L37.521 383.431L45.478 366.219C48.117 360.473 50.727 354.705 53.314 348.921C50.562 354.586 47.834 360.268 45.134 365.971L37.075 383.108L29.119 400.32C26.479 406.068 23.869 411.836 21.282 417.619Z" fill="#EBEBEB"/>
<path d="M21.282 348.921C23.869 354.705 26.479 360.473 29.119 366.219L37.075 383.431L45.134 400.568C47.833 406.271 50.561 411.953 53.314 417.618C50.727 411.833 48.117 406.066 45.478 400.32L37.521 383.108L29.461 365.971C26.762 360.269 24.033 354.587 21.282 348.921Z" fill="#EBEBEB"/>
<path d="M127.819 223.103H55.872V297.286H127.819V223.103Z" fill="#EBEBEB"/>
<path d="M18.7224 297.291H55.8724L55.8724 223.104H18.7224L18.7224 297.291Z" fill="#DBDBDB"/>
<path d="M85.741 240.321H87.263H88.408L89.061 238.995L89.977 240.321L91.22 237.592L92.397 240.321H95.765H97.301L97.857 238.5L98.38 240.321H99.38V223.103H85.741V240.321Z" fill="#DBDBDB"/>
<path d="M21.282 292.556C24.033 287.281 26.762 281.99 29.461 276.68L37.521 260.724L45.478 244.698C48.117 239.348 50.727 233.978 53.314 228.591C50.562 233.866 47.834 239.156 45.134 244.466L37.075 260.423L29.119 276.449C26.479 281.801 23.869 287.171 21.282 292.556Z" fill="#EBEBEB"/>
<path d="M21.282 228.592C23.869 233.977 26.479 239.348 29.119 244.698L37.075 260.724L45.134 276.681C47.833 281.991 50.561 287.282 53.314 292.556C50.727 287.17 48.117 281.8 45.478 276.449L37.521 260.423L29.461 244.467C26.762 239.158 24.033 233.867 21.282 228.592Z" fill="#EBEBEB"/>
<path d="M60.6124 292.679H68.5994V284.692H60.6124V292.679Z" fill="white"/>
<path d="M123.026 297.289H51.079V343.431H123.026V297.289Z" fill="#DBDBDB"/>
<path d="M13.9287 343.433H51.0787L51.0787 297.289H13.9287L13.9287 343.433Z" fill="#C7C7C7"/>
<path d="M80.947 314.507H82.469H83.614L84.268 313.181L85.183 314.507L86.426 311.778L87.603 314.507H90.971H92.507L93.063 312.686L93.586 314.507H94.586V297.289H80.947V314.507Z" fill="white"/>
<path d="M16.488 340.687C19.239 337.334 21.968 333.972 24.667 330.597L32.727 320.456L40.684 310.271C43.323 306.871 45.933 303.458 48.52 300.035C45.768 303.387 43.04 306.75 40.34 310.125L32.281 320.266L24.325 330.451C21.685 333.851 19.076 337.264 16.488 340.687Z" fill="#DBDBDB"/>
<path d="M16.488 300.035C19.075 303.458 21.685 306.871 24.325 310.271L32.281 320.456L40.34 330.597C43.039 333.972 45.767 337.334 48.52 340.686C45.933 337.263 43.323 333.85 40.684 330.45L32.727 320.265L24.667 310.124C21.968 306.75 19.239 303.388 16.488 300.035Z" fill="#DBDBDB"/>
<path d="M403.167 353.408H331.22V423.104H403.167V353.408Z" fill="#DBDBDB"/>
<path d="M294.071 423.108H331.221V353.409H294.071V423.108Z" fill="#C7C7C7"/>
<path d="M361.089 370.627H362.611H363.755L364.409 369.301L365.325 370.627L366.567 367.897L367.744 370.627H371.112H372.649L373.205 368.805L373.728 370.627H374.727V353.409H361.089V370.627Z" fill="white"/>
<path d="M296.63 418.961C299.381 413.897 302.11 408.818 304.809 403.72L312.869 388.402L320.826 373.018C323.465 367.882 326.075 362.727 328.662 357.556C325.91 362.62 323.182 367.698 320.482 372.796L312.423 388.114L304.467 403.499C301.827 408.635 299.217 413.791 296.63 418.961Z" fill="#DBDBDB"/>
<path d="M296.63 357.556C299.217 362.726 301.827 367.881 304.467 373.017L312.423 388.402L320.482 403.72C323.181 408.818 325.91 413.897 328.662 418.96C326.075 413.79 323.465 408.634 320.826 403.498L312.869 388.114L304.809 372.797C302.11 367.699 299.381 362.621 296.63 357.556Z" fill="#DBDBDB"/>
<path d="M278.065 8.61015V178.71H395.125V8.61015H278.065ZM390.805 174.39H282.385V12.9302H390.805V174.39Z" fill="#EBEBEB"/>
<path d="M390.805 12.9301H282.385V174.39H390.805V12.9301Z" fill="white"/>
<path d="M282.388 100.817L390.809 100.817V96.4987L282.388 96.4987V100.817Z" fill="#EBEBEB"/>
<path d="M270.115 191.104L403.081 191.104V178.709L270.115 178.709V191.104Z" fill="#DBDBDB"/>
<path d="M273.639 196.064L399.557 198.701V191.103H273.639V196.064Z" fill="#EBEBEB"/>
<path d="M282.388 12.9252H390.809V123.858H282.388V12.9252ZM386.809 16.9252H286.387V119.858H386.809V16.9252Z" fill="#DBDBDB"/>
<path d="M356.205 12.9252H354.046V119.858H356.205V12.9252Z" fill="#DBDBDB"/>
<path d="M319.15 12.9252H316.991V119.858H319.15V12.9252Z" fill="#DBDBDB"/>
<path d="M21.971 8.61015V178.71H139.031V8.61015H21.971ZM134.711 174.39H26.291V12.9302H134.711V174.39Z" fill="#EBEBEB"/>
<path d="M134.711 12.9301H26.291V174.39H134.711V12.9301Z" fill="white"/>
<path d="M26.2877 100.817L134.709 100.817V96.4987L26.2877 96.4987V100.817Z" fill="#EBEBEB"/>
<path d="M14.0146 191.104L146.981 191.104V178.709L14.0146 178.709V191.104Z" fill="#DBDBDB"/>
<path d="M17.539 196.064L143.457 198.701V191.103H17.539V196.064Z" fill="#EBEBEB"/>
<path d="M26.287 12.9252H134.708V123.858H26.287V12.9252ZM130.709 16.9252H30.287V119.858H130.709V16.9252Z" fill="#DBDBDB"/>
<path d="M100.105 12.9252H97.946V119.858H100.105V12.9252Z" fill="#DBDBDB"/>
<path d="M63.05 12.9252H60.891V119.858H63.05V12.9252Z" fill="#DBDBDB"/>
<path d="M297.258 340.715H197.578V423.073H297.258V340.715Z" fill="#088178"/>
<path opacity="0.1" d="M297.258 340.715H197.578V423.073H297.258V340.715Z" fill="black"/>
<path d="M336.753 340.716H297.257V423.078H336.753V340.716Z" fill="#088178"/>
<path opacity="0.2" d="M336.753 340.716H297.257V423.078H336.753V340.716Z" fill="black"/>
<path d="M334.033 417.404C331.108 411.547 328.207 405.674 325.338 399.778L316.769 382.063L308.31 364.271C305.504 358.331 302.729 352.369 299.979 346.389C302.905 352.245 305.806 358.119 308.675 364.014L317.243 381.729L325.701 399.522C328.507 405.462 331.282 411.424 334.033 417.404Z" fill="#088178"/>
<path d="M334.033 346.389C331.282 352.368 328.507 358.33 325.701 364.27L317.243 382.063L308.675 399.778C305.805 405.673 302.905 411.547 299.979 417.403C302.729 411.423 305.504 405.461 308.31 399.521L316.769 381.729L325.338 364.014C328.207 358.12 331.108 352.246 334.033 346.389Z" fill="#088178"/>
<path d="M254.467 358.513H252.893H251.71L251.034 357.142L250.088 358.513L248.803 355.692L247.587 358.513H244.105H242.517L241.942 356.63L241.401 358.513H240.369V340.716H254.467V358.513Z" fill="white"/>
<path d="M303.267 258.356H228.898V340.71H303.267V258.356Z" fill="#088178"/>
<path d="M341.668 258.357H303.267V340.714H341.668V258.357Z" fill="#088178"/>
<path opacity="0.1" d="M341.668 258.357H303.267V340.714H341.668V258.357Z" fill="black"/>
<g opacity="0.1">
<path d="M297.818 335.041C292.357 329.184 286.94 323.311 281.582 317.416L265.582 299.702L249.787 281.911C244.548 275.971 239.366 270.01 234.231 264.03C239.694 269.886 245.11 275.759 250.468 281.654L266.466 299.368L282.259 317.159C287.501 323.101 292.682 329.063 297.818 335.041Z" fill="black"/>
<path d="M297.818 264.031C292.682 270.01 287.501 275.971 282.261 281.911L266.468 299.703L250.47 317.417C245.111 323.312 239.696 329.185 234.233 335.041C239.368 329.062 244.549 323.1 249.789 317.16L265.584 299.369L281.584 281.655C286.94 275.76 292.357 269.887 297.818 264.031Z" fill="black"/>
</g>
<path d="M336.262 326.777H329.534V336.278H336.262V326.777Z" fill="white"/>
<path d="M0 423.108L52.137 422.865L104.274 422.777L208.548 422.609L312.822 422.776L364.959 422.863L417.096 423.108L364.959 423.353L312.822 423.441L208.548 423.607L104.274 423.44L52.137 423.351L0 423.108Z" fill="#263238"/>
<path d="M246.783 138.085C247.349 138.428 247.914 138.783 248.476 139.149" stroke="#263238" stroke-width="0.75" stroke-miterlimit="10"/>
<path d="M251.807 141.46C269.896 154.841 283.982 179.172 268.216 202.947C258.931 216.95 243.19 211.184 237.762 206.165C231.767 200.621 237.283 194.945 243.271 198.739C253.652 205.317 255.111 220.538 243.609 231.791C236.114 239.124 226.366 239.583 221.001 239.152" stroke="#263238" stroke-width="0.75" stroke-miterlimit="10" stroke-dasharray="4.05 4.05"/>
<path d="M218.99 238.932C217.747 238.756 217.024 238.577 217.024 238.577" stroke="#263238" stroke-width="0.75" stroke-miterlimit="10"/>
<path d="M208.851 237.811C208.38 241.844 216.55 244.051 217.165 238.783C217.781 233.514 209.322 233.778 208.851 237.811Z" fill="#263238"/>
<path d="M219.579 244.426C218.818 245.941 216.132 246.147 213.352 244.215C210.572 242.283 208.65 238.938 208.65 238.938C208.65 238.938 212.484 238.474 215.694 239.551C218.905 240.627 220.344 242.904 219.579 244.426Z" fill="#EBEBEB"/>
<path d="M208.65 238.937C210.228 239.645 211.775 240.416 213.325 241.182C214.865 241.967 216.407 242.747 217.918 243.591C216.339 242.883 214.793 242.112 213.243 241.346C211.703 240.561 210.161 239.781 208.65 238.937Z" fill="#263238"/>
<path d="M215.91 244.398C215.548 243.986 215.245 243.536 214.937 243.088C214.647 242.629 214.352 242.173 214.117 241.678C214.48 242.089 214.782 242.54 215.09 242.988C215.379 243.447 215.674 243.903 215.91 244.398Z" fill="#263238"/>
<path d="M212.534 240.888C213.087 240.732 213.65 240.646 214.212 240.553C214.777 240.482 215.342 240.406 215.916 240.4C215.363 240.557 214.8 240.643 214.238 240.734C213.673 240.805 213.109 240.881 212.534 240.888Z" fill="#263238"/>
<path d="M211.68 241.547C211.491 241.339 211.366 241.099 211.235 240.862C211.124 240.615 211.007 240.371 210.954 240.095C211.143 240.303 211.268 240.543 211.399 240.78C211.511 241.027 211.627 241.271 211.68 241.547Z" fill="#263238"/>
<path d="M220.871 233.961C220.48 232.311 217.914 231.491 214.763 232.73C211.612 233.969 208.971 236.781 208.971 236.781C208.971 236.781 212.595 238.116 215.967 237.809C219.339 237.502 221.264 235.618 220.871 233.961Z" fill="#EBEBEB"/>
<path d="M208.971 236.781C210.67 236.456 212.353 236.062 214.038 235.674C215.717 235.265 217.398 234.862 219.062 234.389C217.363 234.713 215.68 235.107 213.995 235.496C212.316 235.905 210.636 236.309 208.971 236.781Z" fill="#263238"/>
<path d="M217.294 233.141C216.847 233.458 216.448 233.827 216.045 234.191C215.657 234.571 215.265 234.947 214.922 235.374C215.37 235.057 215.768 234.688 216.171 234.324C216.559 233.944 216.951 233.568 217.294 233.141Z" fill="#263238"/>
<path d="M213.2 235.779C213.702 236.058 214.23 236.272 214.756 236.491C215.29 236.69 215.821 236.895 216.379 237.033C215.877 236.753 215.349 236.54 214.823 236.321C214.29 236.122 213.758 235.918 213.2 235.779Z" fill="#263238"/>
<path d="M212.522 234.941C212.291 235.1 212.113 235.304 211.931 235.505C211.766 235.719 211.596 235.93 211.481 236.187C211.713 236.028 211.89 235.824 212.072 235.623C212.237 235.408 212.406 235.197 212.522 234.941Z" fill="#263238"/>
<path d="M208.851 237.811C209.654 237.905 210.23 238.632 210.136 239.436C210.042 240.239 209.315 240.814 208.511 240.721C207.708 240.627 207.133 239.9 207.226 239.096C207.32 238.292 208.048 237.717 208.851 237.811Z" fill="#455A64"/>
<path d="M209.191 234.901C209.994 234.995 210.57 235.722 210.476 236.526C210.382 237.33 209.655 237.904 208.851 237.811C208.048 237.717 207.473 236.99 207.566 236.186C207.66 235.383 208.388 234.807 209.191 234.901Z" fill="#455A64"/>
<path d="M118.518 331.97C118.518 331.97 97.2299 374.664 97.2219 374.696C95.4599 383.514 94.074 391.277 93.731 395.36C93.726 395.381 93.721 395.403 93.727 395.426C93.596 396.966 93.616 397.97 93.833 398.28C93.849 398.306 93.855 398.33 93.874 398.346C96.144 400.648 166.206 416.779 168.839 416.519C171.48 416.272 170.938 408.735 168.719 405.94C166.478 403.14 142.426 384.969 142.426 384.969L163.273 342.21L118.518 331.97Z" fill="#EB9481"/>
<path d="M167.778 416.521C165.148 416.776 96.1409 400.644 93.8779 398.348C93.8559 398.326 93.8449 398.304 93.8339 398.281C93.6119 397.97 93.6009 396.961 93.7229 395.43C93.7229 395.397 93.7229 395.386 93.7339 395.364C94.0779 391.281 95.4649 383.515 97.2179 374.694C97.2179 374.683 99.9529 369.219 102.316 364.47L146.512 376.592L142.429 384.968C142.429 384.968 165.426 403.142 167.656 405.937C169.886 408.733 170.419 416.266 167.778 416.521Z" fill="#EBEBEB"/>
<path d="M168.733 415.4C166.069 415.602 95.8409 397.697 93.6029 395.316C92.7359 394.426 94.7489 384.041 97.5409 371.563C97.5719 371.433 97.6019 371.303 97.6319 371.173L143.069 382.218L142.855 382.983C142.855 382.983 166.671 401.859 168.858 404.737C171.025 407.6 171.395 415.209 168.733 415.4Z" fill="#263238"/>
<path d="M168.632 412.474C156.868 409.165 109.106 396.93 97.2259 394.553C97.1289 394.534 97.1119 394.599 97.2069 394.627C108.796 398.161 156.655 410.009 168.583 412.667C168.835 412.724 168.88 412.544 168.632 412.474Z" fill="white"/>
<path d="M146.627 384.089C142.19 382.032 136.31 381.294 131.904 383.706C131.733 383.799 131.869 384.04 132.032 384.032C136.998 383.755 141.527 383.919 146.459 384.673C146.806 384.726 146.945 384.236 146.627 384.089Z" fill="white"/>
<path d="M149.473 386.973C145.036 384.916 139.156 384.179 134.75 386.59C134.579 386.683 134.715 386.925 134.878 386.915C139.844 386.638 144.373 386.802 149.304 387.556C149.652 387.61 149.791 387.12 149.473 386.973Z" fill="white"/>
<path d="M152.319 389.857C147.882 387.8 142.002 387.062 137.596 389.474C137.425 389.567 137.56 389.808 137.724 389.799C142.689 389.522 147.219 389.686 152.15 390.44C152.498 390.493 152.636 390.004 152.319 389.857Z" fill="white"/>
<path d="M170.447 413.156C171.581 413.961 170.233 418.113 169.239 418.22C168.245 418.327 91.7589 398.467 90.5319 397.844C89.3039 397.22 90.974 392.673 92.546 392.819C94.118 392.963 170.447 413.156 170.447 413.156Z" fill="#088178"/>
<path d="M107.221 381.994C102.779 378.15 96.7979 385.048 101.247 388.898C105.69 392.742 111.671 385.844 107.221 381.994Z" fill="white"/>
<path d="M102.47 361.056L153.707 373.978C153.707 373.978 201.469 287.786 200.4 265.88C198.924 235.626 163.443 142.736 163.443 142.736H120.966C120.966 142.736 149.161 243.188 149.525 260.087C149.715 268.927 102.47 361.056 102.47 361.056Z" fill="#455A64"/>
<path d="M155.898 363.584C153.168 362.493 128.776 355.45 110.583 351.605C110.461 351.579 110.427 351.751 110.54 351.791C116.272 353.816 152.426 363.32 155.822 363.788C155.934 363.803 156.021 363.634 155.898 363.584Z" fill="#263238"/>
<path d="M153.064 238.512C149.687 224.332 146.122 210.193 142.268 196.135C138.397 182.014 134.395 167.913 129.931 153.967C129.386 152.264 128.823 150.566 128.265 148.867C128.179 148.605 127.778 148.725 127.855 148.991C131.83 162.874 135.875 176.739 139.651 190.678C143.427 204.616 147.049 218.597 150.453 232.631C151.296 236.106 152.126 239.584 152.943 243.065C153.787 246.659 154.694 250.262 155.114 253.936C155.517 257.466 155.316 260.963 154.412 264.402C153.524 267.778 152.095 270.975 150.639 274.137C144.511 287.439 138.365 300.732 132.265 314.047C126.152 327.39 125.156 330.426 119.296 343.883C118.569 345.552 117.841 347.219 117.142 348.9C117.096 349.011 117.252 349.104 117.309 348.992C124.009 335.811 125.043 332.634 131.263 319.222C137.521 305.727 143.764 292.224 149.976 278.708C152.778 272.612 156.069 266.391 156.488 259.569C156.923 252.479 154.69 245.339 153.064 238.512Z" fill="#263238"/>
<path d="M155.384 348.855C155.384 348.855 157.029 395.85 157.028 395.882C157.295 404.871 157.69 412.746 158.274 416.802C158.274 416.824 158.274 416.846 158.284 416.868C158.503 418.398 158.748 419.372 159.03 419.625C159.052 419.647 159.063 419.669 159.084 419.68C161.813 421.413 233.709 421.371 236.215 420.526C238.732 419.691 236.509 412.469 233.718 410.245C230.905 408.02 203.382 395.725 203.382 395.725L201.292 348.766L155.384 348.855Z" fill="#EB9481"/>
<path d="M156.692 386.234C156.692 386.234 157.029 395.849 157.029 395.882C157.296 404.871 157.691 412.746 158.275 416.802C158.275 416.824 158.275 416.846 158.285 416.868C158.592 418.377 158.858 419.372 159.031 419.625C159.053 419.647 159.064 419.669 159.085 419.68C161.814 421.413 233.71 421.371 236.216 420.526C238.733 419.691 236.51 412.469 233.719 410.245C230.906 408.02 203.383 395.725 203.383 395.725L203.175 385.929L156.692 386.234Z" fill="#EBEBEB"/>
<path d="M236.252 420.436C233.708 421.25 161.242 420.126 158.512 418.329C157.463 417.664 157.011 407.096 156.832 394.31C156.832 394.176 156.831 394.043 156.831 393.909L203.591 394.112L203.561 394.905C203.561 394.905 231.106 407.742 233.902 410.034C236.673 412.318 238.797 419.634 236.252 420.436Z" fill="#263238"/>
<path d="M235.476 417.614C223.265 417.125 173.968 416.303 161.861 416.747C161.762 416.751 161.761 416.818 161.86 416.824C173.952 417.573 223.255 417.996 235.474 417.814C235.731 417.81 235.733 417.624 235.476 417.614Z" fill="white"/>
<path d="M207.486 395.108C202.693 394.136 196.802 394.783 193.076 398.151C192.931 398.281 193.119 398.484 193.276 398.438C198.042 397.017 202.485 396.126 207.458 395.715C207.808 395.686 207.829 395.177 207.486 395.108Z" fill="white"/>
<path d="M210.923 397.253C206.13 396.281 200.239 396.928 196.513 400.296C196.368 400.426 196.557 400.63 196.712 400.583C201.478 399.162 205.922 398.271 210.894 397.86C211.245 397.831 211.266 397.322 210.923 397.253Z" fill="white"/>
<path d="M214.361 399.398C209.568 398.426 203.677 399.073 199.951 402.441C199.806 402.571 199.994 402.774 200.151 402.728C204.917 401.307 209.36 400.416 214.333 400.005C214.682 399.976 214.704 399.467 214.361 399.398Z" fill="white"/>
<path d="M237.399 417.856C238.689 418.376 238.341 422.727 237.399 423.062C236.458 423.397 157.451 421.822 156.112 421.5C154.773 421.178 155.342 416.368 156.906 416.145C158.468 415.921 237.399 417.856 237.399 417.856Z" fill="#088178"/>
<path d="M168.669 402.211C163.456 399.502 159.238 407.599 164.46 410.312C169.673 413.021 173.891 404.924 168.669 402.211Z" fill="white"/>
<path d="M162.918 142.695C162.918 142.695 162.918 142.706 162.907 142.739C162.721 143.612 152.129 185.478 150.808 186.264C149.312 187.148 189.287 240.94 194.032 267.347C197.067 284.237 203.978 382.687 203.978 382.687H153.061C153.061 382.687 148.071 299.085 146.398 271.529C145.75 260.843 105.644 211.419 101.839 178.473C100.639 168.089 108.098 142.695 108.098 142.695H162.918Z" fill="#455A64"/>
<path d="M151.771 342.829C151.166 328.976 150.614 315.099 149.605 301.269C149.033 293.434 147.916 285.845 147.136 278.027C147.095 277.617 146.764 277.52 146.775 277.942C147.137 291.855 148.283 305.611 149.029 319.508C149.773 333.363 150.477 336.65 151.263 350.502C151.708 358.342 152.093 366.185 152.704 374.013C152.713 374.135 152.894 374.132 152.894 374.008C152.926 360.096 152.379 356.726 151.771 342.829Z" fill="#263238"/>
<path d="M194.092 267.933C193.607 264.286 192.99 260.641 191.964 257.104C190.96 253.644 189.493 250.346 187.833 247.155C184.366 240.491 180.414 234.051 176.606 227.578C172.749 221.02 168.83 214.501 164.808 208.043C162.548 204.413 160.277 200.79 157.992 197.174C155.681 193.517 153.23 189.944 150.833 186.342C150.738 186.199 150.518 186.334 150.606 186.483C154.505 193.017 158.364 199.574 162.263 206.109C166.161 212.643 170.005 219.21 173.851 225.775C177.633 232.232 181.422 238.695 185.035 245.249C186.767 248.39 188.411 251.588 189.625 254.97C190.87 258.437 191.617 262.051 192.199 265.681C193.554 274.148 194.666 282.667 196.373 291.074C196.394 291.179 196.567 291.151 196.559 291.044C196.026 283.328 195.112 275.6 194.092 267.933Z" fill="#263238"/>
<path d="M199.52 373.869C196.604 373.49 174.399 372.724 155.82 373.516C155.695 373.521 155.704 373.696 155.825 373.706C161.88 374.244 196.091 374.474 199.496 374.084C199.609 374.072 199.652 373.886 199.52 373.869Z" fill="#263238"/>
<path d="M157.471 183.317C152.264 185.109 147.239 187.653 142.434 190.32C142.246 190.424 142.37 190.717 142.574 190.629C147.639 188.454 152.805 186.372 157.744 183.921C158.132 183.729 157.87 183.179 157.471 183.317Z" fill="#263238"/>
<path d="M158.996 148.622C158.982 148.447 158.675 148.408 158.676 148.597C158.717 154.611 158.334 159.901 157.826 165.521C157.591 168.13 155.492 182.549 150.967 181.498C150.21 181.322 149.823 180.576 149.704 179.434C149.561 178.061 150.078 176.377 150.305 175.012C150.807 171.994 151.211 168.965 151.47 165.916C151.954 160.224 151.978 154.532 151.286 148.858C151.263 148.672 150.994 148.686 150.994 148.874C151.001 156.753 150.795 164.618 149.616 172.421C149.05 176.171 147.161 181.818 151.083 182.395C155.079 182.983 157.663 173.525 158.15 170.938C159.513 163.721 159.566 155.926 158.996 148.622Z" fill="#263238"/>
<path d="M151.088 181.887C150.679 182.855 150.35 183.863 150.071 184.876C149.854 185.663 149.558 186.513 149.648 187.333C149.665 187.492 149.876 187.507 149.961 187.4C150.491 186.727 150.716 185.807 151.012 185.009C151.356 184.085 151.72 183.167 152.038 182.233C152.249 181.613 151.34 181.29 151.088 181.887Z" fill="#263238"/>
<path d="M153.213 284.886C152.742 277.773 152.767 270.258 149.742 263.655C148.242 260.38 146.169 257.419 144.199 254.417C142.129 251.262 140.091 248.084 138.08 244.89C130.04 232.117 122.362 219.092 115.327 205.736C111.939 199.305 108.819 192.666 107.117 185.567C105.335 178.14 105.265 170.361 106.192 162.807C106.424 160.919 106.682 159.037 107 157.161C107.023 157.024 106.817 156.969 106.787 157.108C105.26 164.332 104.459 171.758 105.114 179.136C105.745 186.244 108.007 192.977 110.985 199.424C114.087 206.138 117.775 212.598 121.413 219.032C125.163 225.665 129.023 232.236 133.003 238.734C136.963 245.199 141.127 251.528 145.257 257.884C147.256 260.96 149.115 264.129 150.129 267.68C151.161 271.295 151.441 275.06 151.683 278.795C152.702 294.538 156.698 346.864 158.103 362.526C158.281 364.514 158.46 366.502 158.643 368.49C158.659 368.665 158.926 368.663 158.919 368.483C158.313 352.778 154.252 300.578 153.213 284.886Z" fill="#263238"/>
<path d="M128.751 156.459C128.732 156.348 128.568 156.388 128.565 156.489C128.419 160.864 128.542 165.375 126.86 169.504C125.316 173.292 122.219 175.95 118.75 177.944C116.745 179.096 114.635 180.06 112.522 180.995C112.37 181.062 112.43 181.304 112.599 181.25C116.635 179.971 120.729 178.58 124.076 175.897C127.66 173.024 129.226 168.854 129.403 164.347C129.505 161.698 129.195 159.064 128.751 156.459Z" fill="#263238"/>
<path d="M150.943 85.2312C156.654 102.793 172.11 132.704 177.631 136.309C182.52 139.502 205.532 135.937 215.595 133.509C219.361 132.601 210.896 103.937 206.89 104.989C202.083 106.251 187.748 109.476 186.706 108.685C185.561 107.817 171.22 90.0802 160.976 79.6052C151.689 70.1092 148.783 78.5882 150.943 85.2312Z" fill="#EB9481"/>
<path d="M213.418 133.732C215.349 133.487 231.679 132.748 239.172 128.659C243.14 126.494 253.375 119.311 252.36 116.733C251.433 114.379 248.144 115.658 248.144 115.658C248.144 115.658 252.66 112.389 251.334 109.132C250.007 105.875 244.57 108.32 244.57 108.32C244.57 108.32 248.963 104.625 247.408 101.471C245.852 98.3172 240.797 101.691 240.797 101.691C240.797 101.691 244.971 98.5002 242.596 96.4412C239.739 93.9642 232.708 100.717 227.962 102.302C226.884 102.662 205.596 108.041 205.596 108.041L213.418 133.732Z" fill="#EB9481"/>
<path d="M240.616 101.597C235.433 106.551 232.309 107.822 225.391 109.222C225.256 109.249 225.266 109.457 225.41 109.441C232.309 108.686 236.458 107.657 240.869 101.835C241.084 101.551 240.862 101.362 240.616 101.597Z" fill="#263238"/>
<path d="M244.399 108.201C238.567 112.876 235.19 114.285 228.053 116.284C227.952 116.312 227.989 116.486 228.094 116.466C235.26 115.09 239.375 113.968 244.589 108.532C244.825 108.286 244.666 107.987 244.399 108.201Z" fill="#263238"/>
<path d="M247.796 115.745C241.823 119.864 238.187 121.568 231.009 122.62C230.84 122.645 230.859 122.894 231.032 122.886C238.456 122.525 243.008 120.433 247.902 115.941C248.235 115.633 248.172 115.485 247.796 115.745Z" fill="#263238"/>
<path d="M200.02 108.963C200.02 108.963 205.967 102.231 209.233 99.8491C212.498 97.4681 227.933 93.0722 229.072 96.3522C230.542 100.587 222.132 104.88 217.738 106.444C217.738 106.444 221.148 116.236 215.778 120.623C210.408 125.01 200.02 108.963 200.02 108.963Z" fill="#EB9481"/>
<path d="M229.094 97.6482C227.649 102.477 221.749 104.158 217.6 105.994C217.284 106.134 217.286 106.436 217.44 106.657C218.595 110.857 219.002 117.118 216.06 120.651C215.974 120.754 216.109 120.891 216.21 120.799C219.879 117.437 219.982 111.254 218.422 106.735C222.706 104.919 228.55 102.973 229.142 97.6602C229.144 97.6302 229.103 97.6182 229.094 97.6482Z" fill="#263238"/>
<path d="M213.411 138.675L205.865 104.334L187.208 107.72C179.853 99.2912 165.139 82.4412 159.177 77.3782C152.183 71.4372 147.601 75.9062 150.168 84.8962C156.038 105.459 173.085 135.615 177.58 138.509C184.02 142.654 213.411 138.675 213.411 138.675Z" fill="#088178"/>
<path opacity="0.1" d="M186.768 118.162C187.631 118.464 188.68 118.368 189.579 118.492C191.552 118.763 192.458 121.71 190.643 122.828C188.691 124.029 186.346 124.218 184.194 123.38C182.186 122.598 180.506 120.66 180.935 118.402C181.311 116.422 183.358 115.856 184.929 116.858C185.57 117.267 186.041 117.907 186.768 118.162ZM181.609 109.989C180.89 113.395 186.144 116.308 188.837 114.497C189.802 113.849 189.768 112.368 188.905 111.665C188.121 111.027 187.458 110.928 186.758 110.348C186.416 110.065 186.487 110.122 186.121 109.677C185.666 109.123 185.275 108.704 184.628 108.344C183.328 107.621 181.875 108.731 181.609 109.989ZM173.216 110.17C172.133 111.577 172.951 113.701 173.899 114.979C174.836 116.242 176.229 117.059 177.831 116.889C179.036 116.761 179.574 115.082 178.572 114.332C177.946 113.863 177.46 113.232 177.172 112.585C176.702 111.53 176.384 110.161 175.202 109.696C174.523 109.428 173.681 109.567 173.216 110.17ZM195.367 132.408C193.959 135.262 198.249 138.5 200.852 137.938C201.721 137.75 202.562 136.607 201.787 135.789C201.166 135.134 200.426 134.607 199.847 133.91C199.141 133.06 198.752 131.966 197.64 131.541C196.747 131.2 195.797 131.535 195.367 132.408ZM155.088 97.4602C154.848 97.0102 154.518 96.5702 154.108 96.2502C154.668 97.6802 155.258 99.1201 155.878 100.56C155.998 99.5101 155.528 98.3202 155.088 97.4602ZM160.653 94.4472C160.583 91.9802 159.384 89.6522 157.897 87.7372C156.698 86.1942 154.623 83.7122 152.42 84.2662C151.9 84.3972 151.662 84.8832 151.622 85.3682C151.482 87.0582 153.422 88.8742 154.255 90.2192C155.309 91.9222 156.051 93.8032 157.129 95.4862C158.142 97.0702 160.708 96.3802 160.653 94.4472ZM160.004 105.203C160.799 105.144 161.499 104.618 161.689 103.824C161.88 103.028 161.76 102.269 161.539 101.493C161.357 100.856 161.032 100.013 160.494 99.5852C159.678 98.9392 158.424 99.1612 158.157 100.275C158.022 100.839 158.122 101.462 158.136 102.038C158.142 102.292 158.129 102.544 158.115 102.798C158.095 103.182 158.173 103.546 158.237 103.924C158.362 104.665 159.285 105.257 160.004 105.203Z" fill="#030402"/>
<path d="M206.879 135.661C206.021 133.632 203.909 124.778 203.407 122.567C202.915 120.401 201.193 111.419 200.685 109.146C200.657 109.022 200.826 108.946 200.856 109.072C201.397 111.313 203.812 120.128 204.335 122.333C204.859 124.545 206.859 133.399 206.994 135.63C206.998 135.706 206.907 135.726 206.879 135.661Z" fill="#263238"/>
<path opacity="0.1" d="M189.565 140.384C184.318 140.355 179.711 139.879 177.583 138.508C173.084 135.612 156.039 105.458 150.17 84.8961C148.693 79.7361 149.577 76.0631 151.919 74.9941L189.565 140.384Z" fill="black"/>
<path d="M104.93 147.371C105.056 147.557 167.456 155.562 168.125 154.984C168.371 154.769 168.88 149.717 168.88 149.717C168.88 149.717 163.16 81.7792 160.199 77.7952C157.608 74.3102 149.754 71.7961 144.401 74.0651C133.17 78.8251 106.28 139.526 106.57 142.029C106.57 142.027 104.771 147.132 104.93 147.371Z" fill="#088178"/>
<path opacity="0.1" d="M127.425 139.1C128.286 139.664 129.458 139.844 130.406 140.222C132.488 141.053 132.679 144.518 130.393 145.247C127.935 146.031 125.322 145.602 123.198 144.103C121.216 142.704 119.907 140.132 120.987 137.782C121.934 135.721 124.324 135.657 125.769 137.178C126.359 137.798 126.7 138.625 127.425 139.1ZM124.005 128.773C122.296 132.299 127.247 136.905 130.679 135.657C131.909 135.21 132.273 133.584 131.521 132.582C130.837 131.672 130.139 131.385 129.532 130.561C129.235 130.159 129.297 130.241 129.018 129.655C128.671 128.927 128.357 128.363 127.749 127.795C126.524 126.652 124.636 127.47 124.005 128.773ZM118.23 125.013C116.358 125.712 115.875 128.228 116.021 130.015C116.164 131.779 117.009 133.389 118.64 134.18C119.868 134.775 121.38 133.491 120.87 132.178C120.551 131.358 120.463 130.465 120.572 129.676C120.751 128.388 121.262 126.891 120.409 125.743C119.92 125.081 119.034 124.712 118.23 125.013ZM138.73 136.912C137.743 136.784 136.82 137.517 136.685 138.496C136.54 139.551 137.262 140.48 138.238 140.806C138.97 141.051 139.601 141.025 140.335 140.817C140.682 140.719 140.973 140.388 141.145 140.094C141.33 139.777 141.444 139.385 141.377 139.013C141.255 138.329 140.725 137.679 140.01 137.568C139.945 137.494 139.876 137.421 139.787 137.351C139.479 137.105 139.12 136.963 138.73 136.912ZM123.394 112.78C121.722 114.502 122.437 118.411 124.315 119.726C125.401 120.486 126.985 119.949 127.161 118.556C127.22 118.094 127.192 117.819 127.183 117.371C127.174 116.942 127.132 116.665 127.146 116.415C127.193 115.578 127.427 114.644 127.235 113.824C126.79 111.93 124.728 111.406 123.394 112.78ZM112.557 137.62C110.246 140.357 114.055 145.057 117.051 145.148C118.051 145.179 119.279 144.157 118.654 143.054C118.153 142.17 117.487 141.394 117.044 140.476C116.503 139.356 116.375 138.055 115.275 137.29C114.392 136.674 113.264 136.783 112.557 137.62ZM167.728 136.75C167.038 136.86 166.388 137.32 166.148 138.19C165.828 139.3 165.788 140.29 164.958 141.16C164.118 142.03 163.128 142.57 162.508 143.64C161.968 144.55 162.768 145.9 163.848 145.78C165.578 145.6 167.188 144.67 168.318 143.34C168.158 141.46 167.958 139.23 167.728 136.75ZM162.701 128.502C162.136 129.862 162.239 131.402 161.772 132.824C161.353 134.101 160.859 135.427 160.293 136.644C159.878 137.537 160.717 138.964 161.809 138.479C163.63 137.671 164.979 136.604 165.87 134.769C166.631 133.2 167.47 130.564 166.738 128.886C166.067 127.348 163.519 126.534 162.701 128.502ZM156.999 142.129C156.113 143.117 155.139 144.165 153.887 144.683C152.702 145.172 151.998 146.353 152.57 147.612C153.151 148.892 154.471 149.083 155.641 148.549C157.733 147.593 159.337 145.917 159.979 143.693C160.469 141.997 158.125 140.874 156.999 142.129ZM147.855 93.1311C149.033 93.3251 150.146 92.7111 150.459 91.5131C151.022 89.3581 149.098 87.1471 147.577 85.8051C146.009 84.4221 143.914 83.2461 141.791 83.9391C140.445 84.3781 140.284 85.8351 141.082 86.8331C142.009 87.9931 143.298 88.8441 144.288 89.9691C145.358 91.1851 146.114 92.8451 147.855 93.1311ZM155.5 101.608C156.338 100.397 155.69 98.6211 155.086 97.4611C154.766 96.8461 154.276 96.2821 153.662 95.9421C152.835 95.4841 151.574 95.5421 151.097 96.4921C150.788 97.1081 150.816 97.6671 150.978 98.3121C151.059 98.6351 151.179 98.9061 151.314 99.2161C151.333 99.2591 151.346 99.2871 151.356 99.3081C151.362 99.3301 151.37 99.3561 151.38 99.3891C151.666 100.317 151.847 101.349 152.555 102.061C153.49 103.002 154.834 102.572 155.5 101.608ZM160.653 94.4471C160.583 91.9801 159.384 89.6521 157.897 87.7371C156.698 86.1941 154.623 83.7121 152.42 84.2661C151.9 84.3971 151.662 84.8831 151.622 85.3681C151.482 87.0581 153.422 88.8741 154.255 90.2191C155.309 91.9221 156.051 93.8031 157.129 95.4861C158.142 97.0701 160.708 96.3801 160.653 94.4471ZM153.103 111.566C153.476 111.636 153.853 111.625 154.222 111.533C154.789 111.392 155.225 110.952 155.526 110.479C155.839 109.987 155.888 109.31 155.914 108.747C155.941 108.16 155.708 107.65 155.463 107.135C155.354 106.998 155.245 106.862 155.136 106.725C154.99 106.618 154.844 106.511 154.698 106.404C154.302 106.189 153.853 106.129 153.413 106.2C152.615 106.328 151.951 106.924 151.759 107.722C151.617 108.312 151.444 108.89 151.41 109.5C151.44 109.684 151.469 109.869 151.499 110.053C151.571 110.336 151.705 110.581 151.902 110.788C152.198 111.156 152.626 111.476 153.103 111.566ZM160.004 105.203C160.799 105.144 161.499 104.618 161.689 103.824C161.88 103.028 161.76 102.269 161.539 101.493C161.357 100.856 161.032 100.013 160.494 99.5851C159.678 98.9391 158.424 99.1611 158.157 100.275C158.022 100.839 158.122 101.462 158.136 102.038C158.142 102.292 158.129 102.544 158.115 102.798C158.095 103.182 158.173 103.546 158.237 103.924C158.362 104.665 159.285 105.257 160.004 105.203Z" fill="#030402"/>
<path d="M156.556 88.4402C152.744 88.0902 147.865 79.9532 146.938 74.7752C146.877 74.4202 148.396 71.4132 150.07 67.6722C151.077 65.3982 152.144 62.8422 152.95 60.4402L166.791 69.1542C166.791 69.1542 163.621 73.6932 162.242 77.8912C162.131 78.2432 162.056 78.5802 162.015 78.9122C162.005 78.9592 162 79.0182 161.982 79.0832C161.658 81.0582 160.241 88.7752 156.556 88.4402Z" fill="#EB9481"/>
<path d="M162.011 78.9142C162 78.9572 161.996 79.0142 161.979 79.0782C161.484 78.9932 160.961 78.8442 160.403 78.6512C151.748 75.5302 153.274 64.1692 153.883 61.0322L157.341 63.2082L166.789 69.1582C166.789 69.1582 163.616 73.6972 162.244 77.8962C162.13 78.2442 162.053 78.5802 162.011 78.9142Z" fill="#263238"/>
<path d="M154.387 44.4072C151.527 49.5582 151.032 66.1002 154.193 70.4882C158.775 76.8492 167.973 79.3302 173.805 73.4352C179.459 67.7202 179.721 46.1512 176.033 41.9892C170.601 35.8602 158.612 36.7982 154.387 44.4072Z" fill="#EB9481"/>
<path d="M167.67 57.7811C167.663 57.7381 167.579 57.8321 167.579 57.8791C167.576 59.0181 167.381 60.3211 166.339 60.6641C166.307 60.6741 166.308 60.7321 166.347 60.7281C167.608 60.5941 167.849 58.8611 167.67 57.7811Z" fill="#263238"/>
<path d="M166.694 56.5592C164.87 56.3582 164.6 60.0221 166.291 60.2081C167.955 60.3921 168.224 56.7282 166.694 56.5592Z" fill="#263238"/>
<path d="M174.228 58.1691C174.24 58.1271 174.313 58.2301 174.307 58.2761C174.18 59.4081 174.226 60.7251 175.222 61.1841C175.253 61.1981 175.245 61.2551 175.207 61.2471C173.969 60.9711 173.927 59.2211 174.228 58.1691Z" fill="#263238"/>
<path d="M175.336 57.0661C177.172 57.0731 177.022 60.7441 175.321 60.7381C173.647 60.7311 173.797 57.0601 175.336 57.0661Z" fill="#263238"/>
<path d="M168.175 55.8222C167.67 55.9302 167.187 55.9451 166.677 56.0001C166.101 56.0621 165.649 56.1712 165.114 55.8902C164.827 55.7402 164.691 55.2831 164.811 54.9911C165.09 54.3101 165.776 54.0591 166.466 53.9561C167.214 53.8441 167.82 53.9492 168.469 54.3352C169.1 54.7092 168.84 55.6802 168.175 55.8222Z" fill="#263238"/>
<path d="M176.975 53.6581C176.473 53.5381 176.03 53.3431 175.546 53.1731C175 52.9811 174.545 52.8841 174.184 52.4011C173.99 52.1421 174.064 51.6722 174.298 51.4592C174.843 50.9652 175.571 51.0342 176.237 51.2382C176.96 51.4602 177.462 51.8161 177.882 52.4441C178.289 53.0521 177.637 53.8161 176.975 53.6581Z" fill="#263238"/>
<path d="M166.838 66.7962C168.316 66.3222 170.154 66.6302 171.315 66.8542C171.447 66.8432 171.583 66.5932 171.613 66.4712V66.4632C171.615 66.4222 171.7 64.0602 171.7 64.0602C172.005 64.2392 173.566 65.0702 173.57 64.6172C173.595 60.8672 173.625 56.6962 172.858 52.9592C172.839 52.8342 172.649 52.8502 172.651 52.9742C172.484 56.5782 172.951 60.1862 172.84 63.8082C172.339 63.5792 171.526 63.1622 171.074 63.1412C170.949 63.1682 171.112 65.6902 171.045 66.0752C171.045 66.0752 168.8 65.2362 166.851 66.3022C166.347 66.5772 166.133 67.0222 166.838 66.7962Z" fill="#263238"/>
<path d="M163.875 69.1812C164.128 69.4612 164.375 69.8401 164.781 69.8991C165.17 69.9561 165.64 69.8071 166.008 69.6901C166.044 69.6791 166.078 69.7182 166.053 69.7512C165.734 70.1652 165.103 70.3981 164.588 70.2741C164.084 70.1541 163.859 69.6982 163.764 69.2252C163.75 69.1592 163.838 69.1402 163.875 69.1812Z" fill="#263238"/>
<path opacity="0.2" d="M159.215 39.1581C159.07 41.7351 158.458 49.6951 157.22 51.3211C156.041 52.8791 153.361 56.7091 152.025 57.2971C152.21 51.9861 153.026 46.9371 154.402 44.3261C155.536 42.1521 157.225 40.4181 159.215 39.1581Z" fill="#263238"/>
<path d="M173.465 46.9531C172.039 48.3811 169.975 49.0191 167.997 48.5531C166.071 48.0991 164.232 46.6151 163.667 44.6771C163.65 44.6191 163.56 44.6461 163.577 44.7031C164.182 46.7751 165.7 48.5551 167.882 49.0141C169.929 49.4451 172.219 48.6511 173.568 47.0541C173.628 46.9841 173.531 46.8871 173.465 46.9531Z" fill="#263238"/>
<path d="M168.448 32.1251C165.062 31.9591 161.826 33.6101 160.427 35.8261C159.577 37.1721 159.363 38.5841 159.488 40.0451C159.493 40.1041 159.615 40.1011 159.614 40.0411C159.582 37.7381 160.898 35.2111 163.463 33.7871C165.928 32.4191 169.088 32.1661 171.724 33.3841C173.1 34.0201 174.181 34.9981 174.691 36.1331C174.748 36.2601 175.007 36.1982 174.962 36.0702C174.195 33.8952 171.513 32.2751 168.448 32.1251Z" fill="#263238"/>
<path d="M187.562 40.8462C187.147 39.1442 186.085 37.6342 184.67 36.6132C182.687 35.1822 180.328 35.2052 177.985 35.2762C177.921 35.2782 177.924 35.3772 177.987 35.3752C179.982 35.3212 182.009 35.3832 183.765 36.4442C185.196 37.3092 186.349 38.6652 186.901 40.2512C188.047 43.5422 186.469 47.4122 183.313 48.9122C181.526 49.7612 179.384 49.8282 177.55 49.0892C177.478 49.0602 177.416 49.1652 177.489 49.1972C180.834 50.6492 184.984 49.3722 186.779 46.1522C187.665 44.5622 187.996 42.6232 187.562 40.8462Z" fill="#263238"/>
<path d="M153.385 47.6381C153.385 47.6381 150.631 41.3531 153.577 38.0551C155.246 36.1861 160.271 36.8281 160.271 36.8281C160.271 36.8281 162.116 34.0501 166.366 33.4101C170.662 32.7631 175.494 35.6081 175.494 35.6081C175.494 35.6081 179.677 33.6161 183.27 36.0461C188.28 39.4351 187.022 47.3611 181.558 49.5271C177.721 51.0481 172.943 47.3921 172.943 47.3921C172.455 47.4211 167.28 50.0301 163.874 45.3321C163.874 45.3321 160.629 47.8051 158.043 45.7041C158.042 45.7011 156.453 48.3391 153.385 47.6381Z" fill="#263238"/>
<path d="M155.015 58.1101C155.015 58.1101 152.398 52.2432 149.803 53.0802C147.209 53.9172 148.481 61.9342 151.037 63.4902C153.593 65.0462 155.08 62.7092 155.08 62.7092L155.015 58.1101Z" fill="#EB9481"/>
<path d="M150.226 55.3681C150.183 55.3561 150.162 55.4161 150.197 55.4391C151.977 56.5941 152.648 58.5801 153.002 60.5741C152.566 59.7491 151.859 59.2061 150.77 59.7051C150.713 59.7311 150.746 59.8201 150.803 59.8181C151.627 59.8011 152.171 60.0481 152.583 60.7851C152.875 61.3061 153.024 61.9241 153.195 62.4941C153.252 62.6841 153.582 62.6521 153.554 62.4401C153.552 62.4241 153.549 62.4081 153.547 62.3921C154.07 59.9401 152.821 56.1261 150.226 55.3681Z" fill="#263238"/>
<path d="M293.648 69.7584L185.979 102.739L205.392 166.112L313.06 133.132L293.648 69.7584Z" fill="#088178"/>
<path opacity="0.2" d="M293.648 69.7584L185.979 102.739L205.392 166.112L313.06 133.132L293.648 69.7584Z" fill="black"/>
<path opacity="0.2" d="M293.642 69.7574L257.459 80.8408L276.872 144.216L313.055 133.132L293.642 69.7574Z" fill="black"/>
<path d="M291.885 72.9911C290.671 78.5971 289.484 84.2101 288.331 89.8321L284.914 106.71L281.617 123.62C280.533 129.261 279.483 134.911 278.46 140.568C279.675 134.963 280.862 129.35 282.015 123.728L285.43 106.85L288.726 89.9401C289.811 84.2971 290.861 78.6481 291.885 72.9911Z" fill="#088178"/>
<path d="M309.657 131.011C305.641 126.898 301.607 122.805 297.55 118.739L285.348 106.576L273.066 94.5061C268.961 90.4951 264.834 86.5101 260.689 82.5461C264.704 86.6601 268.739 90.7531 272.796 94.8181L284.997 106.981L297.28 119.05C301.385 123.062 305.512 127.047 309.657 131.011Z" fill="#088178"/>
<path d="M206.649 110.879L207.239 110.698L204.69 102.374L204.1 102.555L206.649 110.879Z" fill="#263238"/>
<path d="M205.248 111.334L205.838 111.153L203.288 102.831L202.698 103.011L205.248 111.334Z" fill="#263238"/>
<path d="M203.813 111.759L204.403 111.578L201.855 103.255L201.265 103.435L203.813 111.759Z" fill="#263238"/>
<path d="M202.394 112.206L202.984 112.025L200.436 103.701L199.846 103.882L202.394 112.206Z" fill="#263238"/>
<path d="M200.998 112.635L201.588 112.454L199.039 104.132L198.449 104.312L200.998 112.635Z" fill="#263238"/>
<path d="M199.582 113.069L200.171 112.888L197.622 104.565L197.032 104.746L199.582 113.069Z" fill="#263238"/>
<path d="M198.149 113.494L198.739 113.314L196.19 104.99L195.6 105.171L198.149 113.494Z" fill="#263238"/>
<path d="M196.742 113.935L197.332 113.755L194.781 105.432L194.191 105.613L196.742 113.935Z" fill="#263238"/>
<path d="M195.315 114.362L195.905 114.181L193.357 105.858L192.767 106.038L195.315 114.362Z" fill="#263238"/>
<path d="M210.68 101.25L208.215 101.314L213.546 99.6811L211.47 101.016L212.407 104.076C214.098 103.791 215.235 105.197 216.094 108.001L210.763 109.634C209.906 106.837 210.059 105.028 211.619 104.317L210.68 101.25Z" fill="#263238"/>
<path d="M216.036 103.375L217.427 102.949L216.18 98.8741L219.743 97.7831L220.991 101.857L222.389 101.429L220.51 106.648L216.036 103.375Z" fill="#263238"/>
<path opacity="0.1" d="M185.964 102.737L187.556 107.935L261.98 95.6641L257.442 80.8481L185.964 102.737Z" fill="black"/>
<path d="M326.989 140.316L290.803 151.4L276.852 144.216L313.038 133.132L326.989 140.316Z" fill="#088178"/>
<path opacity="0.2" d="M326.989 140.316L290.803 151.4L276.852 144.216L313.038 133.132L326.989 140.316Z" fill="black"/>
<path d="M197.84 179.875L234.026 168.791L241.56 155.026L205.373 166.11L197.84 179.875Z" fill="#088178"/>
<path opacity="0.1" d="M197.84 179.875L234.026 168.791L241.56 155.026L205.373 166.11L197.84 179.875Z" fill="black"/>
<path d="M138.278 92.9611C143.567 110.654 158.302 140.928 163.735 144.664C168.546 147.973 191.637 144.96 201.755 142.774C205.541 141.956 197.766 113.098 193.736 114.053C188.9 115.199 174.493 118.08 173.469 117.265C172.345 116.37 158.434 98.2941 148.443 87.5771C139.386 77.8611 136.277 86.2681 138.278 92.9611Z" fill="#EB9481"/>
<path d="M191.66 116.4C191.66 116.4 199.307 107.776 204.728 104.489C211.986 100.087 220.064 99.2752 223.47 99.1392C230.58 98.8552 247.966 103.085 247.621 108.305C247.309 113.03 229.756 107.809 229.756 107.809C229.756 107.809 248.531 110.179 247.11 115.8C245.688 121.42 225.656 114.2 225.656 114.2C225.656 114.2 244.893 117.068 242.51 122.632C240.709 126.837 222.198 121.32 222.198 121.32C222.198 121.32 238.715 123.899 237.05 128.303C235.209 133.17 217.803 129.149 217.803 129.149C211.685 139.631 204.484 142.119 199.15 143.279C197.858 143.56 191.66 116.4 191.66 116.4Z" fill="#EB9481"/>
<path d="M223.314 106.573C225.53 106.772 227.774 106.958 229.964 107.353C232.154 107.748 234.333 108.219 236.476 108.816C241.734 110.28 244.797 112.019 244.596 111.933C239.844 109.88 232.025 108.345 229.834 107.95C227.648 107.556 225.482 107.052 223.296 106.656C223.241 106.646 223.262 106.568 223.314 106.573Z" fill="#263238"/>
<path d="M221.745 114.456C224.563 114.832 227.375 115.102 230.177 115.602C232.965 116.1 235.568 116.817 238.315 117.506C238.527 117.559 238.429 117.655 238.214 117.61C235.442 117.031 232.834 116.71 230.055 116.164C227.286 115.62 224.517 114.964 221.731 114.521C221.687 114.516 221.702 114.451 221.745 114.456Z" fill="#263238"/>
<path d="M219.181 120.98C223.517 121.334 227.783 122.488 231.94 123.72C232.147 123.781 232.007 123.892 231.792 123.841C227.568 122.85 224.261 122.043 219.169 121.131C219.089 121.117 219.09 120.972 219.181 120.98Z" fill="#263238"/>
<path d="M199.448 147.886L192.727 113.374L173.994 116.313C166.843 107.71 152.537 90.5132 146.698 85.3082C139.848 79.2022 135.161 83.5592 137.511 92.6082C142.887 113.306 159.207 143.862 163.631 146.862C169.97 151.159 199.448 147.886 199.448 147.886Z" fill="#088178"/>
<path opacity="0.1" d="M186.768 118.162C187.631 118.464 188.68 118.368 189.579 118.492C191.552 118.763 192.458 121.71 190.643 122.828C188.691 124.029 186.346 124.218 184.194 123.38C182.186 122.598 180.506 120.66 180.935 118.402C181.311 116.422 183.358 115.856 184.929 116.858C185.57 117.267 186.041 117.907 186.768 118.162ZM184.798 114.62C186.178 115.19 187.728 115.25 188.838 114.5C189.068 114.34 189.248 114.14 189.358 113.9L184.798 114.62ZM175.068 116.14C175.858 116.7 176.798 117 177.828 116.89C178.558 116.81 179.048 116.17 179.088 115.51L175.068 116.14ZM196.268 131.55C195.898 131.7 195.578 131.99 195.368 132.41C194.528 134.1 195.698 135.92 197.328 137.01L196.268 131.55ZM166.148 138.188C165.832 139.296 165.787 140.287 164.954 141.157C164.12 142.027 163.133 142.571 162.506 143.636C161.97 144.547 162.773 145.896 163.852 145.781C167.294 145.412 170.287 142.079 169.984 138.561C169.793 136.351 166.761 136.038 166.148 138.188ZM162.701 128.502C162.136 129.862 162.239 131.402 161.772 132.824C161.353 134.101 160.859 135.427 160.293 136.644C159.878 137.537 160.717 138.964 161.809 138.479C163.63 137.671 164.979 136.604 165.87 134.769C166.631 133.2 167.47 130.564 166.738 128.886C166.067 127.348 163.519 126.534 162.701 128.502ZM147.855 93.1311C149.033 93.3251 150.146 92.7112 150.459 91.5132C151.022 89.3582 149.098 87.1472 147.577 85.8052C146.009 84.4222 143.914 83.2462 141.791 83.9392C140.445 84.3782 140.284 85.8352 141.082 86.8332C142.009 87.9932 143.298 88.8442 144.288 89.9692C145.358 91.1852 146.114 92.8451 147.855 93.1311ZM155.5 101.608C156.338 100.397 155.69 98.6211 155.086 97.4611C154.766 96.8461 154.276 96.2822 153.662 95.9422C152.835 95.4842 151.574 95.5422 151.097 96.4922C150.788 97.1082 150.816 97.6671 150.978 98.3121C151.059 98.6351 151.179 98.9062 151.314 99.2162C151.333 99.2592 151.346 99.2871 151.356 99.3081C151.362 99.3301 151.37 99.3562 151.38 99.3892C151.666 100.317 151.847 101.349 152.555 102.061C153.49 103.002 154.834 102.572 155.5 101.608ZM153.103 111.566C153.476 111.636 153.853 111.625 154.222 111.533C154.789 111.392 155.225 110.952 155.526 110.479C155.839 109.987 155.888 109.31 155.914 108.747C155.941 108.16 155.708 107.65 155.463 107.135C155.354 106.998 155.245 106.862 155.136 106.725C154.99 106.618 154.844 106.511 154.698 106.404C154.302 106.189 153.853 106.129 153.413 106.2C152.615 106.328 151.951 106.924 151.759 107.722C151.617 108.312 151.444 108.89 151.41 109.5C151.44 109.684 151.469 109.869 151.499 110.053C151.571 110.336 151.705 110.581 151.902 110.788C152.198 111.156 152.626 111.476 153.103 111.566ZM161.548 101.51C161.538 101.5 161.538 101.5 161.538 101.49C160.888 100.74 160.228 99.9802 159.588 99.2402C158.958 99.1902 158.338 99.5301 158.158 100.28C158.018 100.84 158.118 101.46 158.138 102.04C158.138 102.29 158.128 102.54 158.118 102.8C158.098 103.18 158.168 103.55 158.238 103.92C158.358 104.67 159.288 105.26 160.008 105.2C160.798 105.14 161.498 104.62 161.688 103.82C161.878 103.04 161.758 102.28 161.548 101.51Z" fill="#030402"/>
<path d="M192.99 144.717C192.18 142.668 190.282 133.766 189.833 131.543C189.393 129.366 187.887 120.345 187.433 118.06C187.408 117.936 187.578 117.863 187.606 117.99C188.093 120.243 190.297 129.114 190.766 131.331C191.237 133.555 193.024 142.454 193.105 144.688C193.108 144.765 193.016 144.782 192.99 144.717Z" fill="#263238"/>
<path d="M186.808 148.863C183.741 149.037 180.668 149.107 177.594 149.088C174.521 149.05 171.44 148.984 168.374 148.56C166.848 148.323 165.3 148.102 163.839 147.358C162.428 146.473 161.479 145.226 160.517 144.007C158.64 141.529 157.114 138.84 155.605 136.156C152.603 130.773 150.029 125.18 147.506 119.575C145.046 113.941 142.701 108.258 140.6 102.481C143.147 108.073 145.671 113.669 148.284 119.221C150.853 124.792 153.558 130.299 156.42 135.71C157.87 138.404 159.411 141.053 161.141 143.549C162.021 144.76 162.955 146.039 164.144 146.82C165.418 147.504 166.967 147.777 168.454 148.028C174.501 148.899 180.676 148.913 186.808 148.863Z" fill="#263238"/>
<path d="M142.566 107.358C142.141 106.951 141.8 106.48 141.462 106.007C141.158 105.516 140.818 105.025 140.684 104.443C140.832 104.695 141.011 104.92 141.174 105.158L141.669 105.868C141.981 106.353 142.308 106.829 142.566 107.358Z" fill="#263238"/>
<path d="M158.334 98.0862C160.87 100.631 163.134 103.42 165.483 106.126C167.821 108.842 170.089 111.623 172.474 114.281L173.372 115.265C173.524 115.422 173.675 115.585 173.829 115.728C173.907 115.808 173.979 115.864 174.05 115.924C174.104 115.972 174.069 115.929 174.069 115.952C174.076 115.961 174.142 115.95 174.175 115.951C174.937 115.919 175.9 115.782 176.762 115.666L182.075 114.881C185.621 114.362 189.165 113.82 192.72 113.337L192.757 113.332L192.762 113.366L192.896 114.246L192.69 113.38L192.732 113.409C189.224 114.164 185.701 114.832 182.172 115.475C180.407 115.795 178.636 116.076 176.859 116.349C175.947 116.476 175.134 116.629 174.107 116.672C174.03 116.665 173.978 116.682 173.882 116.653C173.786 116.618 173.642 116.54 173.615 116.508C173.513 116.427 173.409 116.343 173.329 116.264C173.153 116.103 172.997 115.939 172.835 115.776C172.521 115.447 172.214 115.116 171.918 114.776C169.562 112.055 167.283 109.29 165.046 106.487L161.701 102.276C160.591 100.869 159.515 99.4322 158.334 98.0862Z" fill="#263238"/>
<path d="M159.652 98.3952C160.028 98.8512 160.313 99.3602 160.593 99.8712C160.838 100.396 161.119 100.925 161.186 101.52C161.067 101.252 160.916 101.006 160.781 100.75L160.371 99.9852C160.118 99.4642 159.848 98.9512 159.652 98.3952Z" fill="#263238"/>
<path d="M39.709 359.879C39.328 350.523 39.481 341.149 40.094 331.807C41.358 312.537 44.531 293.417 48.888 274.615C51.34 264.032 54.36 253.626 57.507 243.233C57.602 242.919 58.103 243.008 58.016 243.335C48.285 279.974 40.302 317.785 40.852 355.872C41.006 366.531 42.24 377.001 43.252 387.592C43.279 387.876 42.813 387.988 42.748 387.697C40.739 378.633 40.086 369.136 39.709 359.879Z" fill="#088178"/>
<path d="M58.016 243.335C58.016 243.335 72.756 280.75 69.456 289.544C66.156 298.338 59.352 300.214 59.352 300.214C59.352 300.214 68.371 313.09 62.068 325.167C55.765 337.244 41.763 336.673 40.832 350.366C40.832 350.366 40.052 293.111 58.016 243.335Z" fill="#088178"/>
<path d="M42.435 326.725C42.417 326.662 42.421 326.596 42.45 326.528C44.52 301.088 49.033 275.727 56.748 251.262C56.771 251.19 56.89 251.213 56.87 251.288C53.95 262.233 51.351 273.236 49.13 284.3C51.044 282.329 53.548 281.195 56.166 280.377C56.215 280.362 56.24 280.432 56.193 280.452C53.467 281.63 50.855 282.997 48.928 285.306C48.498 287.474 48.076 289.644 47.676 291.816C50.97 288.134 55.539 286.308 60.11 284.571C60.174 284.546 60.209 284.646 60.146 284.671C55.385 286.609 50.643 289.106 47.417 293.209C46.293 299.418 45.309 305.649 44.457 311.899C46.865 309.383 49.837 307.692 53.247 306.861C53.349 306.836 53.407 306.988 53.303 307.018C49.8 308.027 46.787 309.988 44.388 312.728C44.371 312.747 44.352 312.757 44.333 312.769C44.038 314.968 43.76 317.169 43.499 319.373C45.354 317.791 47.403 316.588 49.66 315.657C49.72 315.632 49.752 315.726 49.693 315.751C47.401 316.727 45.338 318.133 43.522 319.835C43.496 319.859 43.47 319.857 43.443 319.866C43.198 321.961 42.953 324.057 42.741 326.157C46.121 322.084 50.299 319.138 55.243 317.23C55.34 317.193 55.39 317.34 55.297 317.38C50.49 319.47 46.252 322.782 42.976 326.861C42.886 326.973 42.769 326.991 42.665 326.958C42.346 330.178 42.061 333.402 41.824 336.633C41.821 336.677 41.748 336.682 41.751 336.636C41.937 333.335 42.168 330.029 42.435 326.725Z" fill="#263238"/>
<path d="M54.279 276.659C56.836 274.902 60.084 274.152 63.135 273.898C63.208 273.892 63.214 274 63.143 274.011C59.969 274.482 57.302 275.631 54.386 276.871C54.26 276.924 54.169 276.734 54.279 276.659Z" fill="#263238"/>
<path d="M52.489 316.271C54.512 315.057 56.819 314.371 59.137 313.997C59.218 313.984 59.225 314.109 59.146 314.123C56.793 314.549 54.708 315.387 52.57 316.429C52.479 316.474 52.403 316.323 52.489 316.271Z" fill="#263238"/>
<path d="M0.959021 290.155C7.10602 294.476 13.006 299.461 18.02 305.069C23.365 311.046 27.263 317.831 29.986 325.361C35.563 340.787 38.621 357.498 38.9 373.893C39.056 383.084 38.239 392.203 36.272 401.186C36.2 401.512 35.712 401.42 35.762 401.09C38.165 385.285 38.078 369.157 35.495 353.382C32.961 337.904 28.984 321.065 19.146 308.486C13.789 301.637 7.10902 296.248 0.506022 290.679C0.158022 290.385 0.601021 289.903 0.959021 290.155Z" fill="#088178"/>
<path d="M36.73 362.747C36.73 362.747 31.667 354.222 24.293 346.85C16.919 339.478 10.708 334.238 9.75 329.362C8.791 324.486 17.137 320.896 17.137 320.896C17.137 320.896 6.932 322.728 4.14 318.445C1.348 314.163 0 289.358 0 289.358C0 289.358 18.565 302.612 27.214 321.192C35.864 339.771 36.73 362.747 36.73 362.747Z" fill="#088178"/>
<path d="M6.42299 295.716C14.234 303.388 22.096 311.564 26.696 321.643C28.273 325.099 29.615 328.682 30.797 332.334C30.8 332.339 30.8 332.345 30.803 332.351C31.04 333.084 31.28 333.815 31.504 334.554C31.526 334.591 31.538 334.632 31.542 334.674C33.816 342.201 35.424 349.986 36.816 357.59C36.825 357.639 36.751 357.665 36.74 357.614C35.94 353.744 35.058 349.836 34.072 345.94C34.037 345.941 34 345.934 33.961 345.918C32.382 345.254 30.794 344.839 29.089 344.681C28.978 344.671 28.987 344.478 29.099 344.483C30.744 344.562 32.355 344.851 33.918 345.362C33.019 341.849 32.041 338.345 30.942 334.892C27.358 334.014 23.617 333.541 19.931 333.453C19.893 333.452 19.887 333.395 19.926 333.393C23.642 333.22 27.133 333.54 30.752 334.312C30.561 333.719 30.361 333.13 30.164 332.54C27.744 331.989 25.313 331.525 22.837 331.299C22.793 331.295 22.796 331.219 22.841 331.22C25.266 331.285 27.655 331.54 30.015 332.092C29.005 329.104 27.913 326.157 26.702 323.286C25.7 320.912 24.509 318.657 23.197 316.481C21.212 316.032 19.288 315.604 17.254 315.421C17.197 315.416 17.204 315.326 17.259 315.322C19.105 315.202 21.029 315.34 22.815 315.871C21.839 314.294 20.812 312.749 19.715 311.253C15.552 310.331 11.331 309.475 7.073 310.275C6.999 310.289 6.972 310.165 7.045 310.146C11.099 309.08 15.123 309.695 19.157 310.493C18.717 309.907 18.267 309.329 17.812 308.754C15.257 307.964 12.715 307.581 10.034 307.532C9.97899 307.531 9.96999 307.451 10.027 307.446C12.474 307.212 14.915 307.449 17.279 308.09C13.837 303.814 10.036 299.798 6.27699 295.825C6.10199 295.642 6.23799 295.535 6.42299 295.716Z" fill="#263238"/>
<path d="M6.63 312.625C7.852 312.495 9.095 312.358 10.322 312.497C10.471 312.514 10.458 312.756 10.308 312.76C9.086 312.796 7.864 312.705 6.641 312.771C6.549 312.776 6.537 312.635 6.63 312.625Z" fill="#263238"/>
<path d="M19.992 336.687C21.943 336.663 23.891 337.188 25.714 337.836C25.76 337.852 25.734 337.928 25.687 337.917C23.797 337.467 21.886 337.284 19.977 336.97C19.822 336.944 19.829 336.689 19.992 336.687Z" fill="#263238"/>
<path d="M23.997 328.375C24.789 328.334 25.645 328.473 26.426 328.595C26.506 328.608 26.502 328.738 26.418 328.74C25.629 328.754 24.761 328.775 23.984 328.626C23.847 328.598 23.852 328.382 23.997 328.375Z" fill="#263238"/>
<path d="M91.151 316.478C85.177 318.554 79.251 321.225 73.897 324.604C68.19 328.206 63.467 332.796 59.523 338.26C51.444 349.455 45.107 362.272 41.092 375.475C38.841 382.877 37.395 390.445 36.91 398.17C36.892 398.451 37.309 398.489 37.345 398.21C39.053 384.864 42.852 371.832 48.588 359.662C54.217 347.722 61.327 335.013 72.196 327.107C78.115 322.802 84.766 319.985 91.397 317.004C91.746 316.849 91.498 316.357 91.151 316.478Z" fill="#088178"/>
<path d="M45.423 366.958C45.423 366.958 51.491 361.229 59.162 356.967C66.834 352.705 73.071 349.9 74.974 346.176C76.877 342.452 70.953 337.617 70.953 337.617C70.953 337.617 78.788 341.458 82.037 338.638C85.286 335.818 92.11 316.055 92.11 316.055C92.11 316.055 74.023 322.491 62.728 335.528C51.435 348.564 45.423 366.958 45.423 366.958Z" fill="#088178"/>
<path d="M46.366 362.881C55.413 345.901 67.484 330.539 84.024 320.4C84.031 320.396 84.039 320.406 84.032 320.411C79.677 323.186 75.665 326.386 71.925 329.885C75.273 329.792 78.682 330.326 81.65 331.938C81.716 331.974 81.668 332.062 81.601 332.04C78.293 330.921 75.114 330.186 71.595 330.349C71.546 330.351 71.516 330.326 71.482 330.307C70.895 330.863 70.316 331.429 69.742 332C71.483 332.075 73.243 332.321 74.939 332.69C74.985 332.7 74.972 332.771 74.925 332.762C73.09 332.407 71.299 332.284 69.436 332.309C66.405 335.355 63.581 338.613 60.905 341.996C62.113 341.82 63.38 341.922 64.539 342.26C64.625 342.285 64.603 342.408 64.512 342.397C63.194 342.23 61.942 342.252 60.633 342.344C60.138 342.974 59.637 343.601 59.152 344.24C62.872 344.016 66.515 344.373 70.13 345.307C70.183 345.321 70.169 345.403 70.114 345.392C66.386 344.66 62.627 344.426 58.839 344.66C58.378 345.272 57.94 345.901 57.488 346.521C59.707 346.453 61.859 346.731 64.023 347.269C64.105 347.289 64.082 347.419 63.998 347.4C61.772 346.893 59.509 346.765 57.234 346.873C55.288 349.555 53.424 352.295 51.632 355.069C52.581 354.874 53.577 354.98 54.5 355.242C54.549 355.256 54.536 355.326 54.485 355.32C53.42 355.196 52.427 355.333 51.381 355.467C49.77 357.975 48.213 360.508 46.72 363.056C46.593 363.267 46.245 363.107 46.366 362.881Z" fill="#263238"/>
<path d="M60.438 348.797C62.207 348.645 64.004 348.923 65.693 349.44C65.741 349.455 65.73 349.528 65.678 349.518C63.939 349.198 62.215 349.077 60.452 348.983C60.336 348.976 60.314 348.807 60.438 348.797Z" fill="#263238"/>
<path d="M76.215 328.103C77.015 328.012 77.849 328.116 78.639 328.244C78.733 328.259 78.704 328.398 78.611 328.388C77.814 328.303 77.028 328.333 76.231 328.309C76.101 328.305 76.081 328.119 76.215 328.103Z" fill="#263238"/>
<path d="M22.094 423.108H62.922L57.101 380.463L55.613 369.529H29.403L27.916 380.463L22.094 423.108Z" fill="#455A64"/>
<path d="M27.916 380.463H57.101L55.613 369.529H29.403L27.916 380.463Z" fill="#263238"/>
<path d="M25.6553 374.996H59.3613V365.736H25.6553V374.996Z" fill="#455A64"/>
<path d="M239.551 22.4252C239.551 34.6942 229.6 44.6452 217.331 44.6452C212.373 44.6452 207.795 43.0192 204.094 40.2632L193.209 43.0422L197.741 32.9062C196.057 29.7812 195.112 26.2072 195.112 22.4252C195.112 10.1562 205.063 0.205154 217.332 0.205154C229.601 0.205154 239.551 10.1562 239.551 22.4252Z" fill="white"/>
<path d="M239.551 22.4252C239.513 26.5082 238.453 30.6172 236.267 34.0951C235.776 34.9981 235.103 35.7791 234.506 36.6111C233.808 37.3611 233.169 38.1702 232.381 38.8312C230.895 40.2462 229.182 41.4142 227.362 42.3622C225.556 43.3572 223.562 43.9522 221.559 44.4102C220.542 44.5732 219.527 44.7742 218.493 44.7932C217.464 44.8782 216.43 44.8762 215.399 44.7982C211.274 44.4922 207.239 43.0022 203.882 40.5492L204.183 40.6091L193.319 43.4682L192.439 43.6992L192.809 42.8632L197.302 32.7102L197.318 33.1352C193.967 27.0962 193.793 19.5032 196.621 13.2562C198.029 10.1282 200.159 7.33815 202.788 5.15215C205.414 2.96015 208.563 1.43016 211.866 0.629155C215.173 -0.162845 218.655 -0.214848 221.965 0.517152C225.273 1.26215 228.391 2.76915 231.034 4.86215C236.397 8.99315 239.575 15.6972 239.551 22.4252ZM239.551 22.4252C239.523 15.6952 236.297 9.04416 230.938 4.98416C228.274 2.95216 225.16 1.53016 221.892 0.859155C218.62 0.202155 215.207 0.324154 211.998 1.16015C208.792 2.00415 205.765 3.55115 203.267 5.72215C200.777 7.89615 198.768 10.6052 197.427 13.6142C196.053 16.6202 195.529 19.9542 195.608 23.2372C195.745 26.5252 196.624 29.7731 198.164 32.6791L198.276 32.8912L198.18 33.1052L193.61 43.2232L193.101 42.6182L204.006 39.9192L204.174 39.8772L204.307 39.9782C207.511 42.4172 211.406 43.9492 215.438 44.3272C216.446 44.4242 217.459 44.4452 218.471 44.3812C219.488 44.3832 220.487 44.2042 221.492 44.0642C223.47 43.6512 225.451 43.1042 227.256 42.1542C229.073 41.2502 230.805 40.1332 232.286 38.7292C233.075 38.0782 233.716 37.2792 234.416 36.5382C235.016 35.7152 235.692 34.9422 236.188 34.0472C238.391 30.5992 239.481 26.5082 239.551 22.4252Z" fill="#263238"/>
<path d="M218.875 24.8342V27.2822C218.875 28.3352 218.084 29.1262 217.03 29.1262C216.052 29.1262 215.186 28.3352 215.186 27.2822V23.3662C215.186 23.3292 215.224 23.3292 215.224 23.2912C215.186 23.2542 215.186 23.2542 215.186 23.2162C215.186 22.2372 216.052 21.3712 217.03 21.3712C219.403 21.3712 221.323 19.4892 221.323 17.1552C221.323 14.7842 219.402 12.9392 217.03 12.9392C215.487 12.9392 214.132 13.7682 213.416 15.0102C212.89 15.9142 211.761 16.2152 210.856 15.6882C209.99 15.1622 209.69 14.0692 210.217 13.1672C211.572 10.8332 214.132 9.25116 217.03 9.25116C221.398 9.25116 224.974 12.7902 224.974 17.1572C224.974 20.8822 222.376 24.0072 218.875 24.8342ZM218.875 33.0792V33.7562C218.875 34.8112 218.084 35.6012 217.03 35.6012C216.052 35.6012 215.186 34.8102 215.186 33.7562V33.0792C215.186 32.0632 216.052 31.2352 217.03 31.2352C218.084 31.2352 218.875 32.0632 218.875 33.0792Z" fill="#088178"/>
</svg>
