<svg width="512" height="512" viewBox="0 0 512 512" fill="none" xmlns="http://www.w3.org/2000/svg">
  <g clip-path="url(#clip0_6_2)" filter="url(#filter0_d_6_2)">
    <path
      d="M209.319 440.491C194.481 435.288 179.976 429.758 165.499 424.159C137.84 413.462 110.197 402.725 82.5476 392.005C59.174 382.943 35.8258 373.813 12.3942 364.904C9.48943 363.799 8.94994 362.264 8.95219 359.51C9.01297 285.184 8.99441 210.859 9.04584 136.533C9.04687 135.056 8.09962 133.157 10.5648 132.028C20.6217 132.709 28.8829 137.685 37.7022 140.887C49.5225 145.178 61.173 149.953 72.8938 154.526C74.2909 155.071 75.6741 155.614 76.8668 157.163C77.172 157.743 77.2632 157.992 77.4221 158.634C78.314 162.106 78.4867 165.243 78.4815 168.419C78.4574 183.073 78.4403 197.727 78.4823 212.381C78.5057 220.54 80.047 221.682 87.6408 219.262C92.7174 217.644 97.879 216.305 102.92 214.572C106.519 213.336 109.521 213.882 112.567 216.506C119.248 222.261 126.082 227.843 132.712 233.663C133.212 234.102 133.709 234.548 134.257 234.928C138.084 237.586 140.049 236.711 140.469 232.142C140.591 230.816 140.527 229.479 140.528 228.147C140.539 216.324 140.492 204.5 140.561 192.677C140.575 190.206 140.268 187.662 141.723 184.99C142.136 184.453 142.328 184.259 142.883 183.876C150.291 183.975 156.525 187.079 162.911 189.535C176.699 194.838 190.468 200.193 204.209 205.616C206.62 206.567 209.367 207.223 210.634 210.506C211.548 213.697 211.462 216.537 211.463 219.362C211.487 289.585 211.491 359.809 211.443 430.033C211.441 433.469 211.997 437.075 209.319 440.491Z"
      fill="#BD6428" />
    <path
      d="M209.348 440.894C208.972 364.223 208.97 287.597 208.96 210.504C209.091 207.284 211.339 206.602 213.306 205.837C249.767 191.664 286.213 177.453 322.679 163.293C347.661 153.592 372.654 143.916 397.636 134.213C400.453 133.119 403.279 132.256 406.666 131.936C410.433 132.607 408.945 135.347 408.949 137.152C409.038 180.073 409.018 222.995 409.018 266.375C408.321 269.431 406.084 269.226 404.165 269.373C380.936 271.157 360.3 279.355 343.629 295.707C326.657 312.353 316.712 332.675 315.483 356.773C314.851 369.169 315.844 381.375 320.109 393.168C320.779 395.021 321.483 397.033 319.203 398.858C309.969 401.405 301.64 405.265 293.097 408.525C266.615 418.631 240.202 428.917 213.768 439.147C212.394 439.679 211.07 440.339 209.348 440.894Z"
      fill="#A35623" />
    <path
      d="M318.997 399.342C317.586 394.383 316.187 389.794 315.117 385.13C301.232 324.605 345.561 268.301 408.563 266.901C429.33 266.241 447.608 272.567 463.989 284.08C484.989 298.84 497.961 318.99 503.082 344.323C507.608 366.717 504.521 388.034 493.869 407.89C479.928 433.879 458.448 450.838 429.271 456.967C401.912 462.715 376.328 458.15 353.23 442.011C337.811 431.239 326.322 417.165 318.997 399.342Z"
      fill="#62A4FB" />
    <path
      d="M76.1672 159.233C75.8255 158.816 75.7739 158.656 75.7713 158.249C76.0113 154.149 79.4771 153.959 81.8766 153.026C98.3198 146.635 114.747 140.203 131.197 133.829C164.718 120.84 198.232 107.832 231.741 94.8122C242.911 90.472 254.106 86.1948 265.239 81.7628C268.494 80.4672 271.767 79.9714 275.589 80.6204C295.246 88.1941 314.52 95.6854 333.807 103.144C335.926 103.963 338.118 104.594 340.595 105.446C343.293 109.133 340.639 110.35 338.079 111.39C326.196 116.214 314.209 120.778 302.246 125.398C252.215 144.719 202.274 164.273 152.288 183.711C149.584 184.762 146.949 184.251 143.926 184.741C143.549 184.842 143.254 184.88 143.108 184.91C140.446 186.297 138.069 185.218 135.789 184.346C117.673 177.416 99.6278 170.306 81.5295 163.332C79.4336 162.524 77.8254 161.196 76.1672 159.233Z"
      fill="#E2E2E2" />
    <path
      d="M275.791 80.4113C258.897 87.2258 241.794 93.6572 224.761 100.268C179.835 117.706 134.941 135.226 90.0287 152.7C85.5513 154.442 81.0396 156.097 76.1821 157.897C57.4728 150.975 39.1068 143.995 20.795 136.876C17.5836 135.627 13.933 135.216 11.1793 132.227C18.5121 127.535 26.9284 125.245 34.9549 122.058C60.1236 112.066 85.4341 102.431 110.673 92.6143C139.426 81.4303 168.16 70.1994 196.903 58.9886C199.961 57.7958 202.99 56.5185 206.087 55.4372C208.144 54.719 210.181 54.8002 212.339 55.6415C233.409 63.8541 254.518 71.9681 275.791 80.4113Z"
      fill="#9A5020" />
    <path
      d="M143.932 184.94C162.311 176.427 181.686 169.545 200.817 162.056C246.256 144.267 291.77 126.669 337.232 108.941C338.635 108.394 340.696 108.548 340.989 105.968C362.826 114.142 384.738 122.705 406.848 131.566C403.241 136.024 397.747 136.857 392.885 138.763C353.412 154.234 313.869 169.524 274.338 184.85C252.792 193.203 231.229 201.516 209.312 209.943C187.406 201.705 165.861 193.371 143.932 184.94Z"
      fill="#994F20" />
    <path
      d="M75.7626 159.434C87.1549 161.999 97.6777 167.069 108.58 171.11C119.954 175.326 131.152 180.016 142.695 184.719C142.969 202.27 142.992 219.599 142.96 236.929C142.957 238.823 143.657 241.171 141.141 242.117C139.029 242.91 137.782 241.186 136.418 240.028C127.91 232.803 119.337 225.651 110.965 218.271C108.66 216.238 106.694 215.896 103.826 216.881C96.5925 219.364 89.2424 221.51 81.9275 223.753C76.4666 225.428 75.5951 224.875 75.5896 219.377C75.5701 199.549 75.6227 179.72 75.7626 159.434Z"
      fill="#EFF4F6" />
    <path
      d="M455.716 347.716C436.62 366.814 417.79 385.677 398.923 404.504C389.859 413.548 381.844 413.001 373.819 402.884C364.916 391.662 355.941 380.496 347.144 369.192C342.977 363.837 342.839 357.524 346.319 352.465C349.737 347.497 355.898 345.359 361.754 347.083C365.11 348.071 367.52 350.305 369.628 352.955C374.71 359.342 379.949 365.612 384.806 372.166C387.258 375.474 388.866 375.359 391.674 372.515C408.762 355.208 426.039 338.089 443.192 320.847C446.897 317.123 450.996 314.522 456.449 315.269C467.251 316.748 472.214 329.154 465.33 337.769C462.536 341.263 459.106 344.249 455.716 347.716Z"
      fill="#EEF3F7" />
  </g>
  <defs>
    <filter id="filter0_d_6_2" x="-4" y="0" width="520" height="520" filterUnits="userSpaceOnUse"
      color-interpolation-filters="sRGB">
      <feFlood flood-opacity="0" result="BackgroundImageFix" />
      <feColorMatrix in="SourceAlpha" type="matrix" values="0 0 0 0 0 0 0 0 0 0 0 0 0 0 0 0 0 0 127 0"
        result="hardAlpha" />
      <feOffset dy="4" />
      <feGaussianBlur stdDeviation="2" />
      <feComposite in2="hardAlpha" operator="out" />
      <feColorMatrix type="matrix" values="0 0 0 0 0 0 0 0 0 0 0 0 0 0 0 0 0 0 0.25 0" />
      <feBlend mode="normal" in2="BackgroundImageFix" result="effect1_dropShadow_6_2" />
      <feBlend mode="normal" in="SourceGraphic" in2="effect1_dropShadow_6_2" result="shape" />
    </filter>
    <clipPath id="clip0_6_2">
      <rect width="512" height="512" fill="white" />
    </clipPath>
  </defs>
</svg>