<svg xmlns="http://www.w3.org/2000/svg" width="512" height="512" xmlns:v="https://vecta.io/nano">
  <path
    d="M276.563 34.25L281 38l3.063 2.313C288.578 44.444 292.259 49.169 296 54l1.852 2.375c14.255 19.267 20.547 41.756 20.281 65.527l.008 7.881-.062 12.291-.009 11.953-.078 3.718c-.141 6.054-.141 6.054 2.734 11.05 2.072 1.341 2.072 1.341 4.232 2.243 4.831 2.275 7.477 6.909 9.916 11.461 2.767 8.517 2.41 19.049-1.418 27.152-4.676 7.534-10.151 13.142-18.457 16.348h-2l-.309 2.754C309.039 254.064 298.42 275.517 281 294l-1.707 1.902c-2.591 2.781-4.808 4.85-8.234 6.597-3.576 1.871-6.236 3.601-9.059 6.5-1.624 5.537-1.462 10.779-1.25 16.5l.02 4.516A351.67 351.67 0 0 0 261 341l3.815.782c5.502 1.226 10.803 2.931 16.15 4.702l3.128 1.024 9.845 3.241 6.502 2.133 15.66 5.161 8.268 2.704 4.824 1.58 2.157.695c3.134 1.032 5.973 2.149 8.89 3.707 3.088 1.421 3.694 1.399 6.762.271a111.68 111.68 0 0 0 6.234-5.973l1.864-1.887 3.994-4.068 6.332-6.428 17.999-18.28 11.024-11.169 4.188-4.268 5.872-5.955 1.729-1.798c2.596-2.584 4.343-4.031 7.857-5.236 5.707.119 8.922 3.826 12.773 7.684l1.386 1.381 4.482 4.5 3.133 3.134 6.536 6.559 8.39 8.41 6.454 6.467 3.096 3.102 4.308 4.33 2.478 2.489c2.168 2.323 2.777 3.514 3.371 6.63-.542 3.659-1.031 4.309-3.428 6.928l-1.938 2.137L463 368l-2.18 2.398-7.478 8.136-1.414 1.53-28.408 29.985-17.903 19.01c-34.065 37.211-73.945 68.732-126.831 72.149C276 501 276 501 273.063 499c-2.243-3.263-2.411-4.769-1.75-8.645.648-2.22 1.413-4.341 2.23-6.503l.825-2.186L275 480l-3.547.011-83.335.193-10.255.015-2.062.003-33.066.086-33.924.068-19.057.047-17.928.03-6.587.024-8.981.004-2.644.035c-4.044-.04-6.123-.218-9.652-2.368-2.614-2.864-2.588-4.502-2.592-8.347l-.038-3.806.04-4.113-.007-4.254.039-8.932.009-11.329.013-8.803-.002-4.169c-.051-17.876 5.044-33.23 17.427-46.372 11.513-10.843 26.433-15.717 41.188-20.422l4.496-1.454 9.333-3 11.96-3.853 9.244-2.98 4.414-1.423 6.137-1.967 3.522-1.129C152 341 152 341 155 341a350.51 350.51 0 0 0 .287-13.177l.121-4.472c.209-5.064.087-9.476-1.408-14.351-3.88-3.991-8.162-6.323-13-9-2.437-1.92-4.601-4.016-6.75-6.25l-1.62-1.661C117.047 275.701 103 249.046 103 226l-2.625-.75c-8.607-3.188-14.922-9.551-18.812-17.812-3.208-9.013-2.981-19.607 1.105-28.285C86.376 173.161 90.748 170.06 97 167l.018-2.132.218-20.117.111-10.337c.285-35.119.285-35.119 6.841-52.04l.913-2.4C113.331 59.023 128.744 39.866 148 28l2.723-1.762c38.747-24.041 90.41-20.056 125.84 8.012z"
    fill="black" />
  <path
    d="M134 132a391.86 391.86 0 0 1 11.786-.494l5.939-.297c7.283-.166 11.643.358 17.357 5.084l2.472 2.38c4.54 4.32 10.018 7.258 15.446 10.327l2.226 1.274C208.948 161.448 229.95 168.904 252 174l3.555.859c14.452 3.212 29.635 4.926 44.422 5.375l2.749.083 5.007.04c5.762.104 8.209 1.535 12.267 5.642 2.281 3.007 2.427 6.112 2.309 9.852-.915 6.372-4.439 10.968-9.367 14.906-2.039 1.305-3.974 2.127-6.254 2.93-3.892.971-3.892.971-5.687 4.313-.679 2.066-1.296 4.153-1.875 6.25l-1.059 3.793-2.039 7.758C289.699 260.475 277.99 282.139 256 296c-14.548 8.554-29.423 13.417-46.312 13.25l-3.071-.025c-24.786-.369-45.965-9.677-63.617-27.225-11.624-12.388-19.475-28.687-22.937-45.25-.932-4.432-2.113-8.777-3.375-13.125l-.572-2.13c-1.004-3.356-1.766-5.224-4.569-7.394-1.967-.851-3.97-1.619-5.984-2.352-5.199-2.554-8.12-6.193-10.937-11.187-1.149-4.712-1.406-8.844.625-13.312L97 185l1.813-2.375C101 181 101 181 103.688 181.25L107 182c6.778.729 12.192-.346 18-4 4.953-4.29 6.72-9.409 7.411-15.802l.222-4.221.126-2.261.366-7.09.262-4.832L134 132z"
    fill="#f6c9a4" />
  <path
    d="M171.125 357.375c26.427 10.402 51.681 7.552 77.877-1.758 5.413-1.671 8.498-1.456 13.972.333l2.067.665 6.733 2.213 4.704 1.53 9.85 3.229 12.585 4.119 12.049 3.935 2.303.752 6.503 2.139 3.729 1.227c3.586 1.27 7.025 2.705 10.504 4.241-1.332 3.021-2.709 4.883-5.218 7.016l-1.987 1.726-2.154 1.863c-21.936 19.651-33.845 36.858-40.684 65.619C283 460 283 460 281 465H57c0-63.901 0-63.901 13.52-77.842 8.48-7.377 18.744-10.989 29.301-14.33l4.181-1.361 10.907-3.508 11.048-3.573L149 357l3.011-.96 2.696-.84 2.301-.723c5.071-1.214 9.492.985 14.117 2.898z"
    fill="#e38d66" />
  <path
    d="M270.711 48.121c18.611 15.993 31.519 39.799 33.493 64.423.267 6.029.166 12.049.046 18.081l-.055 5.391L304 149c-25.205-2.115-52.054-11.733-71-29v-2l1.566-.592c24.979-9.13 24.979-9.13 46.434-24.408 1.151-2.666 1.184-4.051 1-7-2.058-1.829-3.48-2.912-6.223-3.375-3.9.527-6.434 2.609-9.527 4.875-34.28 23.786-80.25 30.522-121.066 31.77l-2.013.062-9.853.239-3.587.085-3.206.057c-2.693.041-2.693.041-4.524 2.287-.378 1.906-.378 1.906-.439 4.111l-.142 2.569-.13 2.781-.336 5.805-.479 9.171-.497 8.837-.117 2.769c-.394 6.31-.394 6.31-2.733 9.566C115 169 115 169 112 169l-.11-22.784-.041-7.736-.044-11.178-.031-3.442C111.77 100.019 118.624 78.287 134 60l2.113-2.605c15.55-18.336 38.575-29.526 62.336-32.117 26.82-2.095 51.551 5.663 72.262 22.844z"
    fill="#6c7274" />
  <path
    d="M388 346c3.061 1.465 5.177 2.932 7.575 5.348l2.062 2.062 2.191 2.222 2.27 2.278 7.152 7.214 4.859 4.887L426 382c-1.312 2.899-2.714 4.961-4.967 7.201l-1.84 1.844-2.014 1.987-2.124 2.12-6.966 6.918-4.827 4.811-12.718 12.653-20.37 20.274-7.135 7.09-4.348 4.329-2.02 1.999-1.831 1.827-1.598 1.588c-1.356 1.36-1.356 1.36-2.242 3.359-3.063-1.371-5.202-2.938-7.591-5.285l-2.072-2.023-2.201-2.184-2.277-2.25-4.743-4.716-7.314-7.203-4.604-4.582-2.231-2.172-2.024-2.042-1.8-1.785C313 424 313 424 313.245 422.096c.87-2.415 1.87-3.581 3.684-5.386l1.891-1.903 2.086-2.053 2.188-2.189 7.191-7.142 4.973-4.96 13.114-13.04 13.372-13.312L388 346z"
    fill="#6ee1fd" />
  <path
    d="M169 316c5.461 1.092 10.752 2.564 16.113 4.063C204.5 324.739 225.379 322.628 244 316h3v26c-13.51 5.629-13.51 5.629-18.437 6.75l-2.871.672L223 350l-2.352.566c-17.506 2.866-35.934-.709-51.648-8.566v-26z"
    fill="#eaaf87" />
  <path
    d="M217.678 124.028l1.638 1.577C243.466 147.867 272.322 157.235 304 163v3c-38.242.442-75.382-8.905-109-27.25l-2.23-1.212-2.083-1.178-1.801-1.017c-2.586-1.84-4.688-4.064-6.887-6.343l2.69-.443 9.907-1.638 4.283-.707 6.166-1.02 3.745-.619c3.077-.471 3.077-.471 5.435-1.31 1.773-.263 1.773-.263 3.451.765z"
    fill="#3b474c" />
  <path
    d="M414 320c3.092 1.376 5.196 2.952 7.575 5.348l2.062 2.062 2.191 2.222 2.27 2.278 7.152 7.214 4.859 4.887L452 356c-1.396 2.906-2.731 4.971-5.039 7.234l-1.758 1.738-1.828 1.777-1.852 1.824L437 373c-5.067-4.242-9.812-8.677-14.465-13.367l-2.055-2.059-6.418-6.448-4.385-4.398L399 336l2.84-3.334 1.598-1.876c2.047-2.347 4.219-4.543 6.437-6.728l2.367-2.34L414 320z"
    fill="#f6ea7c" />
  <path
    d="M305 436c2.81 1.28 4.854 2.607 7.024 4.797l1.698 1.698 1.793 1.825 1.866 1.875 5.868 5.93 3.992 4.02L337 466c-2.12 2.12-3.248 2.583-6.035 3.512l-2.518.849-2.724.897-2.795.933-5.858 1.941-8.974 2.989-5.686 1.887-2.718.909-2.528.83-2.223.735C293 482 293 482 290 482c2.466-9.931 5.836-19.531 9.188-29.187l1.693-4.908L305 436z"
    fill="#f3e67c" />
</svg>