<svg width="744" height="208" viewBox="0 0 744 208" fill="none" xmlns="http://www.w3.org/2000/svg">
  <path
    d="M410.641 108.97C416.159 114.338 421.354 119.508 426.547 124.68C430.441 128.557 435.037 128.873 439.319 125.553C443.385 122.4 444.554 116.373 441.805 112.096C441.007 110.854 439.873 109.815 438.824 108.75C436.134 106.019 435.837 103.093 438.686 100.482C442.809 96.7038 444.626 92.3906 442.209 87.124C439.749 81.7624 434.911 80.9776 429.609 81.1403C424.16 81.3076 418.702 81.1775 413.374 81.1775C411.9 87.4193 412.883 92.1703 417.855 96.1633C422.116 99.5851 425.68 103.868 429.605 107.718C432.314 110.375 434.489 113.323 431.161 116.688C427.92 119.965 424.899 118.161 422.168 115.382C416.565 109.679 410.678 104.236 405.343 98.2962C403.548 96.2984 402.452 93.1901 402.132 90.4609C401.612 86.0243 401.99 81.4819 401.994 76.9841C401.999 72.6957 404.147 70.4975 408.438 70.4879C416.767 70.4692 425.11 70.1858 433.423 70.5494C449.668 71.2598 458.658 87.31 451.369 101.919C450.663 103.335 450.702 105.705 451.401 107.142C455.435 115.431 455.039 123.264 449.352 130.537C443.457 138.076 435.233 139.291 426.391 138.218C425.347 138.092 424.225 137.326 423.439 136.552C417.03 130.24 410.51 124.022 404.472 117.369C403.082 115.837 402.457 112.373 403.185 110.442C404.329 107.411 407.376 107.029 410.641 108.97Z"
    fill="#088178" />
  <path
    d="M305.765 135.381C295.84 129.212 291.476 120.492 293.271 109.411C294.929 99.1752 301.296 92.3482 311.33 89.5659C318.301 87.6328 325.136 88.7143 331.99 93.1022C331.99 87.4887 332.071 82.5821 331.963 77.6796C331.88 73.8794 333.009 70.7536 337.19 70.6504C341.719 70.5386 342.86 73.8877 342.857 77.8172C342.842 95.2949 342.843 112.773 342.857 130.25C342.86 133.501 342.904 137.278 339.04 137.899C336.652 138.283 333.919 136.523 330.008 135.313C323.325 139.261 314.805 139.919 305.765 135.381ZM303.867 116.061C306.568 125.94 315.602 130.51 324.046 126.27C330.535 123.011 333.499 115.899 331.195 109.114C328.933 102.448 322.371 98.3916 315.705 99.5386C307.935 100.876 303.656 106.496 303.867 116.061Z"
    fill="#088178" />
  <path
    d="M219.58 73.2456C227.698 78.038 232.482 84.5781 233.27 93.8248C233.595 97.6311 232.83 100.713 228.527 101.077C224.588 101.409 223.126 98.8767 222.732 95.1594C222.017 88.4198 218.517 83.7015 211.788 81.8252C205.667 80.1184 200.609 82.0553 196.683 86.8374C195.462 88.3254 194.143 90.2919 194.083 92.0798C193.808 100.351 193.334 108.7 194.161 116.897C194.8 123.239 201.455 127.739 207.864 127.815C214.048 127.888 220.035 123.647 221.926 117.746C222.379 116.331 222.67 114.83 222.793 113.348C223.089 109.763 224.91 107.623 228.528 107.916C232.519 108.238 233.531 111.032 233.328 114.683C232.389 131.585 214.905 142.956 199.106 136.881C189.209 133.075 182.923 124.032 182.824 113.374C182.776 108.209 183.2 103.009 182.747 97.8835C181.103 79.2899 200.607 64.3488 219.58 73.2456Z"
    fill="#088178" />
  <path
    d="M391.999 98.0653C393.857 102.976 396.128 107.47 397.007 112.221C397.859 116.822 395.502 118.793 390.645 118.834C381.995 118.905 373.343 118.854 364.692 118.854C363.111 118.854 361.529 118.854 359.734 118.854C363.077 127.256 372.195 130.208 379.635 125.76C380.627 125.167 381.52 124.402 382.431 123.681C385.188 121.497 387.979 121.2 390.257 124.146C392.689 127.293 391.364 130.059 388.731 132.429C381.58 138.864 370.02 140.312 361.194 135.884C352.065 131.304 346.4 121.322 347.508 111.302C348.651 100.958 354.107 93.5382 363.908 90.0826C374.753 86.2591 384.153 89.2052 391.999 98.0653ZM381.767 102.743C372.785 96.557 362.452 98.9936 360.08 107.752C368.362 107.752 376.669 107.752 385.697 107.752C384.28 105.831 383.321 104.53 381.767 102.743Z"
    fill="#088178" />
  <path
    d="M458.949 110.373C463.03 90.9873 479.686 83.4814 497.262 91.1931C499.989 90.4611 503.288 88.4629 505.277 89.3619C507.177 90.2201 508.61 94.0677 508.693 96.6508C509.053 107.965 509.065 119.305 508.682 130.618C508.597 133.142 506.988 136.731 505.013 137.741C503.279 138.628 500.048 136.588 497.613 135.179C488.303 139.722 478.768 140.251 469.638 134.057C461.538 128.562 458.082 120.597 458.949 110.373ZM480.42 99.6607C469.315 103.381 465.776 115.834 473.621 123.588C478.456 128.367 485.748 129.158 491.413 125.517C496.91 121.985 499.283 115.175 497.164 109.014C494.802 102.148 489.128 98.7532 480.42 99.6607Z"
    fill="#088178" />
  <path
    d="M666.311 90.056C667.083 92.1829 667.921 94.0738 667.941 95.9734C668.065 107.638 667.972 119.304 668.025 130.969C668.04 134.154 667.759 137.554 664.088 137.97C661.811 138.228 659.311 136.524 655.535 135.229C641.213 140.71 630.147 138.597 622.555 127.922C616.07 118.804 616.5 106.475 623.607 97.7634C631.654 87.8996 643.104 86.0838 657.075 92.5247C659.281 89.2208 661.916 87.0512 666.311 90.056ZM628.847 115.191C630.732 123.837 637.606 129.065 645.183 127.615C653.004 126.119 657.893 119.572 657.04 111.736C656.261 104.582 649.842 98.9689 642.667 99.1684C634.678 99.3905 629.079 105.534 628.847 115.191Z"
    fill="#088178" />
  <path
    d="M611.476 137.06C607.009 139.847 604.386 137.849 602.405 134.241C589.262 141.03 577.102 139.21 568.948 129.315C561.358 120.104 561.407 106.908 569.012 97.5925C575.148 90.0766 587.879 84.2605 600.823 91.8012C604.493 90.569 607.076 88.8789 609.498 89.0844C612.979 89.38 613.201 92.6937 613.19 95.6841C613.149 107.51 613.236 119.337 613.113 131.161C613.093 133.052 612.249 134.934 611.476 137.06ZM599.711 105.016C593.943 98.8632 587.27 97.4844 581.064 101.162C574.247 105.203 571.989 113.744 575.935 120.569C579.859 127.357 588.056 129.773 594.836 126.14C602.355 122.11 604.472 113.915 599.711 105.016Z"
    fill="#088178" />
  <path
    d="M546.969 88.4936C550.293 88.4938 553.198 88.1002 555.932 88.6127C558.322 89.0606 561.93 90.0686 562.449 91.6607C563.107 93.6791 561.888 97.2 560.261 98.9232C551.92 107.757 543.186 116.218 534.596 124.816C533.9 125.513 533.251 126.257 531.787 127.833C538.873 127.833 545.068 127.833 551.262 127.833C553.094 127.833 554.925 127.852 556.756 127.833C560.371 127.795 563.131 129.004 563.177 133.082C563.222 137.126 560.548 138.493 556.915 138.507C552.586 138.523 548.257 138.512 543.928 138.512C536.102 138.512 528.264 138.762 520.46 138.353C518.219 138.235 514.9 136.672 514.223 134.934C513.539 133.181 514.884 129.779 516.441 128.151C525.51 118.665 534.902 109.489 545.224 99.1697C536.947 99.1697 529.919 99.1727 522.891 99.1689C515.938 99.1651 513.451 97.7407 513.514 93.8094C513.576 89.8974 516.078 88.4924 522.999 88.4913C530.824 88.49 538.65 88.4927 546.969 88.4936Z"
    fill="#088178" />
  <path
    d="M238.152 112.2C239.404 101.263 244.727 93.6824 254.726 90.0465C263.709 86.78 272.186 88.4096 279.458 94.6647C288.422 102.376 290.62 114.58 285.224 125.028C279.926 135.286 268.259 140.55 256.981 137.77C245.755 135.004 238.338 125.104 238.152 112.2ZM275.471 120.639C278.546 113.832 277.716 107.813 273.077 103.279C268.753 99.0536 262.499 98.0323 257.002 100.654C251.504 103.276 248.397 108.608 248.998 114.808C249.581 120.814 252.845 124.92 258.514 126.938C264.803 129.176 270.02 127.327 275.471 120.639Z"
    fill="#088178" />
  <path
    d="M672.832 112C672.832 106.509 672.847 101.518 672.827 96.5266C672.815 93.5258 672.359 89.7618 676.097 89.1811C678.58 88.7953 681.397 90.5606 684.822 91.591C687.963 90.8073 692.37 89.4469 696.877 88.6714C700.087 88.1189 702.484 89.9105 702.881 93.2131C703.277 96.5129 701.385 98.4161 698.124 99.0905C686.502 101.495 683.183 105.609 683.169 117.505C683.163 122.497 683.112 127.489 683.186 132.479C683.239 136.095 681.56 138.386 677.993 138.382C674.424 138.378 672.774 136.077 672.813 132.465C672.884 125.811 672.832 119.155 672.832 112Z"
    fill="#088178" />
  <circle cx="104" cy="104" r="63" fill="#088178" />
  <circle cx="104" cy="104" r="60" fill="#ffffff" />
  <circle cx="104" cy="84" r="1" fill="#088178" />
  <circle cx="104" cy="92" r="1" fill="#088178" />
  <circle cx="104" cy="96" r="1" fill="#088178" />
  <circle cx="104" cy="100" r="1" fill="#088178" />
  <circle cx="104" cy="88" r="1" fill="#088178" />
  <path
    d="M100.635 105.236C103.008 105.172 105.38 105.108 108.039 104.868C108.326 104.692 108.611 104.682 108.708 104.461C108.902 96.5368 109.001 88.8328 109.099 81.1289C113.19 76.487 117.288 71.8515 121.367 67.1989C122.535 65.8655 123.627 65.7212 125.426 66.3882C130.973 68.4446 136.68 70.0655 142.272 72.0085C143.464 72.4225 144.703 73.2767 145.459 74.2766C151.143 81.793 156.671 89.428 162.35 96.9482C163.571 98.5644 163.061 99.4256 161.571 100.1C155.375 102.903 149.159 105.66 142.947 108.427C141.246 109.184 139.964 108.663 138.936 107.162C138.129 105.983 137.215 104.878 135.696 103.843C135.649 104.816 135.56 105.79 135.56 106.763C135.553 120.086 135.562 133.41 135.558 146.733C135.557 150.532 135.354 150.741 131.649 150.742C113.269 150.746 94.8882 150.687 76.5085 150.8C73.645 150.818 72.8257 149.855 72.8474 147.105C72.9525 133.782 72.9021 120.458 72.8957 107.135C72.8953 106.106 72.8092 105.077 72.1306 103.773C71.1312 104.966 70.2654 106.321 69.0875 107.299C68.2359 108.007 66.6897 108.868 65.932 108.544C59.1537 105.64 52.4801 102.492 45.7849 99.3958C45.5504 99.2873 45.4116 98.9722 45 98.4812C45.8449 97.3036 46.7136 96.0675 47.608 94.8505C52.556 88.1177 57.6327 81.4748 62.401 74.6174C64.2655 71.9359 67.0857 71.6579 69.6423 70.7252C74.288 69.0303 79.0284 67.5902 83.7555 66.1282C84.3943 65.9306 85.4842 65.9361 85.8586 66.3296C90.3938 71.0967 94.8338 75.9543 99.3115 81.2694C99.3074 87.6744 99.243 93.599 99.3008 99.5223C99.3195 101.438 99.659 103.351 100.048 105.256C100.374 105.243 100.505 105.24 100.635 105.236ZM100.613 134.912C99.8874 136.977 99.1624 139.042 98.4655 141.027C100.538 142.536 101.215 141.579 101.804 139.914C103.837 134.161 105.976 128.445 108.036 122.701C108.391 121.711 109.413 120.298 107.537 119.966C106.94 119.86 105.741 121.092 105.402 121.944C103.753 126.082 102.304 130.299 100.613 134.912ZM112.339 130.19C112.839 130.518 113.339 130.845 113.761 131.121C112.645 132.979 108.886 132.465 110.19 136.312C112.744 134.909 115.213 133.645 117.548 132.17C117.887 131.956 117.861 130.231 117.534 130.05C115.205 128.753 112.754 127.676 110.261 126.49C109.206 128.866 110.661 129.393 112.339 130.19ZM91.9535 133.337C93.7965 134.312 95.6395 135.288 97.6255 136.339C98.9956 132.433 94.7421 133.158 94.1148 131.308C95.0705 129.6 98.6788 130.279 97.6431 126.622C95.5539 127.58 93.6183 128.405 91.7459 129.355C90.9303 129.768 90.2444 130.438 89.4996 130.991C90.1989 131.694 90.8982 132.398 91.9535 133.337Z"
    fill="#088178" />
  <rect x="108" y="81" width="1" height="25" fill="white" />
  <rect x="99" y="81" width="1" height="25" fill="white" />
  <rect x="99" y="104" width="10" height="2" fill="white" />
  <path
    d="M42 41H702V39H42V41ZM703 42V166H705V42H703ZM702 167H42V169H702V167ZM41 166V42H39V166H41ZM42 167C41.4477 167 41 166.552 41 166H39C39 167.657 40.3432 169 42 169V167ZM703 166C703 166.552 702.552 167 702 167V169C703.657 169 705 167.657 705 166H703ZM702 41C702.552 41 703 41.4477 703 42H705C705 40.3431 703.657 39 702 39V41ZM42 39C40.3431 39 39 40.3431 39 42H41C41 41.4477 41.4477 41 42 41V39Z"
    fill="white" fill-opacity="0.1" />
</svg>